<svg width="300" height="300" viewBox="0 0 300 300" fill="none" xmlns="http://www.w3.org/2000/svg">
<circle cx="149.5" cy="150.5" r="130.5" fill="#F0F2F6"/>
<path d="M191.065 76.9517C188.69 74.5793 186.122 72.4098 183.385 70.4657L183.727 69.9737C186.494 71.9384 189.091 74.1321 191.491 76.5317L191.065 76.9517ZM179.797 68.1197C178.387 67.2677 176.923 66.4637 175.453 65.7197L175.717 65.1797C177.205 65.9177 178.681 66.7277 180.109 67.5797L179.797 68.1197Z" fill="#1A1A1A"/>
<path opacity="0.2" d="M191.065 76.9517C188.69 74.5793 186.122 72.4098 183.385 70.4657L183.727 69.9737C186.494 71.9384 189.091 74.1321 191.491 76.5317L191.065 76.9517ZM179.797 68.1197C178.387 67.2677 176.923 66.4637 175.453 65.7197L175.717 65.1797C177.205 65.9177 178.681 66.7277 180.109 67.5797L179.797 68.1197Z" fill="black"/>
<path d="M108.895 78.0371C119.716 67.6186 134.193 61.8613 149.214 62.0025C164.234 62.1438 178.6 68.1724 189.224 78.7926C199.847 89.4128 205.88 103.777 206.026 118.798C206.171 133.818 200.418 148.297 190.003 159.121L149.461 199.669L108.895 159.103C98.1512 148.35 92.1162 133.771 92.1162 118.57C92.1162 103.369 98.1512 88.7904 108.895 78.0371ZM149.455 145.237C154.722 145.237 159.87 143.675 164.249 140.749C168.628 137.823 172.041 133.664 174.057 128.798C176.072 123.932 176.599 118.578 175.571 113.412C174.543 108.247 172.006 103.502 168.282 99.7781C164.557 96.0544 159.812 93.5188 154.646 92.492C149.48 91.4652 144.126 91.9934 139.261 94.0097C134.395 96.0261 130.237 99.44 127.312 103.82C124.386 108.199 122.826 113.348 122.827 118.615C122.841 125.668 125.653 132.427 130.645 137.409C135.637 142.391 142.402 145.189 149.455 145.189V145.237Z" fill="#1A1A1A"/>
<path opacity="0.2" d="M108.779 78.0371C119.6 67.6186 134.077 61.8613 149.097 62.0025C164.118 62.1438 178.484 68.1724 189.107 78.7926C199.731 89.4128 205.764 103.777 205.909 118.798C206.055 133.818 200.302 148.297 189.887 159.121L149.345 199.669L108.779 159.103C98.035 148.35 92 133.771 92 118.57C92 103.369 98.035 88.7904 108.779 78.0371ZM149.339 145.237C154.605 145.237 159.754 143.675 164.133 140.749C168.512 137.823 171.925 133.664 173.94 128.798C175.956 123.932 176.483 118.578 175.455 113.412C174.427 108.247 171.89 103.502 168.165 99.7781C164.441 96.0544 159.696 93.5188 154.53 92.492C149.364 91.4652 144.01 91.9934 139.144 94.0097C134.279 96.0261 130.121 99.44 127.195 103.82C124.27 108.199 122.71 113.348 122.711 118.615C122.725 125.668 125.537 132.427 130.529 137.409C135.521 142.391 142.286 145.189 149.339 145.189V145.237Z" fill="black"/>
<g style="mix-blend-mode:color-dodge" opacity="0.4">
<path d="M149.461 196.423C149.441 196.422 149.421 196.418 149.402 196.41C149.383 196.401 149.367 196.389 149.353 196.375L110.485 157.512C102.782 149.807 97.5378 139.99 95.4139 129.304C93.29 118.618 94.3823 107.542 98.5528 97.4766C102.723 87.4112 109.785 78.8083 118.844 72.7557C127.903 66.7032 138.554 63.4727 149.449 63.4727C160.344 63.4727 170.995 66.7032 180.054 72.7557C189.113 78.8083 196.175 87.4112 200.345 97.4766C204.516 107.542 205.608 118.618 203.484 129.304C201.36 139.99 196.115 149.807 188.413 157.512L149.563 196.357C149.552 196.375 149.537 196.39 149.52 196.401C149.502 196.413 149.482 196.42 149.461 196.423ZM149.461 63.7685C138.625 63.7704 128.033 66.9851 119.024 73.0063C110.015 79.0274 102.994 87.5845 98.848 97.5958C94.702 107.607 93.6174 118.623 95.7315 129.25C97.8455 139.878 103.063 149.64 110.725 157.302L149.485 196.057L188.227 157.321C195.888 149.654 201.104 139.888 203.215 129.258C205.327 118.627 204.24 107.609 200.091 97.5965C195.942 87.5839 188.917 79.0261 179.906 73.0049C170.894 66.9837 160.299 63.7695 149.461 63.7685ZM149.461 147.769C143.69 147.769 138.048 146.057 133.25 142.851C128.451 139.644 124.712 135.087 122.503 129.755C120.295 124.423 119.718 118.556 120.844 112.896C121.97 107.236 124.75 102.037 128.831 97.9564C132.912 93.876 138.112 91.0976 143.772 89.9724C149.433 88.8473 155.3 89.4259 160.631 91.6353C165.963 93.8446 170.519 97.5854 173.724 102.384C176.93 107.184 178.64 112.825 178.639 118.597C178.621 126.327 175.54 133.736 170.069 139.199C164.599 144.661 157.186 147.732 149.455 147.739L149.461 147.769ZM149.461 89.7185C143.749 89.7185 138.166 91.4122 133.417 94.5853C128.668 97.7585 124.967 102.269 122.781 107.545C120.595 112.822 120.024 118.629 121.138 124.23C122.252 129.832 125.002 134.978 129.041 139.016C133.08 143.055 138.225 145.805 143.827 146.92C149.429 148.034 155.235 147.462 160.512 145.276C165.789 143.091 170.299 139.389 173.472 134.64C176.645 129.891 178.339 124.308 178.339 118.597C178.339 110.934 175.297 103.585 169.88 98.1639C164.464 92.7433 157.118 89.6949 149.455 89.6885L149.461 89.7185Z" fill="#FAFAFA"/>
</g>
</svg>
