<svg width="200" height="200" viewBox="0 0 200 200" fill="none" xmlns="http://www.w3.org/2000/svg">
<path d="M64.7668 20.3247L73.7418 17.4581C82.1418 14.7747 91.1252 19.1164 94.7252 27.5997L101.892 44.4997C105.017 51.8581 103.284 60.5164 97.6085 65.8997L81.8335 80.8831C82.8057 89.8497 85.8168 98.6747 90.8668 107.358C95.6691 115.757 102.104 123.11 109.792 128.983L128.758 122.65C135.942 120.258 143.767 123.016 148.175 129.491L158.442 144.575C163.575 152.108 162.65 162.491 156.292 168.875L149.475 175.716C142.692 182.525 133.008 185 124.042 182.2C102.886 175.6 83.4335 156.008 65.6835 123.425C47.9113 90.7858 41.6391 63.0969 46.8668 40.3581C49.0668 30.7914 55.8835 23.1664 64.7835 20.3247" fill="#1A1A1A"/>
</svg>
