<svg width="355" height="148" viewBox="0 0 355 148" fill="none" xmlns="http://www.w3.org/2000/svg">
<g clip-path="url(#clip0_227_848)">
<path d="M267.507 63.6526V36.0928C267.507 33.3449 269.752 31.1094 272.512 31.1094H290.621C293.381 31.1094 295.626 33.3448 295.626 36.0928V63.6526C295.626 66.4005 293.381 68.636 290.621 68.636H272.512C269.752 68.636 267.507 66.4005 267.507 63.6526Z" fill="#F18341"/>
<path d="M276.78 43.0225H286.353V40.6398H276.78V43.0225Z" fill="#3F3D56"/>
<path d="M279.174 38.853H283.96V31.1094H279.174V38.853Z" fill="#3F3D56"/>
<path d="M279.174 68.6362H283.96V60.8926H279.174V68.6362Z" fill="#3F3D56"/>
<path d="M254.643 64.7661H226.962C224.202 64.7661 221.957 62.5306 221.957 59.7827V41.7534C221.957 39.0055 224.202 36.77 226.962 36.77H254.643C257.403 36.77 259.649 39.0055 259.649 41.7534V59.7827C259.649 62.5306 257.403 64.7661 254.643 64.7661Z" fill="#F18341"/>
<path d="M246.187 40.6416H236.615V43.0242H246.187V40.6416Z" fill="#3F3D56"/>
<path d="M229.734 53.1506V48.3853H221.957V53.1506H229.734Z" fill="#3F3D56"/>
<path d="M259.649 53.1505V48.3853H251.871V53.1505H259.649Z" fill="#3F3D56"/>
<path d="M30.0976 116.302L25.4765 89.4639C23.4231 77.5383 32.2886 66.5027 44.4253 65.8769L110.304 62.4798L126.027 36.6803C128.111 33.2601 131.838 31.1714 135.856 31.1714H183.191C186.912 31.1714 190.056 33.9185 190.539 37.5916L191.741 58.2352L309.754 58.587L324.6 107.297L310.82 106.628L311.526 121.403L293.506 122.106L287.499 105.196C286.368 102.011 281.412 98.421 276.26 95.4171C264.71 88.6828 249.872 90.8442 241.132 100.936C239.07 103.317 237.629 105.798 237.226 108.124L234.5 123.865L102.354 121.755L85.0349 97.6345C79.9182 92.0908 55.7637 90.0544 53.5884 97.6345L40.5209 116.83L30.0976 116.302Z" fill="#E6E6E6"/>
<path d="M173.726 46.8697L177.613 65.1179L128.147 66.1732L138.594 43.8404C139.542 41.8144 141.623 40.5566 143.865 40.6537L167.569 41.6798C170.57 41.8097 173.102 43.9445 173.726 46.8697Z" fill="white"/>
<path d="M121.434 64.7663L131.327 39.4382L128.737 36.8594L112.601 61.2485L115.879 66.1734L121.434 64.7663Z" fill="white"/>
<path d="M263.12 147.083C275.999 147.083 286.44 136.688 286.44 123.865C286.44 111.043 275.999 100.648 263.12 100.648C250.24 100.648 239.8 111.043 239.8 123.865C239.8 136.688 250.24 147.083 263.12 147.083Z" fill="#3F3D56"/>
<path d="M247.043 123.865C247.043 115.04 254.255 107.859 263.12 107.859C271.984 107.859 279.196 115.04 279.196 123.865C279.196 132.691 271.984 139.871 263.12 139.871C254.255 139.871 247.043 132.691 247.043 123.865ZM247.396 123.865C247.396 132.497 254.45 139.52 263.12 139.52C271.789 139.52 278.843 132.497 278.843 123.865C278.843 115.234 271.789 108.211 263.12 108.211C254.45 108.211 247.396 115.234 247.396 123.865Z" fill="white"/>
<path d="M249.34 123.865C249.34 131.442 255.509 137.585 263.12 137.585C270.73 137.585 276.9 131.442 276.9 123.865C276.9 116.288 270.73 110.146 263.12 110.146C255.509 110.146 249.34 116.288 249.34 123.865ZM272.077 120.58L269.636 122.164L268.698 120.731L272.077 120.58ZM268.36 128.637L269.01 127.054L271.058 129.736L268.36 128.637ZM262.108 134.067L263.826 131.166V134.067H262.108ZM262.108 117.269L263.826 114.367V117.269H262.108ZM254.475 129.736L256.522 127.054L257.173 128.637L254.475 129.736ZM253.456 120.58L256.835 120.731L255.897 122.164L253.456 120.58Z" fill="#E6E6E6"/>
<path d="M67.3741 147.083C80.2533 147.083 90.694 136.688 90.694 123.865C90.694 111.043 80.2533 100.648 67.3741 100.648C54.4949 100.648 44.0542 111.043 44.0542 123.865C44.0542 136.688 54.4949 147.083 67.3741 147.083Z" fill="#3F3D56"/>
<path d="M51.2974 123.865C51.2974 115.04 58.5093 107.859 67.374 107.859C76.2386 107.859 83.4505 115.04 83.4505 123.865C83.4505 132.691 76.2386 139.871 67.374 139.871C58.5093 139.871 51.2974 132.691 51.2974 123.865ZM51.6507 123.865C51.6507 132.497 58.704 139.52 67.374 139.52C76.0439 139.52 83.0972 132.497 83.0972 123.865C83.0972 115.234 76.0439 108.211 67.374 108.211C58.704 108.211 51.6507 115.234 51.6507 123.865Z" fill="white"/>
<path d="M53.5942 123.865C53.5942 131.442 59.7637 137.585 67.3742 137.585C74.9846 137.585 81.1541 131.442 81.1541 123.865C81.1541 116.288 74.9846 110.146 67.3742 110.146C59.7637 110.146 53.5942 116.288 53.5942 123.865ZM76.3316 120.58L73.8901 122.164L72.952 120.731L76.3316 120.58ZM72.6146 128.637L73.2648 127.054L75.3121 129.736L72.6146 128.637ZM66.3629 134.067L68.0808 131.166V134.067H66.3629ZM66.3629 117.269L68.0808 114.367V117.269H66.3629ZM58.7296 129.736L60.7768 127.054L61.427 128.637L58.7296 129.736ZM57.7101 120.58L61.0896 120.731L60.1516 122.164L57.7101 120.58Z" fill="#E6E6E6"/>
<path d="M164.717 74.4399H178.144V71.6257H164.717V74.4399Z" fill="#3F3D56"/>
<path d="M353.963 129.685C353.838 129.304 352.89 129.472 352.799 129.131C352.708 128.791 353.618 128.506 354.316 127.549C354.442 127.376 355.235 126.288 354.931 125.83C354.354 124.963 350.342 127.123 349.379 125.911C349.167 125.645 349.08 125.188 348.451 124.338C348.2 123.999 348.04 123.836 347.847 123.841C347.575 123.848 347.478 124.187 347.049 124.802C346.407 125.724 346.175 125.608 345.752 126.363C345.438 126.924 345.401 127.282 345.174 127.304C344.854 127.333 344.722 126.635 344.33 126.608C343.93 126.581 343.53 127.27 343.332 127.809C342.96 128.821 343.191 129.594 343.242 130.364C343.297 131.202 343.167 132.427 342.253 134L333.635 147.671C335.486 144.884 340.74 137.284 342.856 134.497C343.467 133.692 344.124 132.884 345.135 132.732C346.108 132.586 347.292 133.065 348.945 133.037C349.138 133.034 349.675 133.018 349.805 132.735C349.913 132.5 349.645 132.296 349.743 132.076C349.874 131.781 350.462 131.908 351.265 131.711C351.831 131.573 352.215 131.344 352.546 131.148C352.645 131.088 354.13 130.193 353.963 129.685Z" fill="#F2F2F2"/>
<path d="M331.39 132.877C331.166 132.828 330.975 133.34 330.781 133.286C330.587 133.233 330.709 132.706 330.439 132.088C330.39 131.977 330.082 131.275 329.769 131.292C329.175 131.323 329.082 133.907 328.207 134.028C328.014 134.055 327.764 133.965 327.163 134.028C326.924 134.053 326.798 134.084 326.744 134.179C326.669 134.314 326.808 134.46 326.988 134.847C327.257 135.426 327.133 135.506 327.383 135.931C327.569 136.246 327.735 136.368 327.68 136.484C327.602 136.65 327.22 136.513 327.094 136.696C326.965 136.884 327.19 137.278 327.398 137.531C327.789 138.004 328.237 138.115 328.631 138.312C329.06 138.526 329.627 138.944 330.139 139.844L334.391 148C333.551 146.291 331.321 141.531 330.557 139.693C330.337 139.162 330.128 138.608 330.345 138.07C330.554 137.552 331.131 137.112 331.595 136.296C331.649 136.201 331.796 135.934 331.694 135.789C331.609 135.668 331.432 135.74 331.351 135.629C331.243 135.48 331.476 135.229 331.61 134.78C331.705 134.464 331.704 134.21 331.702 133.992C331.702 133.926 331.689 132.942 331.39 132.877Z" fill="#F2F2F2"/>
<path d="M335.633 134.867L335.766 133.638L335.848 133.561C336.228 133.204 336.465 132.826 336.554 132.437C336.568 132.375 336.579 132.313 336.59 132.249C336.635 131.996 336.69 131.682 336.934 131.356C337.07 131.174 337.432 130.763 337.804 130.907C337.905 130.944 337.973 131.009 338.02 131.078C338.031 131.066 338.044 131.054 338.057 131.041C338.217 130.886 338.33 130.829 338.438 130.774C338.522 130.732 338.608 130.688 338.753 130.572C338.817 130.521 338.868 130.476 338.912 130.437C339.042 130.321 339.209 130.185 339.438 130.239C339.681 130.305 339.764 130.535 339.82 130.688C339.918 130.96 339.949 131.147 339.969 131.272C339.976 131.317 339.984 131.368 339.991 131.385C340.044 131.518 340.711 131.552 340.962 131.567C341.526 131.597 342.014 131.624 342.131 132.008C342.216 132.283 342.04 132.583 341.595 132.924C341.456 133.03 341.317 133.103 341.196 133.157C341.271 133.227 341.33 133.323 341.333 133.452C341.342 133.759 341.025 133.994 340.394 134.153C340.237 134.193 340.026 134.246 339.75 134.233C339.62 134.226 339.506 134.206 339.408 134.188C339.394 134.243 339.367 134.3 339.32 134.355C339.179 134.515 338.952 134.555 338.644 134.465C338.304 134.371 338.035 134.242 337.798 134.13C337.591 134.031 337.412 133.947 337.262 133.924C336.983 133.886 336.723 134.057 336.412 134.285L335.633 134.867Z" fill="#F2F2F2"/>
<path d="M337.858 127.869L336.63 128.052L336.534 127.992C336.091 127.718 335.664 127.585 335.263 127.598C335.199 127.6 335.136 127.605 335.071 127.611C334.814 127.632 334.495 127.659 334.116 127.506C333.905 127.421 333.414 127.177 333.459 126.782C333.47 126.676 333.516 126.594 333.571 126.531C333.556 126.523 333.542 126.514 333.526 126.505C333.334 126.39 333.25 126.296 333.169 126.205C333.107 126.136 333.043 126.064 332.893 125.953C332.828 125.904 332.77 125.867 332.722 125.835C332.576 125.739 332.401 125.612 332.396 125.378C332.398 125.127 332.601 124.989 332.735 124.897C332.975 124.733 333.149 124.656 333.264 124.605C333.307 124.587 333.354 124.566 333.369 124.555C333.485 124.47 333.349 123.819 333.299 123.574C333.186 123.023 333.088 122.546 333.432 122.335C333.678 122.185 334.014 122.278 334.457 122.62C334.595 122.727 334.702 122.842 334.785 122.945C334.835 122.855 334.912 122.774 335.037 122.738C335.333 122.652 335.642 122.897 335.956 123.465C336.035 123.606 336.14 123.796 336.197 124.065C336.224 124.192 336.233 124.307 336.24 124.405C336.297 124.405 336.36 124.416 336.424 124.448C336.616 124.543 336.713 124.751 336.703 125.071C336.698 125.423 336.641 125.714 336.592 125.971C336.549 126.195 336.513 126.389 336.528 126.539C336.561 126.817 336.794 127.024 337.094 127.266L337.858 127.869Z" fill="#F2F2F2"/>
<path d="M338.023 124.198L338.157 122.97L338.239 122.892C338.618 122.535 338.855 122.157 338.944 121.768C338.958 121.706 338.969 121.644 338.981 121.58C339.025 121.327 339.08 121.013 339.324 120.687C339.461 120.505 339.822 120.095 340.194 120.238C340.295 120.276 340.363 120.34 340.41 120.409C340.422 120.397 340.434 120.385 340.447 120.372C340.608 120.217 340.72 120.16 340.829 120.105C340.912 120.063 340.998 120.019 341.144 119.903C341.207 119.852 341.259 119.807 341.302 119.768C341.432 119.652 341.6 119.516 341.829 119.57C342.071 119.636 342.155 119.866 342.21 120.019C342.308 120.291 342.339 120.478 342.359 120.603C342.366 120.648 342.374 120.699 342.381 120.716C342.434 120.849 343.101 120.883 343.352 120.898C343.916 120.928 344.404 120.955 344.522 121.339C344.606 121.614 344.43 121.914 343.985 122.255C343.846 122.361 343.707 122.434 343.586 122.488C343.661 122.558 343.72 122.654 343.724 122.783C343.732 123.09 343.416 123.326 342.784 123.484C342.627 123.524 342.416 123.577 342.14 123.564C342.01 123.557 341.896 123.537 341.799 123.519C341.784 123.574 341.758 123.631 341.71 123.686C341.569 123.846 341.342 123.887 341.034 123.796C340.694 123.702 340.425 123.574 340.188 123.461C339.981 123.362 339.802 123.278 339.652 123.255C339.373 123.217 339.114 123.388 338.802 123.616L338.023 124.198Z" fill="#F2F2F2"/>
<path d="M334.042 147.741L333.825 147.527L333.523 147.496C333.525 147.467 333.523 147.401 333.521 147.298C333.509 146.733 333.473 145.013 333.714 142.369C333.882 140.524 334.162 138.651 334.548 136.802C334.934 134.949 335.335 133.571 335.657 132.463C335.9 131.627 336.146 130.835 336.385 130.063C337.024 128 337.628 126.052 338.001 123.829C338.085 123.333 338.259 122.301 337.903 121.082C337.697 120.375 337.344 119.709 336.853 119.105L337.328 118.723C337.869 119.391 338.26 120.128 338.489 120.913C338.883 122.264 338.694 123.389 338.603 123.93C338.223 126.192 337.613 128.159 336.968 130.241C336.73 131.01 336.485 131.8 336.243 132.632C335.924 133.729 335.527 135.096 335.145 136.925C334.764 138.752 334.487 140.602 334.321 142.424C334.083 145.034 334.119 146.729 334.131 147.285C334.137 147.583 334.138 147.645 334.042 147.741Z" fill="#F2F2F2"/>
<path d="M335.55 119.804C335.525 119.798 335.501 119.792 335.476 119.785C334.975 119.645 334.574 119.239 334.282 118.577C334.145 118.266 334.113 117.939 334.049 117.286C334.039 117.185 333.994 116.676 334.049 116.001C334.084 115.56 334.132 115.383 334.253 115.243C334.387 115.088 334.567 115 334.758 114.955C334.763 114.897 334.782 114.84 334.82 114.786C334.977 114.561 335.239 114.653 335.382 114.701C335.453 114.727 335.543 114.76 335.644 114.776C335.802 114.804 335.896 114.776 336.039 114.735C336.176 114.695 336.346 114.646 336.581 114.65C337.044 114.657 337.387 114.864 337.501 114.932C338.097 115.289 338.302 115.858 338.541 116.516C338.588 116.648 338.745 117.126 338.781 117.74C338.808 118.184 338.75 118.365 338.683 118.495C338.546 118.762 338.337 118.885 337.817 119.146C337.275 119.418 337.002 119.555 336.779 119.625C336.26 119.787 335.934 119.889 335.55 119.804Z" fill="#F2F2F2"/>
<path d="M0 147.213C0 147.445 0.326931 147.632 0.73405 147.632H351.158C351.565 147.632 351.892 147.445 351.892 147.213C351.892 146.981 351.565 146.794 351.158 146.794H0.73405C0.326931 146.794 0 146.981 0 147.213Z" fill="#CCCCCC"/>
<path d="M178.058 144.57L182.964 144.569L185.298 125.729L178.057 125.73L178.058 144.57Z" fill="#FFB6B6"/>
<path d="M194.866 144.459C195.019 144.715 195.1 145.542 195.1 145.84C195.1 146.755 194.354 147.497 193.435 147.497L178.242 147.497C177.614 147.497 177.106 146.991 177.106 146.366V145.737C177.106 145.737 176.354 143.844 177.902 141.511C177.902 141.511 179.825 143.338 182.699 140.477L183.546 138.948L189.68 143.415L193.08 143.832C193.824 143.923 194.484 143.817 194.866 144.459Z" fill="#2F2E41"/>
<path d="M156.016 144.57L160.922 144.569L163.256 125.729L156.015 125.73L156.016 144.57Z" fill="#FFB6B6"/>
<path d="M172.824 144.459C172.977 144.715 173.058 145.542 173.058 145.84C173.058 146.755 172.312 147.497 171.393 147.497L156.2 147.497C155.572 147.497 155.064 146.991 155.064 146.366V145.737C155.064 145.737 154.312 143.844 155.86 141.511C155.86 141.511 157.783 143.338 160.657 140.477L161.504 138.948L167.638 143.415L171.038 143.832C171.782 143.923 172.442 143.817 172.824 144.459Z" fill="#2F2E41"/>
<path d="M177.281 15.9272L178.213 24.5816L167.347 23.6543L169.21 15.6182L177.281 15.9272Z" fill="#FFB6B6"/>
<path opacity="0.1" d="M177.281 15.9272L178.213 24.5816L167.347 23.6543L169.21 15.6182L177.281 15.9272Z" fill="black"/>
<path d="M173.401 17.0089C177.344 17.0089 180.541 13.8261 180.541 9.89994C180.541 5.97379 177.344 2.79102 173.401 2.79102C169.457 2.79102 166.26 5.97379 166.26 9.89994C166.26 13.8261 169.457 17.0089 173.401 17.0089Z" fill="#FFB6B6"/>
<path d="M178.058 21.0269L190.01 27.9812L186.094 46.8353L188.768 72.1802L186.905 134.306L175.419 133.07L173.867 80.2164L164.864 134.924H153.709L155.55 75.8892L161.138 50.8534L157.723 23.6541L168.123 20.4087L178.058 21.0269Z" fill="#2F2E41"/>
<path d="M178.523 11.9089C178.523 11.9089 179.144 9.74535 180.541 9.89989C181.938 10.0544 182.248 8.8181 181.938 8.19993C181.628 7.58177 181.007 4.49093 181.007 4.49093C181.007 4.49093 181.317 2.32734 179.454 2.01826C177.592 1.70918 176.971 1.40009 176.66 0.781927C176.35 0.163758 171.693 -0.454407 170.141 0.472843C168.589 1.40009 167.347 3.17915 166.26 3.6805C165.174 4.18185 164.242 5.1091 164.863 6.65452C165.484 8.19993 166.385 11.2224 166.385 11.2224C166.385 11.2224 167.968 10.6726 168.278 11.5999C168.589 12.5271 167.347 11.2908 168.899 8.8181C170.451 6.34544 170.451 3.87276 172.935 4.80002C175.419 5.72727 178.213 5.41819 177.902 7.27268C177.592 9.12719 178.523 11.9089 178.523 11.9089Z" fill="#2F2E41"/>
<path d="M183.846 66.6357C182.352 68.211 181.957 70.2555 182.964 71.2021C183.971 72.1487 185.999 71.639 187.493 70.063C188.099 69.4416 188.546 68.6848 188.798 67.856L195.045 61.1019L191.799 58.251L185.985 65.2119C185.168 65.5096 184.435 65.9978 183.846 66.6357Z" fill="#FFB6B6"/>
<path d="M189.884 27.8267L200.403 45.6701L201.962 53.816L191.832 66.6167L187.546 61.1861L192.611 53.816L184.429 39.4637L189.884 27.8267Z" fill="#2F2E41"/>
<path d="M160.307 64.9741V43.9358C160.307 40.7292 162.927 38.1206 166.148 38.1206H198.449C201.67 38.1206 204.29 40.7292 204.29 43.9358V64.9741C204.29 68.1807 201.67 70.7892 198.449 70.7892H166.148C162.927 70.7892 160.307 68.1807 160.307 64.9741Z" fill="#F18341"/>
<path d="M176.015 51.3994H187.186V48.6191H176.015V51.3994Z" fill="#3F3D56"/>
<path d="M186.271 70.6031V65.0425H177.195V70.6031H186.271Z" fill="#3F3D56"/>
<path d="M186.696 43.8677V38.3071H177.62V43.8677H186.696Z" fill="#3F3D56"/>
<path d="M163.576 62.6177C165.07 64.1929 165.465 66.2374 164.458 67.184C163.451 68.1307 161.424 67.6209 159.929 66.0449C159.323 65.4235 158.876 64.6667 158.624 63.8379L152.377 57.0839L155.623 54.2329L161.437 61.1938C162.254 61.4916 162.987 61.9798 163.576 62.6177Z" fill="#FFB6B6"/>
<path d="M157.538 23.8086L147.019 41.652L145.46 49.7979L155.59 62.5986L159.876 57.168L154.811 49.7979L162.993 35.4456L157.538 23.8086Z" fill="#2F2E41"/>
<path d="M26.7353 108.892C32.004 108.892 36.2752 105.19 36.2752 100.625C36.2752 96.0591 32.004 92.3579 26.7353 92.3579C21.4665 92.3579 17.1953 96.0591 17.1953 100.625C17.1953 105.19 21.4665 108.892 26.7353 108.892Z" fill="#E6E6E6"/>
</g>
<defs>
<clipPath id="clip0_227_848">
<rect width="355" height="148" fill="white"/>
</clipPath>
</defs>
</svg>
