<svg width="200" height="200" viewBox="0 0 200 200" fill="none" xmlns="http://www.w3.org/2000/svg">
<path d="M16.6665 99.9998C16.6707 81.7298 22.6789 63.9675 33.7664 49.4465C44.8539 34.9254 60.4062 24.4505 78.0299 19.6338C95.6535 14.8171 114.372 15.9256 131.304 22.7886C148.236 29.6517 162.443 41.8889 171.739 57.6171C181.035 73.3452 184.905 91.6925 182.753 109.835C180.601 127.978 172.546 144.911 159.828 158.028C147.11 171.144 130.434 179.718 112.367 182.429C94.2989 185.141 75.8408 181.839 59.8332 173.033L27.4332 182.9C25.988 183.34 24.4504 183.379 22.9847 183.013C21.5191 182.647 20.1805 181.889 19.1123 180.821C18.0441 179.752 17.2863 178.414 16.9201 176.948C16.5539 175.483 16.593 173.945 17.0332 172.5L26.8998 140.05C20.1793 127.771 16.6599 113.997 16.6665 99.9998ZM66.6665 91.6665C66.6665 93.8766 67.5445 95.9963 69.1073 97.5591C70.6701 99.1219 72.7897 99.9998 74.9998 99.9998H125C127.21 99.9998 129.33 99.1219 130.892 97.5591C132.455 95.9963 133.333 93.8766 133.333 91.6665C133.333 89.4564 132.455 87.3368 130.892 85.7739C129.33 84.2111 127.21 83.3332 125 83.3332H74.9998C72.7897 83.3332 70.6701 84.2111 69.1073 85.7739C67.5445 87.3368 66.6665 89.4564 66.6665 91.6665ZM74.9998 116.667C72.7897 116.667 70.6701 117.544 69.1073 119.107C67.5445 120.67 66.6665 122.79 66.6665 125C66.6665 127.21 67.5445 129.33 69.1073 130.892C70.6701 132.455 72.7897 133.333 74.9998 133.333H108.333C110.543 133.333 112.663 132.455 114.226 130.892C115.789 129.33 116.667 127.21 116.667 125C116.667 122.79 115.789 120.67 114.226 119.107C112.663 117.544 110.543 116.667 108.333 116.667H74.9998Z" fill="black"/>
</svg>
