<svg width="261" height="261" viewBox="0 0 261 261" fill="none" xmlns="http://www.w3.org/2000/svg">
<circle cx="130.5" cy="130.5" r="130.5" fill="#F18341" fill-opacity="0.2"/>
<path d="M221.61 223.777C221.61 223.836 180.727 223.886 130.311 223.886C79.8938 223.886 39.0068 223.819 39.0068 223.777C39.0068 223.735 79.877 223.668 130.311 223.668C180.744 223.668 221.61 223.714 221.61 223.777Z" fill="black"/>
<path d="M66.7019 151.58C65.5973 151.055 63.7367 149.958 62.5859 149.53C61.4483 149.043 60.1792 148.957 58.9865 149.286C58.3103 149.513 57.6341 150.055 57.6299 150.769L62.1449 154.1L66.7019 152.898V151.58Z" fill="#FF9A6C"/>
<path d="M61.7626 151.533C61.7626 151.533 53.6524 149.773 52.3 149.08C50.9476 148.387 43.9 144.859 42.7198 144.859C41.5396 144.859 40.5316 145.179 40.3174 146.355L41.8588 147.552L42.0562 148.165L44.6938 149.538L45.16 150.403L51.88 153.99C51.88 153.99 58.9276 157.569 60.1036 157.77C61.2796 157.972 67.1512 158.463 69.6628 160.601L79.7428 156.46C79.7428 156.46 76.8322 152.327 74.5894 151.306C72.5902 150.399 69.2344 150.399 66.8866 151.361L61.7626 151.533Z" fill="#FFBF9D"/>
<path d="M68.5078 158.3C68.5078 158.3 81.3388 186.281 83.4052 191.9C83.4052 191.9 97.7482 189.54 98.2396 181.581L79.7596 156.381L68.5078 158.3Z" fill="#FFBF9D"/>
<path d="M56.5923 152.168C56.5923 152.168 56.5419 152.168 56.4537 152.168C56.3225 152.155 56.193 152.128 56.0673 152.088C55.6073 151.948 55.1604 151.768 54.7317 151.551C54.1857 151.286 53.5515 150.938 52.8543 150.547C52.5057 150.354 52.1403 150.148 51.7581 149.951C51.3759 149.753 50.9601 149.581 50.5359 149.396C49.7505 149.04 48.9389 148.746 48.1083 148.514C47.3481 148.325 46.6173 148.182 46.0671 148.367C45.8537 148.453 45.6601 148.581 45.4983 148.744C45.3364 148.907 45.2098 149.102 45.1263 149.316C45.0643 149.48 44.9927 149.64 44.9121 149.795C44.9121 149.795 44.9121 149.745 44.9331 149.661C44.9612 149.532 44.9991 149.406 45.0465 149.283C45.1207 149.087 45.221 148.902 45.3447 148.733C45.5082 148.501 45.736 148.323 45.9999 148.22C46.3255 148.111 46.6714 148.077 47.0121 148.119C47.3931 148.157 47.7707 148.223 48.1419 148.317C48.9902 148.54 49.8189 148.832 50.6199 149.19C51.0399 149.375 51.4599 149.547 51.8505 149.753C52.2411 149.959 52.6023 150.173 52.9509 150.371C53.6439 150.77 54.2655 151.131 54.7989 151.408C55.2122 151.634 55.6402 151.832 56.0799 152C56.4075 152.122 56.5923 152.147 56.5923 152.168Z" fill="#FF9A6C"/>
<path d="M48.856 148.145C48.4606 148.065 48.0778 147.932 47.7178 147.75C46.8516 147.341 45.9609 146.986 45.0508 146.687C44.5529 146.546 44.0325 146.502 43.5178 146.557C43.3125 146.563 43.1106 146.611 42.9243 146.698C42.738 146.784 42.5713 146.908 42.4342 147.061C42.27 147.289 42.162 147.552 42.1192 147.83C42.1154 147.937 42.0942 148.044 42.0562 148.145C42.0366 148.038 42.0366 147.928 42.0562 147.821C42.0719 147.522 42.1677 147.232 42.3334 146.981C42.462 146.806 42.6286 146.663 42.8206 146.561C43.0403 146.457 43.276 146.39 43.5178 146.364C44.0596 146.296 44.6094 146.337 45.1348 146.486C46.0578 146.782 46.9519 147.161 47.806 147.62C48.1652 147.776 48.5157 147.951 48.856 148.145Z" fill="#FF9A6C"/>
<path d="M69.1 150.74C69.1 150.74 68.9866 150.807 68.7724 150.883C68.4653 150.994 68.1526 151.089 67.8358 151.169C66.7931 151.44 65.7245 151.599 64.648 151.643C63.5718 151.69 62.4937 151.625 61.4308 151.45C61.0108 151.379 60.7 151.307 60.4774 151.244C60.3583 151.226 60.2432 151.188 60.1372 151.131C60.1372 151.097 60.6412 151.194 61.456 151.295C62.5118 151.425 63.5766 151.469 64.6396 151.425C65.7034 151.37 66.761 151.229 67.8022 151.005C68.5792 150.854 69.0706 150.711 69.1 150.74Z" fill="#FF9A6C"/>
<path d="M188.565 134.13L169.9 130.266L165.28 126.801L140.626 131.555C140.231 132.278 136.237 137.855 136.237 137.855L126.527 141.152C122.4 142.237 118.716 144.587 115.993 147.872C113.404 151.07 111.283 154.619 109.693 158.414C105.325 168.666 99.021 180.51 99.021 180.51L95.0688 174.143L78.4116 181.989C78.4116 181.989 88.1682 201.657 91.398 204.467C94.989 207.588 103.246 207.949 108.954 202.128C112.394 198.617 122.335 184.74 124.406 181.266L127.48 195.79L130.307 212.367L125.737 223.779H192.433L189.674 212.993C189.674 212.993 192.391 184.883 193.143 179.649C194.911 167.306 188.565 134.13 188.565 134.13Z" fill="#F18341"/>
<path d="M188.565 134.129C188.565 134.129 201.921 137.875 204.861 151.152C206.642 159.195 212.69 182.122 214.819 200.997C216.079 212.22 216.045 222.589 216.079 223.778H195.583L186.897 137.875L188.565 134.129Z" fill="#F18341"/>
<path d="M154.31 145.528C154.31 145.528 154.31 145.578 154.255 145.667L154.066 146.053C153.898 146.393 153.646 146.893 153.373 147.527C152.781 148.787 152.084 150.656 150.958 152.744L150.903 152.849L150.811 152.769C149.425 151.589 147.921 150.169 146.367 148.636C143.616 145.906 141.206 143.365 139.425 141.563L137.304 139.434L136.72 138.858C136.649 138.795 136.584 138.725 136.527 138.648C136.608 138.7 136.683 138.76 136.749 138.829L137.354 139.375C137.875 139.854 138.614 140.564 139.526 141.454C141.336 143.231 143.768 145.755 146.51 148.481C148.064 150.014 149.559 151.421 150.929 152.622L150.777 152.647C151.911 150.589 152.634 148.728 153.255 147.477C153.562 146.843 153.818 146.355 154.003 146.024C154.087 145.877 154.158 145.751 154.217 145.654C154.243 145.609 154.274 145.567 154.31 145.528Z" fill="black"/>
<path d="M170.16 130.74C170.159 130.839 170.146 130.938 170.123 131.034C170.081 131.244 170.03 131.521 169.967 131.874C169.816 132.597 169.547 133.638 169.203 134.907C168.476 137.427 167.3 140.908 165.843 144.667C165.074 146.658 164.318 148.54 163.613 150.207L163.558 150.337L163.453 150.245C161.55 148.565 159.845 147.242 158.69 146.259C158.111 145.768 157.657 145.373 157.35 145.096L157.01 144.777C156.93 144.701 156.893 144.663 156.897 144.659C156.945 144.684 156.99 144.715 157.031 144.751L157.392 145.05L158.766 146.167C159.946 147.124 161.664 148.422 163.587 150.094L163.428 150.132C164.121 148.452 164.873 146.578 165.637 144.592C167.078 140.812 168.275 137.389 169.035 134.865C169.413 133.605 169.69 132.571 169.875 131.853C169.955 131.513 170.022 131.24 170.072 131.013C170.095 130.92 170.124 130.829 170.16 130.74Z" fill="black"/>
<path d="M126.955 193.928C126.938 193.9 126.925 193.869 126.917 193.836L126.829 193.55C126.754 193.27 126.649 192.901 126.514 192.442C126.371 191.963 126.233 191.371 126.065 190.682C125.897 189.993 125.716 189.203 125.536 188.33C124.606 183.773 123.953 179.164 123.578 174.529C123.104 169.098 122.999 164.163 123.024 160.597C123.024 158.812 123.07 157.367 123.121 156.372C123.146 155.885 123.163 155.503 123.175 155.221C123.175 155.104 123.175 155.003 123.196 154.923C123.192 154.89 123.192 154.856 123.196 154.822C123.2 154.857 123.2 154.892 123.196 154.927V155.225C123.196 155.507 123.196 155.889 123.196 156.372C123.196 157.372 123.163 158.812 123.171 160.597C123.171 164.159 123.314 169.09 123.788 174.508C124.166 179.136 124.797 183.741 125.678 188.3C125.851 189.174 126.01 189.98 126.174 190.652C126.338 191.324 126.46 191.942 126.594 192.421L126.871 193.538L126.934 193.828C126.955 193.895 126.959 193.928 126.955 193.928Z" fill="black"/>
<path d="M189.674 148.855C189.699 148.892 189.719 148.931 189.733 148.973C189.77 149.061 189.821 149.175 189.88 149.317C190.014 149.637 190.195 150.086 190.43 150.653C190.547 150.947 190.686 151.266 190.82 151.623L191.219 152.799C191.362 153.219 191.513 153.677 191.677 154.156C191.841 154.635 191.95 155.16 192.097 155.701C193.357 160.023 193.987 166.277 193.626 173.119C193.265 179.961 192.458 186.139 191.946 190.574C191.69 192.792 191.48 194.593 191.333 195.853C191.261 196.462 191.203 196.945 191.161 197.286L191.11 197.659C191.107 197.702 191.099 197.745 191.085 197.785C191.079 197.744 191.079 197.701 191.085 197.659L191.114 197.281C191.148 196.937 191.194 196.441 191.249 195.845C191.366 194.585 191.551 192.787 191.791 190.557C192.248 186.097 193.021 179.94 193.391 173.11C193.76 166.281 193.139 160.061 191.933 155.739L191.513 154.194L191.093 152.841C190.959 152.421 190.833 152.022 190.715 151.661C190.598 151.3 190.455 150.976 190.342 150.682C190.123 150.107 189.955 149.658 189.829 149.334C189.779 149.187 189.737 149.074 189.703 148.981C189.687 148.941 189.677 148.899 189.674 148.855Z" fill="black"/>
<path d="M99.1299 194.811C99.0711 194.811 98.9997 191.611 98.9745 187.671C98.9493 183.732 98.9745 180.531 99.0375 180.531C99.1005 180.531 99.1677 183.732 99.1929 187.671C99.2181 191.611 99.1929 194.811 99.1299 194.811Z" fill="black"/>
<path d="M159.736 214.194V214.018C159.736 213.892 159.77 213.724 159.795 213.505C159.854 213.043 159.933 212.384 160.038 211.536C160.093 211.116 160.152 210.633 160.219 210.116C160.286 209.599 160.337 209.028 160.4 208.436C160.521 207.218 160.689 205.836 160.82 204.299C160.883 203.535 160.946 202.728 161.017 201.892C161.088 201.057 161.122 200.183 161.177 199.28C161.303 197.474 161.357 195.538 161.429 193.505C161.521 189.435 161.508 184.958 161.298 180.267C161.088 175.575 160.66 171.115 160.185 167.07C159.921 165.05 159.69 163.131 159.392 161.346C159.253 160.451 159.131 159.586 158.972 158.758C158.812 157.931 158.682 157.137 158.552 156.377C158.295 154.861 158.001 153.5 157.762 152.299C157.64 151.698 157.531 151.14 157.426 150.619C157.321 150.098 157.208 149.64 157.111 149.22L156.691 147.284C156.649 147.07 156.611 146.902 156.586 146.78C156.561 146.658 156.557 146.604 156.557 146.604C156.578 146.658 156.595 146.714 156.607 146.772L156.737 147.271L157.203 149.203L157.535 150.598C157.644 151.11 157.762 151.665 157.892 152.278C158.14 153.475 158.447 154.836 158.711 156.352C158.851 157.111 158.991 157.904 159.131 158.733C159.282 159.573 159.404 160.413 159.551 161.32C159.854 163.11 160.093 165.029 160.366 167.049C160.849 171.098 161.261 175.563 161.496 180.258C161.731 184.954 161.714 189.439 161.609 193.513C161.529 195.55 161.471 197.487 161.336 199.293C161.277 200.196 161.235 201.069 161.164 201.909C161.093 202.749 161.017 203.551 160.95 204.32C160.832 205.857 160.652 207.26 160.53 208.453C160.458 209.062 160.391 209.629 160.332 210.133C160.274 210.637 160.194 211.124 160.131 211.552C160.009 212.392 159.912 213.056 159.849 213.514L159.77 214.026C159.763 214.083 159.752 214.139 159.736 214.194Z" fill="black"/>
<path d="M168.615 168.86H168.699L168.963 168.831L169.992 168.713L173.928 168.293L187.935 166.84H188.04V166.945C188.145 171.183 188.271 175.979 188.401 181.065V181.111L188.372 181.141L186.692 182.959L180.568 189.503L180.513 189.562L180.442 189.524L170.123 184.4L170.076 184.379V184.341C169.627 179.658 169.236 175.786 168.997 173.068C168.871 171.733 168.774 170.683 168.707 169.956C168.678 169.608 168.653 169.339 168.636 169.141C168.619 168.944 168.636 168.873 168.636 168.873C168.636 168.873 168.636 168.973 168.674 169.158C168.711 169.343 168.728 169.633 168.77 169.998C168.846 170.733 168.959 171.787 169.106 173.131C169.388 175.828 169.787 179.679 170.274 184.337L170.223 184.266L180.555 189.36L180.434 189.381L186.545 182.812L188.225 180.998L188.195 181.074C188.073 175.987 187.956 171.195 187.855 166.953L187.964 167.046L173.999 168.381L170.039 168.751L168.984 168.843L168.711 168.868L168.615 168.86Z" fill="black"/>
<path d="M188.065 171.817C187.827 171.883 187.584 171.929 187.338 171.955C186.868 172.031 186.188 172.127 185.343 172.237C183.663 172.451 181.316 172.699 178.733 172.946L172.113 173.593L170.11 173.803C169.867 173.842 169.621 173.861 169.375 173.858C169.613 173.792 169.856 173.745 170.102 173.719C170.572 173.644 171.252 173.547 172.097 173.438C173.777 173.224 176.124 172.976 178.712 172.728L185.327 172.081L187.33 171.871C187.573 171.832 187.819 171.814 188.065 171.817Z" fill="black"/>
<g opacity="0.3">
<path d="M192.122 188.335L192.828 196.915C194.386 189.565 196.834 181.665 196.452 174.164C196.07 166.663 195.364 159.485 191.139 152.693C192.976 157.807 193.819 163.224 193.621 168.653C193.235 177.431 192.122 188.335 192.122 188.335Z" fill="black"/>
</g>
<path d="M96.3498 172.362C96.1229 171.845 95.7215 171.424 95.2158 171.173C94.6278 170.972 93.9894 171.257 93.4308 171.535L78.1932 179.12C77.1894 179.62 76.0932 180.212 75.7236 181.262C75.2406 182.606 76.1436 184.025 76.9836 185.18C78.3864 187.108 80.0664 189.208 82.4436 189.481L95.5518 180.493C97.152 180.258 98.1474 178.473 98.0718 176.856C97.9962 175.239 97.1646 173.765 96.3498 172.362Z" fill="#F18341"/>
<path d="M98.0042 177.855C97.9654 177.909 97.9203 177.958 97.8698 178.002L97.4498 178.392C97.0886 178.728 96.5552 179.203 95.8874 179.774C94.5476 180.921 92.645 182.445 90.4274 183.999C88.2098 185.553 86.1812 186.834 84.6398 187.699C83.8754 188.14 83.2496 188.485 82.8128 188.712L82.3088 188.968C82.1912 189.027 82.1282 189.052 82.124 189.043C82.1726 188.998 82.2278 188.959 82.2878 188.93L82.7708 188.636L84.56 187.565C86.0678 186.658 88.1216 185.356 90.314 183.806C92.5064 182.256 94.4216 180.757 95.774 179.644L97.3826 178.312L97.8026 177.955C97.9454 177.888 98 177.846 98.0042 177.855Z" fill="black"/>
<g opacity="0.3">
<path d="M169.963 131.701C168.17 137.657 165.658 144.394 163.537 150.181C161.731 148.648 159.203 146.62 157.393 145.082C158.951 148.173 160.821 151.096 162.974 153.806C163.226 154.121 163.562 154.465 163.953 154.39C164.344 154.314 164.52 153.911 164.654 153.55L167.96 144.801C169.505 140.71 170.996 135.939 169.963 131.701Z" fill="black"/>
</g>
<path d="M141.613 66.9081C147.073 65.3373 152.18 66.9081 157.216 69.5205C162.252 72.1329 166.313 76.4463 168.942 81.4653C171.714 86.7531 172.941 92.9145 171.937 98.7987C170.933 104.683 167.607 110.227 162.626 113.499C155.817 117.984 146.435 117.749 139.425 113.595C132.415 109.441 127.799 101.785 126.577 93.7251C125.737 88.1727 126.417 82.3179 129.009 77.3451C131.6 72.3723 136.182 68.3403 141.609 66.9039" fill="#263238"/>
<path d="M159.539 83.9988C158.484 81.9702 158.531 79.5636 157.955 77.346C156.695 72.4698 152.243 68.946 147.405 67.539C142.907 66.2244 137.703 67.2114 132.705 69.471C129.286 71.0208 126.174 73.398 124.133 76.548C122.798 78.6594 121.987 81.0593 121.767 83.5477C121.548 86.0362 121.927 88.5409 122.873 90.8532L147.816 84.2928C150.412 85.9728 153.071 87.7074 156.074 88.4928C156.947 88.7631 157.876 88.8051 158.77 88.6146C159.214 88.5096 159.618 88.2792 159.935 87.9508C160.251 87.6223 160.467 87.2098 160.555 86.7624C160.66 85.7628 159.996 84.885 159.539 83.9988Z" fill="#263238"/>
<path d="M165.49 128.229L159.051 82.9444C158.766 80.8024 157.791 78.6184 155.637 78.7192L132.957 76.5352C125.85 76.8628 122.515 86.1952 123.145 93.2638C123.847 101.135 125.01 110.715 126.82 116.393C130.462 127.805 139.656 127.922 139.656 127.922C139.656 127.922 140.214 130.19 140.916 134.432L155.616 144.21L165.49 128.229Z" fill="#FFBF9D"/>
<path d="M128.627 101.877C128.683 102.269 128.89 102.623 129.204 102.863C129.518 103.104 129.914 103.213 130.307 103.166C130.5 103.153 130.688 103.1 130.861 103.013C131.034 102.925 131.187 102.803 131.312 102.655C131.437 102.507 131.531 102.336 131.588 102.151C131.646 101.966 131.666 101.771 131.647 101.579C131.589 101.187 131.382 100.833 131.068 100.592C130.755 100.351 130.36 100.241 129.967 100.285C129.773 100.3 129.585 100.353 129.413 100.441C129.24 100.53 129.087 100.652 128.963 100.8C128.838 100.948 128.744 101.12 128.686 101.305C128.629 101.489 128.608 101.684 128.627 101.877Z" fill="#263238"/>
<path d="M125.981 97.9079C126.195 98.0759 127.203 97.0679 128.82 96.8201C130.437 96.5723 131.739 97.2065 131.886 96.9797C131.957 96.8789 131.714 96.5597 131.143 96.2573C130.37 95.8823 129.5 95.7533 128.652 95.8877C127.812 96.0124 127.033 96.4024 126.43 97.0007C125.989 97.4543 125.876 97.8197 125.981 97.9079Z" fill="#263238"/>
<path d="M143.549 99.4497C143.605 99.8421 143.811 100.197 144.125 100.439C144.439 100.681 144.836 100.79 145.229 100.743C145.422 100.73 145.611 100.677 145.783 100.59C145.956 100.502 146.109 100.38 146.234 100.232C146.359 100.084 146.453 99.9129 146.511 99.728C146.568 99.543 146.588 99.3485 146.569 99.1557C146.513 98.7633 146.307 98.4082 145.993 98.1664C145.679 97.9247 145.282 97.8154 144.889 97.8621C144.696 97.8764 144.508 97.929 144.335 98.0169C144.163 98.1048 144.01 98.2263 143.885 98.3742C143.76 98.522 143.666 98.6934 143.609 98.8781C143.551 99.0627 143.531 99.2571 143.549 99.4497Z" fill="#263238"/>
<path d="M141.34 95.7716C141.554 95.9396 142.567 94.9317 144.179 94.6839C145.792 94.4361 147.098 95.0703 147.245 94.8435C147.317 94.7427 147.073 94.4235 146.502 94.1211C145.728 93.7452 144.857 93.6162 144.007 93.7514C143.156 93.8768 142.368 94.273 141.76 94.8813C141.34 95.3013 141.227 95.7212 141.34 95.7716Z" fill="#263238"/>
<path d="M137.863 108.651C137.863 108.559 136.825 108.538 135.17 108.58C134.75 108.58 134.33 108.58 134.234 108.307C134.137 108.034 134.196 107.555 134.322 107.047C134.557 105.991 134.805 104.884 135.065 103.725C136.073 98.9955 136.745 95.1357 136.548 95.0979C136.351 95.0601 135.385 98.8779 134.372 103.582C134.133 104.745 133.902 105.858 133.688 106.921C133.604 107.412 133.415 107.984 133.721 108.567C133.802 108.705 133.913 108.821 134.047 108.908C134.18 108.995 134.332 109.049 134.49 109.067C134.727 109.099 134.967 109.099 135.204 109.067C136.855 108.891 137.871 108.74 137.863 108.651Z" fill="#263238"/>
<path d="M139.66 127.921C145.182 127.162 150.385 124.884 154.688 121.34C154.688 121.34 151.021 130.517 140.408 131.441L139.66 127.921Z" fill="#FF9A6C"/>
<path d="M139.139 112.44C139.387 112.007 139.741 111.643 140.168 111.385C140.595 111.126 141.081 110.98 141.58 110.961C141.942 110.941 142.305 110.993 142.646 111.117C142.988 111.24 143.301 111.432 143.566 111.68C143.823 111.916 144.001 112.226 144.076 112.567C144.151 112.908 144.12 113.264 143.986 113.586C143.646 114.263 142.756 114.544 141.953 114.426C141.15 114.273 140.384 113.962 139.702 113.511C139.499 113.407 139.318 113.264 139.169 113.091C139.096 113.011 139.048 112.912 139.031 112.805C139.015 112.698 139.03 112.588 139.076 112.49" fill="#FF9A6C"/>
<path d="M142.785 109.042C142.516 109.067 142.785 110.823 141.47 112.293C140.156 113.763 138.27 113.86 138.291 114.103C138.291 114.221 138.761 114.38 139.551 114.284C140.58 114.141 141.526 113.64 142.222 112.868C142.89 112.129 143.244 111.159 143.209 110.164C143.163 109.42 142.902 109.017 142.785 109.042Z" fill="#263238"/>
<path d="M140.878 90.9488C141.105 91.3688 142.684 90.911 144.612 90.848C146.54 90.785 148.152 91.0706 148.341 90.638C148.425 90.4322 148.098 90.0626 147.413 89.7308C146.51 89.3362 145.528 89.1523 144.543 89.1931C143.558 89.2338 142.594 89.4981 141.726 89.966C141.075 90.3524 140.777 90.7514 140.878 90.9488Z" fill="#263238"/>
<path d="M125.38 90.7804C125.72 91.1038 126.775 90.5536 128.11 90.331C129.446 90.1084 130.63 90.2008 130.815 89.7766C130.903 89.5708 130.668 89.2348 130.122 88.9618C129.394 88.6483 128.589 88.5575 127.809 88.701C127.03 88.8446 126.31 89.2159 125.741 89.7682C125.317 90.2176 125.221 90.6208 125.38 90.7804Z" fill="#263238"/>
<path d="M163.209 80.1222C160.152 73.6374 149.089 65.586 142.067 67.0266L131.655 75.3258C132.28 77.209 133.402 78.8884 134.903 80.1866C136.404 81.4847 138.227 82.3535 140.181 82.701C142.26 83.0454 144.696 82.89 146.115 84.4524C147.535 86.0148 147.195 88.7028 148.568 90.3618C150.471 92.6634 154.738 91.9746 156.275 94.5366C156.951 95.6538 156.872 97.107 157.56 98.2158C158.484 99.69 162.722 101.156 164.28 100.408C165.839 99.6606 165.486 96.8718 165.826 95.3304C166.41 92.7054 165.855 91.458 165.368 90.0972C164.23 86.8716 164.671 83.2134 163.209 80.1222Z" fill="#263238"/>
<path d="M159.631 102.441C159.501 101.567 160.194 99.3624 161.034 99.081C163.277 98.3754 167.447 97.926 168.375 103.756C169.635 111.736 161.387 111.353 161.332 111.127C161.277 110.9 160.085 105.44 159.631 102.441Z" fill="#FFBF9D"/>
<path d="M163.285 107.724C163.319 107.69 163.44 107.799 163.705 107.866C164.058 107.958 164.432 107.906 164.747 107.724C165.536 107.283 166.032 105.834 165.843 104.389C165.754 103.703 165.513 103.046 165.137 102.465C165.023 102.228 164.853 102.022 164.642 101.865C164.43 101.709 164.184 101.606 163.923 101.566C163.757 101.549 163.59 101.591 163.452 101.685C163.314 101.779 163.213 101.918 163.167 102.079C163.096 102.318 163.167 102.469 163.13 102.499C163.092 102.528 162.941 102.394 162.949 102.054C162.963 101.85 163.046 101.658 163.184 101.508C163.376 101.306 163.641 101.188 163.919 101.18C164.541 101.125 165.179 101.6 165.566 102.184C166.015 102.821 166.304 103.557 166.406 104.33C166.611 105.943 166.028 107.577 164.927 108.11C164.724 108.207 164.501 108.257 164.276 108.257C164.051 108.257 163.829 108.207 163.625 108.11C163.331 107.9 163.26 107.74 163.285 107.724Z" fill="#FF9A6C"/>
<path d="M133.704 72.6405C133.339 76.0005 128.857 80.7255 126.984 83.5101C123.385 88.8231 122.746 90.5241 124.015 101.343C121.629 97.8279 119.714 94.3335 119.395 90.0957C119.076 85.8579 120.142 81.4605 122.73 78.0921C125.317 74.7237 129.479 72.5061 133.725 72.6321" fill="#263238"/>
<path d="M152.735 61.2467C154.415 59.3945 156.842 58.1891 159.362 57.5591C162.953 56.6603 166.897 56.9039 170.165 58.4663C173.432 60.0287 175.961 62.9603 176.62 66.3203C176.944 68.0463 176.792 69.8281 176.179 71.4739C175.566 73.1197 174.516 74.5674 173.142 75.6611C175.011 77.4726 177.289 78.8067 179.783 79.5503C179.102 80.5709 177.846 81.1673 176.578 81.3815C175.303 81.541 174.012 81.5325 172.739 81.3563C173.608 82.6548 174.908 83.604 176.41 84.0359C174.343 84.5131 172.187 84.4422 170.156 83.8301C168.17 83.228 166.268 82.3741 164.499 81.2891C158.354 77.7233 154.965 74.5985 150.815 69.1091C150.273 66.7403 151.042 63.1031 152.735 61.2467Z" fill="#263238"/>
<path d="M165.981 78.0809C161.47 71.4911 155.729 67.9673 150.534 66.8711L165.981 78.0809Z" fill="#263238"/>
<path d="M150.534 66.8711C150.772 66.9664 151.018 67.0409 151.269 67.0937C151.743 67.2281 152.428 67.4339 153.251 67.7489C155.394 68.5815 157.409 69.7127 159.236 71.1089C161.063 72.5017 162.728 74.0951 164.2 75.8591C164.755 76.5437 165.204 77.1191 165.494 77.4971C165.638 77.7113 165.801 77.9123 165.981 78.0977C165.86 77.868 165.719 77.6488 165.561 77.4425C165.292 77.0225 164.864 76.4555 164.322 75.7625C162.887 73.9455 161.234 72.3121 159.4 70.8989C157.551 69.4886 155.497 68.3697 153.31 67.5809C152.65 67.3462 151.977 67.1512 151.294 66.9971C151.044 66.9349 150.79 66.8927 150.534 66.8711Z" fill="#455A64"/>
<path d="M171.357 83.696L171.257 83.7296L170.963 83.8472C170.711 83.9564 170.333 84.0992 169.837 84.2672C168.436 84.7362 166.984 85.0324 165.511 85.1492C163.328 85.3117 161.133 85.1704 158.988 84.7292C156.362 84.1774 153.794 83.3772 151.319 82.3394C148.673 81.26 146.178 80.1512 143.957 79.0634C141.983 78.1086 140.084 77.0079 138.274 75.7706C137.057 74.9326 135.909 74.0002 134.838 72.9818C134.452 72.6248 134.175 72.3266 133.998 72.1418L133.776 71.9192C133.725 71.873 133.7 71.8478 133.696 71.852C133.692 71.8562 133.696 71.8814 133.759 71.936L133.965 72.1754C134.145 72.3854 134.414 72.692 134.805 73.0616C135.857 74.1097 136.997 75.0665 138.211 75.9218C140.014 77.1887 141.914 78.3122 143.894 79.2818C146.12 80.3864 148.61 81.5036 151.26 82.5872C153.751 83.6279 156.336 84.4254 158.98 84.9686C161.146 85.4009 163.362 85.5225 165.561 85.3298C167.032 85.1954 168.48 84.8765 169.871 84.3806C170.362 84.1916 170.736 84.0362 170.984 83.9102L171.265 83.7716C171.328 83.717 171.362 83.7002 171.357 83.696Z" fill="#455A64"/>
<path d="M147.56 123.247L146.8 121.76C146.854 121.73 152.13 119.026 154.158 117.32C158.938 113.305 163.331 106.892 163.377 106.82L164.763 107.765C164.578 108.038 160.198 114.435 155.238 118.601C153.054 120.424 147.783 123.133 147.56 123.247Z" fill="#455A64"/>
<path d="M151.487 118.605C151.487 118.605 144.28 121.823 144.28 122.537C144.28 123.251 145.422 124.679 146.279 124.607C147.136 124.536 149.614 123.141 150.059 122.57C150.504 121.999 151.294 120.529 152.159 119.815L151.487 118.605Z" fill="#263238"/>
<path d="M164.705 96.9804L163.025 96.9006C163.086 92.0561 162.251 87.2419 160.564 82.7004C156.918 73.3092 149.908 68.2692 139.736 67.7148C138.81 67.6743 137.883 67.7377 136.972 67.9038L137.707 67.2066C138.063 66.8704 138.477 66.6015 138.929 66.4128C139.549 66.1539 140.222 66.0501 140.891 66.1104C153.734 67.2234 159.539 75.3882 162.147 82.1418C163.924 86.8835 164.792 91.9175 164.705 96.9804Z" fill="#455A64"/>
<path d="M163.864 112.256C166.803 112.256 169.186 108.83 169.186 104.604C169.186 100.377 166.803 96.9512 163.864 96.9512C160.925 96.9512 158.543 100.377 158.543 104.604C158.543 108.83 160.925 112.256 163.864 112.256Z" fill="#455A64"/>
<path d="M169.186 104.603C169.181 104.568 169.181 104.533 169.186 104.498C169.186 104.414 169.186 104.313 169.161 104.187C169.142 103.791 169.101 103.395 169.039 103.003C168.822 101.556 168.259 100.183 167.397 99.0002C167.107 98.618 166.771 98.2724 166.397 97.9713C165.99 97.6507 165.531 97.4021 165.041 97.2363C164.515 97.066 163.959 97.013 163.411 97.0809C162.831 97.1679 162.276 97.3753 161.781 97.6899C160.733 98.4192 159.924 99.442 159.455 100.63C158.93 101.895 158.66 103.251 158.66 104.62C158.66 105.989 158.93 107.345 159.455 108.61C159.923 109.798 160.733 110.821 161.781 111.55C162.276 111.864 162.831 112.072 163.411 112.159C163.959 112.225 164.515 112.172 165.041 112.003C165.531 111.838 165.99 111.589 166.397 111.268C166.77 110.966 167.105 110.621 167.397 110.239C168.259 109.057 168.822 107.684 169.039 106.237C169.101 105.845 169.142 105.449 169.161 105.052C169.161 104.926 169.161 104.826 169.186 104.742C169.18 104.707 169.18 104.671 169.186 104.637C169.193 104.671 169.193 104.707 169.186 104.742V105.052C169.182 105.453 169.154 105.852 169.102 106.249C168.914 107.722 168.363 109.125 167.498 110.332C167.203 110.727 166.862 111.086 166.481 111.399C166.061 111.738 165.585 112.001 165.074 112.176C164.524 112.356 163.94 112.415 163.365 112.348C162.757 112.261 162.174 112.046 161.655 111.718C160.569 110.979 159.728 109.931 159.24 108.711C158.7 107.42 158.421 106.036 158.421 104.637C158.421 103.238 158.7 101.853 159.24 100.563C159.728 99.342 160.569 98.2948 161.655 97.5554C162.174 97.2273 162.757 97.0126 163.365 96.9254C163.94 96.8582 164.524 96.9169 165.074 97.0977C165.585 97.2725 166.061 97.5354 166.481 97.8747C166.863 98.1865 167.205 98.5449 167.498 98.9414C168.364 100.147 168.915 101.551 169.102 103.024C169.153 103.419 169.181 103.818 169.186 104.217V104.532C169.189 104.555 169.189 104.579 169.186 104.603Z" fill="#263238"/>
<path d="M164.684 109.047C166.556 109.047 168.073 106.865 168.073 104.175C168.073 101.484 166.556 99.3027 164.684 99.3027C162.812 99.3027 161.294 101.484 161.294 104.175C161.294 106.865 162.812 109.047 164.684 109.047Z" fill="#455A64"/>
<path d="M168.073 104.175C168.048 104.175 168.073 103.806 167.951 103.155C167.81 102.242 167.45 101.377 166.901 100.635C166.528 100.125 166.01 99.7406 165.414 99.5301C165.084 99.4237 164.734 99.3908 164.389 99.4335C164.026 99.4876 163.678 99.6179 163.369 99.8157C162.71 100.275 162.2 100.917 161.903 101.664C161.571 102.462 161.401 103.319 161.403 104.184C161.399 105.049 161.569 105.906 161.903 106.704C162.2 107.45 162.71 108.093 163.369 108.552C163.678 108.75 164.026 108.88 164.389 108.934C164.734 108.977 165.084 108.944 165.414 108.837C166.01 108.627 166.528 108.242 166.901 107.733C167.45 106.99 167.81 106.125 167.951 105.213C168.056 104.562 168.048 104.192 168.073 104.196C168.078 104.284 168.078 104.373 168.073 104.461C168.072 104.717 168.055 104.972 168.022 105.225C167.911 106.168 167.563 107.066 167.01 107.838C166.625 108.382 166.083 108.795 165.456 109.022C165.103 109.142 164.727 109.183 164.356 109.14C163.962 109.079 163.586 108.936 163.251 108.72C162.553 108.246 162.012 107.575 161.697 106.792C161.351 105.965 161.172 105.078 161.172 104.182C161.172 103.285 161.351 102.398 161.697 101.571C162.012 100.788 162.553 100.117 163.251 99.6435C163.585 99.4284 163.96 99.2853 164.352 99.2235C164.724 99.1809 165.101 99.2211 165.456 99.3411C166.083 99.568 166.625 99.9813 167.01 100.526C167.563 101.297 167.911 102.196 168.022 103.138C168.055 103.391 168.072 103.647 168.073 103.902C168.078 103.993 168.078 104.084 168.073 104.175Z" fill="#263238"/>
<path d="M164.919 107.677C166.264 107.677 167.355 106.109 167.355 104.175C167.355 102.24 166.264 100.672 164.919 100.672C163.574 100.672 162.483 102.24 162.483 104.175C162.483 106.109 163.574 107.677 164.919 107.677Z" fill="#455A64"/>
<path d="M167.355 104.175C167.334 104.175 167.334 103.911 167.258 103.444C167.15 102.789 166.888 102.169 166.494 101.634C166.228 101.272 165.859 100.998 165.436 100.849C165.194 100.772 164.938 100.75 164.688 100.786C164.437 100.821 164.197 100.913 163.987 101.055C163.075 101.655 162.592 102.915 162.588 104.171C162.584 105.427 163.075 106.691 163.987 107.292C164.197 107.433 164.437 107.525 164.688 107.561C164.938 107.596 165.194 107.575 165.436 107.497C165.859 107.348 166.228 107.074 166.494 106.712C166.888 106.178 167.15 105.557 167.258 104.902C167.334 104.436 167.334 104.171 167.355 104.175C167.365 104.238 167.365 104.302 167.355 104.364C167.357 104.548 167.347 104.732 167.326 104.914C167.25 105.597 167.001 106.249 166.603 106.809C166.32 107.196 165.926 107.489 165.473 107.649C165.215 107.735 164.942 107.765 164.671 107.737C164.385 107.697 164.11 107.597 163.865 107.443C163.356 107.099 162.963 106.61 162.735 106.04C162.482 105.442 162.352 104.799 162.352 104.15C162.352 103.501 162.482 102.858 162.735 102.26C162.963 101.69 163.356 101.201 163.865 100.857C164.11 100.703 164.385 100.603 164.671 100.563C164.942 100.535 165.215 100.565 165.473 100.651C165.926 100.811 166.32 101.104 166.603 101.491C167.001 102.051 167.25 102.703 167.326 103.386C167.347 103.568 167.357 103.752 167.355 103.936C167.37 104.015 167.37 104.096 167.355 104.175Z" fill="#263238"/>
</svg>
