<svg width="385" height="385" viewBox="0 0 385 385" fill="none" xmlns="http://www.w3.org/2000/svg">
<path d="M337.77 98.2674C335.198 94.1214 332.369 90.1404 329.3 86.3478C311.59 64.6184 290.569 45.2683 265.552 32.2938C226.621 12.1044 177.317 7.3766 135.422 22.022C85.6643 39.4086 63.6962 82.1128 55.4418 131.839C54.292 138.785 53.409 145.769 52.793 152.791C50.7371 175.706 51.7459 198.883 48.9431 221.714C46.0633 245.106 33.1118 265.95 33.4275 289.928C33.5543 303.569 37.2724 316.935 44.2075 328.682C63.7193 361.13 103.32 366.343 137.832 360.699C237.539 344.375 248.812 305.567 290.869 297.012C328.8 289.312 354.779 250.335 362.21 214.499C370.41 174.867 358.868 132.101 337.77 98.2674Z" fill="#EB996E"/>
<path opacity="0.7" d="M337.77 98.2674C335.198 94.1214 332.369 90.1404 329.3 86.3478C311.59 64.6184 290.569 45.2683 265.552 32.2938C226.621 12.1044 177.317 7.3766 135.422 22.022C85.6643 39.4086 63.6962 82.1128 55.4418 131.839C54.292 138.785 53.409 145.769 52.793 152.791C50.7371 175.706 51.7459 198.883 48.9431 221.714C46.0633 245.106 33.1118 265.95 33.4275 289.928C33.5543 303.569 37.2724 316.935 44.2075 328.682C63.7193 361.13 103.32 366.343 137.832 360.699C237.539 344.375 248.812 305.567 290.869 297.012C328.8 289.312 354.779 250.335 362.21 214.499C370.41 174.867 358.868 132.101 337.77 98.2674Z" fill="white"/>
<g opacity="0.3">
<path d="M64.6797 66.9897V68.9147" stroke="black" stroke-linejoin="round"/>
<path d="M64.6797 73.0728V87.6258" stroke="black" stroke-linejoin="round" stroke-dasharray="5.4 5.4"/>
<path d="M64.6797 89.7051V91.6301H66.6047" stroke="black" stroke-linejoin="round"/>
<path d="M70.3828 91.6299H189.456" stroke="black" stroke-linejoin="round" stroke-dasharray="4.91 4.91"/>
<path d="M191.344 91.6299H193.269V93.5549" stroke="black" stroke-linejoin="round"/>
<path d="M193.27 97.4204V288.742" stroke="black" stroke-linejoin="round" stroke-dasharray="5.02 5.02"/>
<path d="M193.27 290.675V292.6H195.195" stroke="black" stroke-linejoin="round"/>
<path d="M197.504 292.6H200.969" stroke="black" stroke-linejoin="round" stroke-dasharray="3 3"/>
<path d="M202.125 292.6H204.05" stroke="black" stroke-linejoin="round"/>
<path d="M40.8086 287.21V285.285" stroke="black" stroke-linejoin="round"/>
<path d="M40.8086 281.327V204.104" stroke="black" stroke-linejoin="round" stroke-dasharray="5.14 5.14"/>
<path d="M40.8086 202.125V200.2H42.7336" stroke="black" stroke-linejoin="round"/>
<path d="M46.2461 200.2H72.5493" stroke="black" stroke-linejoin="round" stroke-dasharray="4.56 4.56"/>
<path d="M74.3047 200.2H76.2297V202.125" stroke="black" stroke-linejoin="round"/>
<path d="M76.2305 205.944V287.996" stroke="black" stroke-linejoin="round" stroke-dasharray="4.96 4.96"/>
<path d="M76.2305 289.905V291.83H78.1555" stroke="black" stroke-linejoin="round"/>
<path d="M82.0742 291.83H166.289" stroke="black" stroke-linejoin="round" stroke-dasharray="5.09 5.09"/>
<path d="M168.242 291.83H170.167V289.905" stroke="black" stroke-linejoin="round"/>
<path d="M170.168 286.039V125.518" stroke="black" stroke-linejoin="round" stroke-dasharray="5.02 5.02"/>
<path d="M170.168 123.585V121.66H172.093" stroke="black" stroke-linejoin="round"/>
<path d="M175.852 121.66H324.215" stroke="black" stroke-linejoin="round" stroke-dasharray="4.88 4.88"/>
<path d="M326.094 121.66H328.019" stroke="black" stroke-linejoin="round"/>
<path d="M73.9175 48.4021C73.9175 45.9515 72.944 43.6013 71.2112 41.8684C69.4783 40.1356 67.1281 39.1621 64.6775 39.1621C62.2269 39.1621 59.8767 40.1356 58.1438 41.8684C56.411 43.6013 55.4375 45.9515 55.4375 48.4021C55.4375 53.4995 64.6775 63.8021 64.6775 63.8021C64.6775 63.8021 73.9175 53.4995 73.9175 48.4021Z" stroke="black" stroke-linejoin="round"/>
<path d="M68.6383 48.4021C68.6383 47.6194 68.4061 46.8542 67.9712 46.2033C67.5364 45.5524 66.9182 45.0452 66.195 44.7456C65.4719 44.4461 64.6761 44.3677 63.9083 44.5204C63.1406 44.6731 62.4354 45.05 61.8819 45.6036C61.3284 46.1571 60.9514 46.8623 60.7987 47.63C60.646 48.3977 60.7244 49.1935 61.0239 49.9167C61.3235 50.6399 61.8308 51.258 62.4816 51.6929C63.1325 52.1278 63.8977 52.3599 64.6805 52.3599C65.7295 52.3579 66.735 51.9403 67.4768 51.1985C68.2186 50.4567 68.6362 49.4512 68.6383 48.4021Z" stroke="black" stroke-linejoin="round"/>
<path d="M339.815 108.1C339.752 106.142 338.93 104.284 337.523 102.921C336.115 101.558 334.232 100.795 332.273 100.795C330.313 100.795 328.43 101.558 327.023 102.921C325.615 104.284 324.793 106.142 324.73 108.1C324.73 112.266 332.276 120.674 332.276 120.674C332.276 120.674 339.815 112.266 339.815 108.1Z" stroke="black" stroke-linejoin="round"/>
<path d="M332.277 111.334C334.063 111.334 335.511 109.886 335.511 108.1C335.511 106.314 334.063 104.866 332.277 104.866C330.491 104.866 329.043 106.314 329.043 108.1C329.043 109.886 330.491 111.334 332.277 111.334Z" stroke="black" stroke-linejoin="round"/>
<path d="M329.021 155.193C329.066 153.188 328.711 151.194 327.975 149.329C327.239 147.463 326.138 145.763 324.736 144.329C323.334 142.895 321.659 141.756 319.811 140.978C317.962 140.2 315.977 139.799 313.971 139.799C311.966 139.799 309.981 140.2 308.132 140.978C306.284 141.756 304.609 142.895 303.207 144.329C301.805 145.763 300.704 147.463 299.968 149.329C299.232 151.194 298.876 153.188 298.922 155.193C298.922 163.502 313.968 180.28 313.968 180.28C313.968 180.28 329.021 163.502 329.021 155.193Z" stroke="black" stroke-linejoin="round"/>
<path d="M313.968 161.646C317.532 161.646 320.421 158.757 320.421 155.193C320.421 151.63 317.532 148.741 313.968 148.741C310.405 148.741 307.516 151.63 307.516 155.193C307.516 158.757 310.405 161.646 313.968 161.646Z" stroke="black" stroke-linejoin="round"/>
<path d="M80.4701 168.799C80.4701 165.691 79.2353 162.71 77.0375 160.513C74.8397 158.315 71.8588 157.08 68.7507 157.08C65.6425 157.08 62.6616 158.315 60.4638 160.513C58.266 162.71 57.0312 165.691 57.0312 168.799C57.0312 175.267 68.7507 188.327 68.7507 188.327C68.7507 188.327 80.4701 175.267 80.4701 168.799Z" stroke="black" stroke-linejoin="round"/>
<path d="M73.7713 168.799C73.7713 167.806 73.4768 166.836 72.9252 166.01C72.3735 165.184 71.5895 164.541 70.6721 164.161C69.7547 163.781 68.7453 163.682 67.7714 163.875C66.7976 164.069 65.903 164.547 65.2009 165.249C64.4988 165.951 64.0206 166.846 63.8269 167.82C63.6332 168.794 63.7326 169.803 64.1126 170.72C64.4926 171.638 65.1361 172.422 65.9617 172.974C66.7873 173.525 67.7579 173.82 68.7509 173.82C69.4102 173.82 70.063 173.69 70.6721 173.437C71.2812 173.185 71.8346 172.815 72.3008 172.349C72.767 171.883 73.1368 171.33 73.3891 170.72C73.6414 170.111 73.7713 169.458 73.7713 168.799Z" stroke="black" stroke-linejoin="round"/>
<path d="M46.8071 301.224C46.8071 300.234 46.6121 299.254 46.2333 298.339C45.8544 297.424 45.2991 296.593 44.5992 295.893C43.8992 295.193 43.0681 294.638 42.1536 294.259C41.239 293.881 40.2587 293.686 39.2688 293.686C38.2788 293.686 37.2986 293.881 36.384 294.259C35.4694 294.638 34.6384 295.193 33.9384 295.893C33.2384 296.593 32.6831 297.424 32.3043 298.339C31.9255 299.254 31.7305 300.234 31.7305 301.224C31.7305 305.39 39.2688 313.79 39.2688 313.79C39.2688 313.79 46.8071 305.39 46.8071 301.224Z" stroke="black" stroke-linejoin="round"/>
<path d="M39.2692 304.458C41.0552 304.458 42.5032 303.01 42.5032 301.224C42.5032 299.438 41.0552 297.99 39.2692 297.99C37.4831 297.99 36.0352 299.438 36.0352 301.224C36.0352 303.01 37.4831 304.458 39.2692 304.458Z" stroke="black" stroke-linejoin="round"/>
</g>
<path d="M263.338 57.1187V291.43C263.338 297.657 260.866 303.63 256.466 308.036C252.065 312.442 246.096 314.922 239.868 314.93H128.418C122.186 314.93 116.208 312.454 111.801 308.047C107.394 303.64 104.918 297.662 104.918 291.43V57.1187C104.92 50.8873 107.397 44.9119 111.804 40.5064C116.211 36.1008 122.187 33.626 128.418 33.626H175.019L175.065 33.7954C176.443 38.7542 179.616 41.9805 183.135 41.9805H185.152C188.671 41.9805 191.843 38.7542 193.222 33.7954L193.275 33.626H239.868C246.094 33.6341 252.063 36.1126 256.463 40.5172C260.863 44.9219 263.336 50.8927 263.338 57.1187Z" fill="#D6D6D6"/>
<path d="M202.084 205.244V131.1H236.118C236.413 131.101 236.701 131.017 236.95 130.859C237.198 130.701 237.396 130.474 237.52 130.207L263.338 73.6891V66.2817L235.094 128.02H202.084V33.626H199.004V71.6101C168.266 68.5763 150.256 83.0677 140.53 95.9113C134.417 104.103 129.872 113.355 127.125 123.2L104.918 109.101V112.751L144.688 137.999V183.052L104.941 175.799V178.933L199.027 196.088V204.558L104.941 279.71V283.653L147.491 249.665L179.916 293.555C180.059 293.749 180.246 293.906 180.462 294.014C180.677 294.123 180.915 294.179 181.156 294.179C181.285 294.178 181.415 294.163 181.541 294.132L232.661 281.042V314.93H235.741V251.166C235.74 250.882 235.661 250.603 235.511 250.361C235.362 250.12 235.148 249.924 234.894 249.796L223.413 243.99L243.033 222.584L263.338 230.407V227.15L243.11 219.373C242.821 219.26 242.504 219.237 242.202 219.307C241.9 219.378 241.626 219.537 241.416 219.766L220.533 242.55L181.217 222.661L201.499 206.452C201.682 206.308 201.829 206.125 201.93 205.915C202.032 205.706 202.084 205.476 202.084 205.244ZM232.638 252.113V277.785L181.756 290.821L149.878 247.701L178.568 224.778L232.638 252.113ZM199.004 192.931L147.745 183.583V139.909L199.004 172.48V192.931ZM199.004 168.807L129.858 124.917C132.47 115.118 136.911 105.9 142.948 97.7516C156.392 79.9954 175.242 72.2415 198.966 74.6516L199.004 168.807Z" fill="white"/>
<path d="M263.369 173.543H258.756L247.114 202.656H223.829L236.118 174.189H218.008V146.377H245.173L263.369 111.057V173.543Z" fill="#C4C4C4"/>
<path d="M133.979 60.8301H110.879V80.0801H133.979V60.8301Z" fill="#C4C4C4"/>
<path d="M154.46 60.8301H137.828V74.6901H154.46V60.8301Z" fill="#C4C4C4"/>
<path d="M136.812 122.138L193.985 159.059V81.6202C193.985 81.6202 153.09 77.6778 136.812 122.138Z" fill="#C4C4C4"/>
<path d="M170.171 60.8301H159.391V69.816H170.171V60.8301Z" fill="#C4C4C4"/>
<path d="M190.188 241.78L169.398 256.41L180.948 277.97L222.528 275.66L224.838 255.64L208.668 248.71L201.738 259.49L194.808 255.64L200.968 244.09L190.188 241.78Z" fill="#C4C4C4"/>
<path d="M123.567 198.345V239.94L104.918 249.426V197.467L123.567 198.345Z" fill="#C4C4C4"/>
<path d="M154.614 224.163V199.807L128.742 198.591V237.314L154.614 224.163Z" fill="#C4C4C4"/>
<path d="M158.496 199.992V222.191L174.019 214.299V200.716L158.496 199.992Z" fill="#C4C4C4"/>
<path d="M273.449 119.65V89.8746H270.754V51.7519C270.752 45.5198 268.276 39.5436 263.869 35.1368C259.462 30.7301 253.486 28.2535 247.254 28.2515H121.036C114.803 28.2535 108.827 30.7301 104.421 35.1368C100.014 39.5436 97.5372 45.5198 97.5352 51.7519V308.216C97.5352 314.448 100.011 320.426 104.418 324.833C108.825 329.24 114.803 331.716 121.036 331.716H247.254C253.487 331.716 259.464 329.24 263.871 324.833C268.278 320.426 270.754 314.448 270.754 308.216V145.03H273.449V127.435H270.754V119.65H273.449ZM263.339 291.43C263.339 297.657 260.868 303.63 256.467 308.036C252.067 312.442 246.097 314.922 239.87 314.93H128.42C122.187 314.93 116.21 312.454 111.803 308.047C107.395 303.64 104.919 297.662 104.919 291.43V57.1188C104.921 50.8874 107.398 44.912 111.805 40.5064C116.212 36.1009 122.188 33.6261 128.42 33.6261H175.02L175.066 33.7955C176.445 38.7543 179.617 41.9806 183.136 41.9806H185.153C188.672 41.9806 191.845 38.7543 193.223 33.7955L193.277 33.6261H239.87C246.096 33.6342 252.064 36.1127 256.464 40.5173C260.865 44.922 263.337 50.8927 263.339 57.1188V291.43Z" fill="#707070" stroke="#263238" stroke-linejoin="round"/>
<path d="M244.537 31.4932H123.754C120.669 31.4932 117.613 32.1011 114.762 33.2822C111.912 34.4633 109.321 36.1944 107.14 38.3767C104.958 40.5591 103.228 43.1498 102.048 46.0009C100.868 48.8521 100.261 51.9078 100.262 54.9936V304.982C100.262 311.213 102.737 317.189 107.142 321.596C111.548 326.003 117.523 328.48 123.754 328.482H244.537C250.768 328.48 256.743 326.003 261.149 321.596C265.554 317.189 268.029 311.213 268.029 304.982V54.9936C268.03 51.9078 267.423 48.8521 266.243 46.0009C265.063 43.1498 263.333 40.5591 261.151 38.3767C258.97 36.1944 256.379 34.4633 253.529 33.2822C250.678 32.1011 247.622 31.4932 244.537 31.4932ZM263.34 291.43C263.34 297.657 260.868 303.63 256.468 308.036C252.067 312.443 246.098 314.922 239.87 314.93H128.421C122.188 314.93 116.21 312.454 111.803 308.047C107.396 303.64 104.92 297.662 104.92 291.43V57.1188C104.922 50.8874 107.399 44.912 111.806 40.5064C116.213 36.1009 122.189 33.6261 128.421 33.6261H175.021L175.067 33.7955C176.446 38.7543 179.618 41.9806 183.137 41.9806H185.154C188.673 41.9806 191.846 38.7543 193.224 33.7955L193.278 33.6261H239.87C246.096 33.6342 252.065 36.1127 256.465 40.5173C260.865 44.922 263.338 50.8927 263.34 57.1188V291.43Z" fill="#263238" stroke="#263238" stroke-linejoin="round"/>
<path d="M183.659 36.9523C184.875 36.9523 185.861 35.9663 185.861 34.7501C185.861 33.5338 184.875 32.5479 183.659 32.5479C182.443 32.5479 181.457 33.5338 181.457 34.7501C181.457 35.9663 182.443 36.9523 183.659 36.9523Z" fill="white"/>
<path d="M119.002 43.2049C119.002 45.4379 116.5 46.2387 116.484 47.9481V48.0636H118.917V48.8336H115.668V48.2022C115.668 45.8075 118.178 45.3455 118.178 43.2588C118.178 42.4888 117.924 42.0961 117.308 42.0961C116.692 42.0961 116.446 42.535 116.446 43.1895V43.844H115.676V43.2434C115.676 42.1115 116.199 41.3569 117.339 41.3569C118.478 41.3569 119.002 42.073 119.002 43.2049Z" fill="#263238"/>
<path d="M123.053 43.1974V43.3899C123.096 43.7092 123.031 44.0337 122.869 44.3124C122.708 44.5911 122.458 44.8083 122.16 44.9299C122.456 45.0547 122.703 45.2725 122.864 45.5504C123.025 45.8282 123.092 46.151 123.053 46.4699V47.0397C123.053 48.1716 122.529 48.9108 121.382 48.9108C120.235 48.9108 119.727 48.1408 119.727 47.0397V46.5084H120.497V47.0705C120.497 47.7327 120.774 48.1331 121.367 48.1331C121.96 48.1331 122.229 47.7404 122.229 46.9935V46.4237C122.229 45.6922 121.921 45.3457 121.297 45.3226H120.889V44.5526H121.374C121.503 44.554 121.629 44.5276 121.746 44.4751C121.863 44.4227 121.968 44.3455 122.052 44.2488C122.136 44.1522 122.198 44.0384 122.234 43.9154C122.27 43.7923 122.279 43.663 122.26 43.5362V43.1974C122.26 42.4274 121.998 42.0424 121.397 42.0424C120.797 42.0424 120.527 42.4582 120.527 43.1204V43.5054H119.757V43.1974C119.757 42.0655 120.281 41.334 121.413 41.334C122.545 41.334 123.053 42.0655 123.053 43.1974Z" fill="#263238"/>
<path d="M124.653 43.7593V44.7834H123.883V43.7593H124.653ZM124.653 47.7864V48.8105H123.883V47.7864H124.653Z" fill="#263238"/>
<path d="M126.327 44.4215C126.435 44.227 126.596 44.0669 126.791 43.9593C126.985 43.8517 127.206 43.8011 127.428 43.8132C128.383 43.8132 128.799 44.5062 128.799 45.5688V47.0164C128.799 48.1483 128.26 48.8875 127.128 48.8875C125.996 48.8875 125.473 48.1175 125.473 47.0164V46.5159H126.243V47.0703C126.243 47.7325 126.52 48.1329 127.113 48.1329C127.706 48.1329 127.975 47.7325 127.975 47.0703V45.6304C127.975 44.9605 127.706 44.5601 127.113 44.5601C127.006 44.5504 126.898 44.5632 126.797 44.5976C126.695 44.6319 126.602 44.6871 126.523 44.7596C126.444 44.8321 126.381 44.9203 126.338 45.0185C126.295 45.1167 126.273 45.2229 126.273 45.3301V45.4995H125.503L125.704 41.3877H128.591V42.1577H126.412L126.327 44.4215Z" fill="#263238"/>
<path d="M132.916 43.182V43.3206H132.146V43.1204C132.146 42.4505 131.868 42.0578 131.268 42.0578C130.667 42.0578 130.367 42.4582 130.367 43.2513V44.9145C130.456 44.6745 130.62 44.4698 130.836 44.331C131.051 44.1922 131.305 44.1268 131.56 44.1445C132.515 44.1445 132.939 44.8298 132.939 45.9001V47.0243C132.939 48.1562 132.377 48.8954 131.245 48.8954C130.113 48.8954 129.543 48.1254 129.543 47.0243V43.2359C129.543 42.0655 130.067 41.334 131.245 41.334C132.423 41.334 132.916 42.0501 132.916 43.182ZM130.367 45.954V47.0705C130.367 47.7327 130.644 48.1331 131.245 48.1331C131.845 48.1331 132.122 47.7327 132.122 47.0705V45.954C132.122 45.2918 131.838 44.8914 131.245 44.8914C130.652 44.8914 130.367 45.2918 130.367 45.954Z" fill="#263238"/>
<path d="M213.751 43.5127H211.656V48.741H213.751V43.5127Z" fill="#263238"/>
<path d="M216.54 42.4658H214.445V48.7413H216.54V42.4658Z" fill="#263238"/>
<path d="M219.325 41.7188H217.23V48.7335H219.325V41.7188Z" fill="#263238"/>
<path d="M222.106 40.4253H220.02V48.7336H222.106V40.4253Z" fill="#263238"/>
<path d="M247.977 48.595H235.434V40.895H247.977V48.595ZM236.134 47.8943H247.284V41.6265H236.134V47.8943Z" fill="#263238"/>
<path d="M243.798 42.3809H237.176V47.1395H243.798V42.3809Z" fill="#263238"/>
<path d="M249.118 43.8594H247.539V45.6689H249.118V43.8594Z" fill="#263238"/>
<path d="M230.839 46.9238C230.755 46.9274 230.672 46.906 230.6 46.8622C228.044 45.3222 226.358 46.7544 226.288 46.8083C226.194 46.89 226.072 46.9309 225.948 46.9223C225.824 46.9136 225.708 46.856 225.626 46.7621C225.586 46.7162 225.555 46.6629 225.536 46.605C225.516 46.5472 225.509 46.4861 225.513 46.4253C225.517 46.3644 225.533 46.305 225.561 46.2505C225.588 46.196 225.626 46.1474 225.672 46.1076C225.757 46.0229 227.921 44.1749 231.062 46.0537C231.116 46.0854 231.162 46.1273 231.199 46.1771C231.236 46.2268 231.263 46.2834 231.278 46.3435C231.293 46.4036 231.296 46.4661 231.287 46.5274C231.277 46.5887 231.256 46.6475 231.224 46.7005C231.184 46.7672 231.127 46.8226 231.06 46.8616C230.993 46.9006 230.917 46.9221 230.839 46.9238Z" fill="#263238"/>
<path d="M231.768 45.3533C231.684 45.3521 231.602 45.3281 231.53 45.284C227.841 43.0895 225.37 45.2147 225.331 45.2378C225.237 45.3142 225.116 45.3509 224.995 45.3402C224.874 45.3295 224.761 45.2723 224.682 45.1805C224.602 45.0888 224.561 44.9696 224.567 44.8482C224.573 44.7268 224.626 44.6125 224.715 44.5294C224.715 44.5294 227.741 41.9422 232.007 44.4832C232.114 44.5459 232.191 44.6482 232.223 44.7679C232.255 44.8876 232.238 45.015 232.176 45.1223C232.133 45.1922 232.073 45.25 232.002 45.2904C231.931 45.3308 231.85 45.3524 231.768 45.3533Z" fill="#263238"/>
<path d="M232.638 43.5284C232.553 43.5292 232.47 43.5051 232.399 43.4591C227.718 40.6794 224.615 43.2974 224.484 43.4129C224.39 43.4945 224.267 43.5355 224.143 43.5268C224.019 43.5182 223.903 43.4606 223.821 43.3667C223.781 43.3208 223.751 43.2674 223.731 43.2096C223.712 43.1518 223.704 43.0907 223.708 43.0298C223.712 42.969 223.729 42.9096 223.756 42.8551C223.784 42.8006 223.821 42.752 223.868 42.7122C223.906 42.7122 227.594 39.5167 232.877 42.6583C232.93 42.6893 232.976 42.7305 233.013 42.7795C233.05 42.8285 233.076 42.8844 233.092 42.9439C233.107 43.0034 233.11 43.0653 233.101 43.126C233.091 43.1867 233.07 43.245 233.038 43.2974C232.997 43.3672 232.939 43.4251 232.869 43.4656C232.798 43.506 232.719 43.5277 232.638 43.5284Z" fill="#263238"/>
<path d="M228.248 48.8875C228.899 48.8875 229.427 48.36 229.427 47.7093C229.427 47.0587 228.899 46.5312 228.248 46.5312C227.598 46.5312 227.07 47.0587 227.07 47.7093C227.07 48.36 227.598 48.8875 228.248 48.8875Z" fill="#263238"/>
<path d="M339.756 247.347C339.794 247.347 340.526 244.529 340.526 244.344C340.826 242.212 340.148 237.915 337.969 236.86C337.605 236.701 337.212 236.619 336.815 236.621C336.417 236.623 336.025 236.708 335.662 236.87C335.3 237.033 334.975 237.269 334.71 237.564C334.444 237.86 334.243 238.207 334.119 238.585C333.534 240.186 334.273 242.15 335.151 243.497C336.167 245.084 339.756 247.34 339.756 247.347Z" fill="#263238"/>
<path d="M296.921 246.4C298.654 247.17 302.889 247.055 302.889 247.055C302.889 247.055 301.98 244.283 301.903 244.113C300.971 242.173 298.053 238.962 295.643 239.285C295.246 239.348 294.866 239.494 294.529 239.713C294.192 239.932 293.905 240.221 293.687 240.559C293.469 240.897 293.324 241.277 293.263 241.674C293.202 242.072 293.226 242.478 293.333 242.866C293.749 244.537 295.443 245.769 296.921 246.4Z" fill="#263238"/>
<path d="M352.4 231.993C349.998 231.739 347.149 235.027 346.24 236.991C346.163 237.168 345.285 239.963 345.331 239.963H345.378C344.923 240.479 344.446 241.033 343.93 241.657C342.991 242.804 341.943 244.113 340.896 245.622C339.751 247.23 338.702 248.904 337.755 250.635C336.68 252.566 335.781 254.589 335.067 256.68V256.757C335.067 256.056 335.067 254.077 335.029 253.923C334.752 251.79 332.958 247.825 330.586 247.386C330.19 247.322 329.786 247.343 329.399 247.447C329.013 247.551 328.652 247.736 328.342 247.989C328.031 248.242 327.778 248.558 327.598 248.916C327.418 249.273 327.316 249.665 327.298 250.065C327.152 251.767 328.384 253.461 329.608 254.539C330.963 255.748 334.721 256.918 334.998 257.011C334.324 259.157 333.794 261.346 333.412 263.563C333.181 264.857 332.988 266.158 332.811 267.475C332.811 266.859 332.811 266.312 332.811 266.243C332.534 264.102 330.74 260.137 328.368 259.698C327.972 259.636 327.568 259.658 327.181 259.763C326.794 259.868 326.434 260.053 326.124 260.307C325.813 260.56 325.56 260.877 325.38 261.235C325.201 261.593 325.098 261.985 325.08 262.385C324.934 264.079 326.166 265.781 327.39 266.851C328.615 267.922 331.795 269 332.642 269.277C332.573 269.777 332.511 270.278 332.449 270.817C332.157 273.235 331.88 275.652 331.533 278.016C331.418 278.848 331.264 279.664 331.117 280.48C331.117 279.941 331.117 279.479 331.117 279.41C330.84 277.277 329.054 273.312 326.674 272.873C326.278 272.811 325.874 272.833 325.487 272.938C325.1 273.042 324.74 273.228 324.43 273.481C324.119 273.735 323.866 274.051 323.686 274.409C323.507 274.768 323.404 275.16 323.386 275.56C323.248 277.254 324.48 278.956 325.696 280.026C326.913 281.096 329.793 282.074 330.794 282.398C330.617 283.229 330.447 284.061 330.239 284.862C330.078 285.401 329.97 285.932 329.785 286.471C329.6 287.01 329.439 287.534 329.277 288.057C328.907 289.05 328.545 290.082 328.168 291.045C327.906 291.715 327.652 292.354 327.398 292.993C327.529 292.161 327.752 290.537 327.752 290.398C327.723 288.504 327.212 286.649 326.266 285.008C326.273 284.797 326.26 284.585 326.228 284.377C326.178 283.979 326.045 283.596 325.838 283.254C325.63 282.911 325.353 282.615 325.024 282.387C324.695 282.158 324.322 282.001 323.928 281.926C323.535 281.851 323.13 281.859 322.74 281.951C320.43 282.575 318.928 286.671 318.813 288.819C318.813 288.943 318.89 290.359 318.959 291.206C318.843 290.698 318.736 290.205 318.605 289.666C318.358 288.635 318.089 287.618 317.796 286.517L317.242 284.9C317.096 284.369 316.865 283.822 316.68 283.275C316.218 282.013 315.694 280.758 315.14 279.502C316.041 279.287 319.236 278.471 320.53 277.493C321.823 276.515 323.163 274.906 323.148 273.204C323.159 272.803 323.085 272.405 322.932 272.035C322.779 271.665 322.55 271.331 322.26 271.055C321.969 270.779 321.624 270.567 321.246 270.433C320.869 270.299 320.467 270.246 320.068 270.278C317.665 270.54 315.586 274.359 315.155 276.438C315.155 276.576 314.986 278.124 314.924 278.971C314.578 278.201 314.239 277.477 313.869 276.723C312.799 274.567 311.644 272.418 310.504 270.262C310.15 269.6 309.811 268.946 309.473 268.284C309.796 268.207 313.607 267.321 315.047 266.22C316.326 265.242 317.673 263.64 317.665 261.939C317.676 261.538 317.603 261.14 317.45 260.77C317.297 260.399 317.068 260.065 316.777 259.79C316.487 259.514 316.142 259.302 315.764 259.168C315.386 259.034 314.985 258.981 314.585 259.013C312.191 259.275 310.112 263.094 309.673 265.173C309.673 265.334 309.442 267.56 309.419 268.13C308.649 266.674 307.917 265.219 307.247 263.756C306.334 261.78 305.547 259.748 304.891 257.673C305.045 257.673 309.034 256.734 310.504 255.602C311.783 254.624 313.138 253.022 313.122 251.32C313.133 250.92 313.06 250.522 312.907 250.151C312.754 249.781 312.525 249.447 312.234 249.171C311.944 248.895 311.599 248.684 311.221 248.55C310.843 248.416 310.442 248.363 310.042 248.394C307.64 248.656 305.561 252.475 305.122 254.554C305.122 254.693 304.937 256.395 304.883 257.203H304.745C304.146 255.096 303.737 252.939 303.52 250.758C303.39 249.565 303.328 248.41 303.289 247.286C304.059 247.193 307.517 246.731 308.957 245.861C310.397 244.991 311.852 243.551 312.037 241.888C312.091 241.491 312.061 241.088 311.949 240.704C311.837 240.319 311.646 239.963 311.388 239.657C311.129 239.351 310.809 239.103 310.449 238.929C310.089 238.755 309.696 238.659 309.295 238.646C306.878 238.646 304.391 242.211 303.728 244.26C303.69 244.375 303.451 245.545 303.282 246.4C303.282 245.9 303.282 245.376 303.282 244.86C303.282 243.035 303.405 241.372 303.52 239.894C303.59 239.047 303.667 238.292 303.751 237.584C304.452 237.099 307.24 235.135 308.102 233.734C308.964 232.332 309.642 230.376 308.995 228.79C308.861 228.413 308.649 228.068 308.372 227.778C308.096 227.488 307.762 227.26 307.392 227.107C307.021 226.955 306.623 226.882 306.223 226.893C305.823 226.905 305.429 227 305.068 227.173C302.928 228.282 302.358 232.602 302.712 234.727C302.712 234.904 303.559 237.722 303.59 237.699H303.636C303.544 238.384 303.443 239.116 303.359 239.917C303.212 241.395 303.058 243.066 303.02 244.899C302.954 246.871 303 248.845 303.159 250.812C303.329 253.017 303.697 255.203 304.26 257.342C304.257 257.367 304.257 257.393 304.26 257.419C303.875 256.818 302.72 255.186 302.658 255.07C301.249 253.446 297.568 251.128 295.351 252.067C294.986 252.234 294.66 252.475 294.395 252.776C294.129 253.077 293.93 253.43 293.81 253.813C293.69 254.196 293.652 254.599 293.699 254.998C293.746 255.396 293.875 255.78 294.08 256.125C294.904 257.619 296.868 258.351 298.462 258.589C300.256 258.851 304.036 257.75 304.337 257.665C304.96 259.828 305.732 261.946 306.647 264.002C307.163 265.211 307.725 266.405 308.302 267.598C307.956 267.09 307.648 266.643 307.594 266.59C306.185 264.957 302.504 262.639 300.286 263.579C299.922 263.745 299.596 263.987 299.33 264.288C299.065 264.588 298.866 264.942 298.746 265.324C298.626 265.707 298.588 266.111 298.635 266.509C298.681 266.908 298.811 267.292 299.016 267.637C299.84 269.131 301.803 269.87 303.397 270.101C304.991 270.332 308.248 269.462 309.103 269.223C309.334 269.677 309.557 270.132 309.781 270.586C310.874 272.765 311.975 274.936 312.991 277.1C313.353 277.87 313.677 278.64 314 279.41C313.7 278.963 313.438 278.586 313.392 278.532C311.983 276.908 308.294 274.582 306.077 275.529C305.712 275.696 305.386 275.937 305.121 276.238C304.855 276.539 304.656 276.892 304.537 277.276C304.418 277.659 304.381 278.063 304.429 278.461C304.476 278.859 304.608 279.243 304.814 279.587C305.63 281.073 307.594 281.812 309.188 282.043C310.782 282.274 313.731 281.497 314.747 281.212C315.055 281.982 315.371 282.798 315.64 283.576C315.81 284.115 316.01 284.615 316.148 285.17C316.287 285.724 316.449 286.24 316.595 286.771C316.849 287.803 317.111 288.866 317.327 289.851C317.481 290.56 317.611 291.23 317.75 291.907C317.404 291.137 316.695 289.666 316.618 289.551C315.471 287.726 312.183 284.877 309.85 285.47C309.46 285.579 309.098 285.769 308.787 286.028C308.476 286.287 308.224 286.609 308.047 286.973C307.87 287.337 307.772 287.735 307.761 288.139C307.749 288.544 307.823 288.946 307.979 289.32C308.564 290.922 310.397 291.946 311.937 292.4C313.631 292.916 317.38 292.446 317.85 292.4C318.073 293.516 318.281 294.61 318.458 295.649C319.09 299.23 319.483 302.233 319.729 304.343C319.767 304.712 319.806 305.051 319.837 305.367H312.576L314.793 348.595H328.037L330.255 305.367H323.402L323.556 305.051C324.48 303.118 325.773 300.339 327.159 296.943C327.606 295.865 328.053 294.71 328.507 293.516C328.961 293.617 332.673 294.371 334.405 293.978C335.945 293.624 337.87 292.739 338.579 291.183C338.755 290.824 338.855 290.432 338.87 290.031C338.885 289.631 338.816 289.232 338.667 288.861C338.518 288.489 338.293 288.153 338.006 287.874C337.719 287.595 337.376 287.379 337 287.241C334.69 286.471 331.225 289.066 329.939 290.798C329.87 290.906 329.169 292.107 328.746 292.87C328.93 292.385 329.108 291.907 329.292 291.407C329.654 290.413 329.993 289.405 330.355 288.327C330.517 287.803 330.671 287.272 330.832 286.733C330.994 286.194 331.117 285.624 331.264 285.062C331.572 283.753 331.826 282.413 332.034 281.066C332.904 281.381 336.022 282.459 337.631 282.351C339.241 282.244 341.25 281.643 342.182 280.219C342.412 279.891 342.571 279.518 342.647 279.125C342.723 278.731 342.716 278.326 342.625 277.936C342.534 277.546 342.362 277.179 342.12 276.86C341.878 276.541 341.571 276.276 341.22 276.084C339.079 274.975 335.229 277.015 333.704 278.532C333.612 278.625 332.634 279.841 332.118 280.519C332.241 279.703 332.372 278.894 332.48 278.063C332.773 275.668 333.004 273.242 333.25 270.817L333.481 268.592C333.789 268.707 337.462 270.078 339.272 269.947C340.873 269.839 342.891 269.246 343.815 267.822C344.045 267.493 344.204 267.121 344.281 266.727C344.358 266.333 344.351 265.928 344.261 265.537C344.171 265.147 344 264.779 343.758 264.459C343.517 264.139 343.211 263.873 342.86 263.679C340.711 262.578 336.869 264.611 335.345 266.135C335.229 266.251 333.805 267.999 333.497 268.445C333.666 266.813 333.858 265.188 334.105 263.602C334.427 261.448 334.893 259.318 335.499 257.226C335.637 257.28 339.464 258.728 341.312 258.597C342.921 258.481 344.931 257.896 345.863 256.464C346.093 256.136 346.251 255.763 346.328 255.37C346.404 254.977 346.396 254.572 346.306 254.182C346.215 253.791 346.043 253.425 345.8 253.105C345.558 252.786 345.252 252.522 344.9 252.329C342.76 251.22 338.917 253.261 337.385 254.778C337.285 254.878 336.222 256.21 335.73 256.857L335.606 256.787C336.267 254.7 337.115 252.677 338.14 250.743C338.686 249.665 339.272 248.672 339.864 247.717C340.55 248.056 343.714 249.588 345.37 249.657C347.025 249.727 349.043 249.349 350.129 248.04C350.393 247.738 350.591 247.384 350.71 247.001C350.829 246.618 350.866 246.214 350.819 245.815C350.772 245.417 350.642 245.032 350.436 244.688C350.231 244.343 349.956 244.045 349.628 243.813C347.618 242.481 343.576 244.082 341.89 245.43C341.797 245.499 340.95 246.346 340.35 246.97C340.627 246.546 340.904 246.1 341.173 245.692C342.182 244.152 343.199 242.843 344.107 241.672C344.631 241.01 345.116 240.425 345.578 239.878C346.425 239.878 349.836 239.763 351.33 239.062C352.824 238.361 354.456 237.099 354.81 235.435C354.893 235.05 354.896 234.651 354.818 234.264C354.74 233.878 354.583 233.511 354.357 233.188C354.13 232.865 353.84 232.592 353.503 232.387C353.166 232.181 352.791 232.047 352.4 231.993ZM325.835 296.45C324.387 299.784 323.055 302.51 322.093 304.397C321.9 304.782 321.723 305.113 321.562 305.428H321.408C321.354 305.059 321.307 304.658 321.246 304.204C320.953 302.079 320.476 299.045 319.775 295.441C319.552 294.302 319.29 293.093 319.005 291.853C320.135 291.404 321.238 290.89 322.308 290.313C323.54 291.653 326.705 293.216 327.113 293.393C326.682 294.456 326.259 295.488 325.835 296.45Z" fill="#263238"/>
<path opacity="0.3" d="M296.921 246.4C298.654 247.17 302.889 247.055 302.889 247.055C302.889 247.055 301.98 244.283 301.903 244.113C300.971 242.173 298.053 238.962 295.643 239.285C295.246 239.348 294.866 239.494 294.529 239.713C294.192 239.932 293.905 240.221 293.687 240.559C293.469 240.897 293.324 241.277 293.263 241.674C293.202 242.072 293.226 242.478 293.333 242.866C293.749 244.537 295.443 245.769 296.921 246.4Z" fill="#263238"/>
<path opacity="0.3" d="M339.756 247.347C339.794 247.347 340.526 244.529 340.526 244.344C340.826 242.212 340.148 237.915 337.969 236.86C337.605 236.701 337.212 236.619 336.815 236.621C336.417 236.623 336.025 236.708 335.662 236.87C335.3 237.033 334.975 237.269 334.71 237.564C334.444 237.86 334.243 238.207 334.119 238.585C333.534 240.186 334.273 242.15 335.151 243.497C336.167 245.084 339.756 247.34 339.756 247.347Z" fill="#263238"/>
<path opacity="0.3" d="M352.4 231.993C349.998 231.739 347.149 235.027 346.24 236.991C346.163 237.168 345.285 239.963 345.331 239.963H345.378C344.923 240.479 344.446 241.033 343.93 241.657C342.991 242.804 341.943 244.113 340.896 245.622C339.751 247.23 338.702 248.904 337.755 250.635C336.68 252.566 335.781 254.589 335.067 256.68V256.757C335.067 256.056 335.067 254.077 335.029 253.923C334.752 251.79 332.958 247.825 330.586 247.386C330.19 247.322 329.786 247.343 329.399 247.447C329.013 247.551 328.652 247.736 328.342 247.989C328.031 248.242 327.778 248.558 327.598 248.916C327.418 249.273 327.316 249.665 327.298 250.065C327.152 251.767 328.384 253.461 329.608 254.539C330.963 255.748 334.721 256.918 334.998 257.011C334.324 259.157 333.794 261.346 333.412 263.563C333.181 264.857 332.988 266.158 332.811 267.475C332.811 266.859 332.811 266.312 332.811 266.243C332.534 264.102 330.74 260.137 328.368 259.698C327.972 259.636 327.568 259.658 327.181 259.763C326.794 259.868 326.434 260.053 326.124 260.307C325.813 260.56 325.56 260.877 325.38 261.235C325.201 261.593 325.098 261.985 325.08 262.385C324.934 264.079 326.166 265.781 327.39 266.851C328.615 267.922 331.795 269 332.642 269.277C332.573 269.777 332.511 270.278 332.449 270.817C332.157 273.235 331.88 275.652 331.533 278.016C331.418 278.848 331.264 279.664 331.117 280.48C331.117 279.941 331.117 279.479 331.117 279.41C330.84 277.277 329.054 273.312 326.674 272.873C326.278 272.811 325.874 272.833 325.487 272.938C325.1 273.042 324.74 273.228 324.43 273.481C324.119 273.735 323.866 274.051 323.686 274.409C323.507 274.768 323.404 275.16 323.386 275.56C323.248 277.254 324.48 278.956 325.696 280.026C326.913 281.096 329.793 282.074 330.794 282.398C330.617 283.229 330.447 284.061 330.239 284.862C330.078 285.401 329.97 285.932 329.785 286.471C329.6 287.01 329.439 287.534 329.277 288.057C328.907 289.05 328.545 290.082 328.168 291.045C327.906 291.715 327.652 292.354 327.398 292.993C327.529 292.161 327.752 290.537 327.752 290.398C327.723 288.504 327.212 286.649 326.266 285.008C326.273 284.797 326.26 284.585 326.228 284.377C326.178 283.979 326.045 283.596 325.838 283.254C325.63 282.911 325.353 282.615 325.024 282.387C324.695 282.158 324.322 282.001 323.928 281.926C323.535 281.851 323.13 281.859 322.74 281.951C320.43 282.575 318.928 286.671 318.813 288.819C318.813 288.943 318.89 290.359 318.959 291.206C318.843 290.698 318.736 290.205 318.605 289.666C318.358 288.635 318.089 287.618 317.796 286.517L317.242 284.9C317.096 284.369 316.865 283.822 316.68 283.275C316.218 282.013 315.694 280.758 315.14 279.502C316.041 279.287 319.236 278.471 320.53 277.493C321.823 276.515 323.163 274.906 323.148 273.204C323.159 272.803 323.085 272.405 322.932 272.035C322.779 271.665 322.55 271.331 322.26 271.055C321.969 270.779 321.624 270.567 321.246 270.433C320.869 270.299 320.467 270.246 320.068 270.278C317.665 270.54 315.586 274.359 315.155 276.438C315.155 276.576 314.986 278.124 314.924 278.971C314.578 278.201 314.239 277.477 313.869 276.723C312.799 274.567 311.644 272.418 310.504 270.262C310.15 269.6 309.811 268.946 309.473 268.284C309.796 268.207 313.607 267.321 315.047 266.22C316.326 265.242 317.673 263.64 317.665 261.939C317.676 261.538 317.603 261.14 317.45 260.77C317.297 260.399 317.068 260.065 316.777 259.79C316.487 259.514 316.142 259.302 315.764 259.168C315.386 259.034 314.985 258.981 314.585 259.013C312.191 259.275 310.112 263.094 309.673 265.173C309.673 265.334 309.442 267.56 309.419 268.13C308.649 266.674 307.917 265.219 307.247 263.756C306.334 261.78 305.547 259.748 304.891 257.673C305.045 257.673 309.034 256.734 310.504 255.602C311.783 254.624 313.138 253.022 313.122 251.32C313.133 250.92 313.06 250.522 312.907 250.151C312.754 249.781 312.525 249.447 312.234 249.171C311.944 248.895 311.599 248.684 311.221 248.55C310.843 248.416 310.442 248.363 310.042 248.394C307.64 248.656 305.561 252.475 305.122 254.554C305.122 254.693 304.937 256.395 304.883 257.203H304.745C304.146 255.096 303.737 252.939 303.52 250.758C303.39 249.565 303.328 248.41 303.289 247.286C304.059 247.193 307.517 246.731 308.957 245.861C310.397 244.991 311.852 243.551 312.037 241.888C312.091 241.491 312.061 241.088 311.949 240.704C311.837 240.319 311.646 239.963 311.388 239.657C311.129 239.351 310.809 239.103 310.449 238.929C310.089 238.755 309.696 238.659 309.295 238.646C306.878 238.646 304.391 242.211 303.728 244.26C303.69 244.375 303.451 245.545 303.282 246.4C303.282 245.9 303.282 245.376 303.282 244.86C303.282 243.035 303.405 241.372 303.52 239.894C303.59 239.047 303.667 238.292 303.751 237.584C304.452 237.099 307.24 235.135 308.102 233.734C308.964 232.332 309.642 230.376 308.995 228.79C308.861 228.413 308.649 228.068 308.372 227.778C308.096 227.488 307.762 227.26 307.392 227.107C307.021 226.955 306.623 226.882 306.223 226.893C305.823 226.905 305.429 227 305.068 227.173C302.928 228.282 302.358 232.602 302.712 234.727C302.712 234.904 303.559 237.722 303.59 237.699H303.636C303.544 238.384 303.443 239.116 303.359 239.917C303.212 241.395 303.058 243.066 303.02 244.899C302.954 246.871 303 248.845 303.159 250.812C303.329 253.017 303.697 255.203 304.26 257.342C304.257 257.367 304.257 257.393 304.26 257.419C303.875 256.818 302.72 255.186 302.658 255.07C301.249 253.446 297.568 251.128 295.351 252.067C294.986 252.234 294.66 252.475 294.395 252.776C294.129 253.077 293.93 253.43 293.81 253.813C293.69 254.196 293.652 254.599 293.699 254.998C293.746 255.396 293.875 255.78 294.08 256.125C294.904 257.619 296.868 258.351 298.462 258.589C300.256 258.851 304.036 257.75 304.337 257.665C304.96 259.828 305.732 261.946 306.647 264.002C307.163 265.211 307.725 266.405 308.302 267.598C307.956 267.09 307.648 266.643 307.594 266.59C306.185 264.957 302.504 262.639 300.286 263.579C299.922 263.745 299.596 263.987 299.33 264.288C299.065 264.588 298.866 264.942 298.746 265.324C298.626 265.707 298.588 266.111 298.635 266.509C298.681 266.908 298.811 267.292 299.016 267.637C299.84 269.131 301.803 269.87 303.397 270.101C304.991 270.332 308.248 269.462 309.103 269.223C309.334 269.677 309.557 270.132 309.781 270.586C310.874 272.765 311.975 274.936 312.991 277.1C313.353 277.87 313.677 278.64 314 279.41C313.7 278.963 313.438 278.586 313.392 278.532C311.983 276.908 308.294 274.582 306.077 275.529C305.712 275.696 305.386 275.937 305.121 276.238C304.855 276.539 304.656 276.892 304.537 277.276C304.418 277.659 304.381 278.063 304.429 278.461C304.476 278.859 304.608 279.243 304.814 279.587C305.63 281.073 307.594 281.812 309.188 282.043C310.782 282.274 313.731 281.497 314.747 281.212C315.055 281.982 315.371 282.798 315.64 283.576C315.81 284.115 316.01 284.615 316.148 285.17C316.287 285.724 316.449 286.24 316.595 286.771C316.849 287.803 317.111 288.866 317.327 289.851C317.481 290.56 317.611 291.23 317.75 291.907C317.404 291.137 316.695 289.666 316.618 289.551C315.471 287.726 312.183 284.877 309.85 285.47C309.46 285.579 309.098 285.769 308.787 286.028C308.476 286.287 308.224 286.609 308.047 286.973C307.87 287.337 307.772 287.735 307.761 288.139C307.749 288.544 307.823 288.946 307.979 289.32C308.564 290.922 310.397 291.946 311.937 292.4C313.631 292.916 317.38 292.446 317.85 292.4C318.073 293.516 318.281 294.61 318.458 295.649C319.09 299.23 319.483 302.233 319.729 304.343C319.767 304.712 319.806 305.051 319.837 305.367H312.576L314.793 348.595H328.037L330.255 305.367H323.402L323.556 305.051C324.48 303.118 325.773 300.339 327.159 296.943C327.606 295.865 328.053 294.71 328.507 293.516C328.961 293.617 332.673 294.371 334.405 293.978C335.945 293.624 337.87 292.739 338.579 291.183C338.755 290.824 338.855 290.432 338.87 290.031C338.885 289.631 338.816 289.232 338.667 288.861C338.518 288.489 338.293 288.153 338.006 287.874C337.719 287.595 337.376 287.379 337 287.241C334.69 286.471 331.225 289.066 329.939 290.798C329.87 290.906 329.169 292.107 328.746 292.87C328.93 292.385 329.108 291.907 329.292 291.407C329.654 290.413 329.993 289.405 330.355 288.327C330.517 287.803 330.671 287.272 330.832 286.733C330.994 286.194 331.117 285.624 331.264 285.062C331.572 283.753 331.826 282.413 332.034 281.066C332.904 281.381 336.022 282.459 337.631 282.351C339.241 282.244 341.25 281.643 342.182 280.219C342.412 279.891 342.571 279.518 342.647 279.125C342.723 278.731 342.716 278.326 342.625 277.936C342.534 277.546 342.362 277.179 342.12 276.86C341.878 276.541 341.571 276.276 341.22 276.084C339.079 274.975 335.229 277.015 333.704 278.532C333.612 278.625 332.634 279.841 332.118 280.519C332.241 279.703 332.372 278.894 332.48 278.063C332.773 275.668 333.004 273.242 333.25 270.817L333.481 268.592C333.789 268.707 337.462 270.078 339.272 269.947C340.873 269.839 342.891 269.246 343.815 267.822C344.045 267.493 344.204 267.121 344.281 266.727C344.358 266.333 344.351 265.928 344.261 265.537C344.171 265.147 344 264.779 343.758 264.459C343.517 264.139 343.211 263.873 342.86 263.679C340.711 262.578 336.869 264.611 335.345 266.135C335.229 266.251 333.805 267.999 333.497 268.445C333.666 266.813 333.858 265.188 334.105 263.602C334.427 261.448 334.893 259.318 335.499 257.226C335.637 257.28 339.464 258.728 341.312 258.597C342.921 258.481 344.931 257.896 345.863 256.464C346.093 256.136 346.251 255.763 346.328 255.37C346.404 254.977 346.396 254.572 346.306 254.182C346.215 253.791 346.043 253.425 345.8 253.105C345.558 252.786 345.252 252.522 344.9 252.329C342.76 251.22 338.917 253.261 337.385 254.778C337.285 254.878 336.222 256.21 335.73 256.857L335.606 256.787C336.267 254.7 337.115 252.677 338.14 250.743C338.686 249.665 339.272 248.672 339.864 247.717C340.55 248.056 343.714 249.588 345.37 249.657C347.025 249.727 349.043 249.349 350.129 248.04C350.393 247.738 350.591 247.384 350.71 247.001C350.829 246.618 350.866 246.214 350.819 245.815C350.772 245.417 350.642 245.032 350.436 244.688C350.231 244.343 349.956 244.045 349.628 243.813C347.618 242.481 343.576 244.082 341.89 245.43C341.797 245.499 340.95 246.346 340.35 246.97C340.627 246.546 340.904 246.1 341.173 245.692C342.182 244.152 343.199 242.843 344.107 241.672C344.631 241.01 345.116 240.425 345.578 239.878C346.425 239.878 349.836 239.763 351.33 239.062C352.824 238.361 354.456 237.099 354.81 235.435C354.893 235.05 354.896 234.651 354.818 234.264C354.74 233.878 354.583 233.511 354.357 233.188C354.13 232.865 353.84 232.592 353.503 232.387C353.166 232.181 352.791 232.047 352.4 231.993ZM325.835 296.45C324.387 299.784 323.055 302.51 322.093 304.397C321.9 304.782 321.723 305.113 321.562 305.428H321.408C321.354 305.059 321.307 304.658 321.246 304.204C320.953 302.079 320.476 299.045 319.775 295.441C319.552 294.302 319.29 293.093 319.005 291.853C320.135 291.404 321.238 290.89 322.308 290.313C323.54 291.653 326.705 293.216 327.113 293.393C326.682 294.456 326.259 295.488 325.835 296.45Z" fill="#263238"/>
<path d="M297.992 348.656H363.242" stroke="#263238" stroke-linejoin="round"/>
<path d="M67.7617 348.656H291.062" stroke="#263238" stroke-linejoin="round"/>
<path d="M37.8242 348.656H60.8318" stroke="#263238" stroke-linejoin="round"/>
<path d="M254.339 346.115C254.3 346.681 254.213 347.243 254.078 347.794C253.446 350.104 249.85 349.272 247.74 350.104C245.631 350.935 242.882 352.005 240.98 352.637C239.078 353.268 233.172 353.699 230.2 353.06C228.244 352.645 227.305 351.582 227.266 350.481C227.253 349.875 227.474 349.288 227.882 348.841C229.145 347.362 233.996 345.46 236.745 343.351C239.494 341.241 243.082 336.167 243.082 336.167C247.094 337.229 253.862 336.382 253.862 336.382C253.862 336.382 254.278 338.692 254.278 339.339C254.426 341.595 254.446 343.857 254.339 346.115Z" fill="white" stroke="#263238" stroke-linecap="round" stroke-linejoin="round"/>
<path d="M254.339 346.115C254.3 346.681 254.212 347.242 254.077 347.793C253.446 350.103 249.85 349.272 247.74 350.103C245.63 350.935 242.881 352.005 240.979 352.637C239.077 353.268 233.172 353.699 230.199 353.06C228.244 352.644 227.304 351.582 227.266 350.481C228.344 351.251 230.969 352.644 235.959 352.205C242.889 351.613 245.253 349.21 248.11 348.017C250.136 347.23 252.218 346.594 254.339 346.115Z" fill="white" stroke="#263238" stroke-linecap="round" stroke-linejoin="round"/>
<path d="M254.046 337.445C253.954 336.859 253.869 336.39 253.869 336.39C251.745 336.633 249.608 336.736 247.47 336.698L247.316 336.813C247.316 336.813 247.74 336.598 247.955 338.292C248.076 339.412 248.076 340.543 247.955 341.664C247.955 341.664 252.76 340.525 253.446 338.923C253.646 338.453 253.854 337.937 254.046 337.445Z" fill="white" stroke="#263238" stroke-linecap="round" stroke-linejoin="round"/>
<path d="M277.971 354.893C276.031 356.125 266.513 361.446 264.881 361.754C263.249 362.062 257.181 361.646 255.464 360.214C254.116 359.105 253.755 357.619 254.625 356.364C254.906 355.972 255.262 355.64 255.672 355.386C257.72 354.054 261.301 350.265 262.941 348.117C264.581 345.969 267.137 342.18 267.137 342.18L267.337 341.056L277.779 341.364C277.779 341.364 277.979 343.613 278.079 344.028C278.46 345.472 278.735 346.941 278.903 348.425C279.026 349.295 279.165 350.111 279.249 350.858C279.411 352.66 279.311 354.031 277.971 354.893Z" fill="white" stroke="#263238" stroke-linecap="round" stroke-linejoin="round"/>
<path d="M277.971 354.893C276.031 356.125 266.513 361.446 264.881 361.754C263.249 362.062 257.181 361.646 255.464 360.214C254.116 359.105 253.755 357.619 254.625 356.364C254.756 357.08 255.741 360.707 262.101 360.445C269.147 360.145 274.691 353.846 277.84 351.744C278.341 351.405 278.81 351.112 279.249 350.858C279.411 352.66 279.311 354.031 277.971 354.893Z" fill="white" stroke="#263238" stroke-linecap="round" stroke-linejoin="round"/>
<path d="M277.74 341.387L267.298 341.079L267.098 342.203L266.605 342.919C266.867 342.919 270.001 342.75 270.879 343.535C271.757 344.321 271.903 347.016 274.051 346.3C275.513 345.769 276.861 344.967 278.025 343.936C277.917 343.335 277.74 341.387 277.74 341.387Z" fill="white" stroke="#263238" stroke-linecap="round" stroke-linejoin="round"/>
<path d="M235.282 239.247C235.282 239.247 234.435 261.423 236.129 274.936C237.823 288.45 238.239 298.167 238.439 298.806C238.639 299.445 242.659 326.257 242.867 327.951C243.074 329.645 243.714 331.539 243.714 332.17C243.714 332.802 244.345 333.017 247.517 333.864C249.627 334.329 251.825 334.182 253.854 333.441C253.854 333.441 255.333 318.872 255.333 315.069C255.333 311.265 253.431 293.948 253.431 293.316C253.431 292.685 254.694 263.756 254.694 263.756L255.749 264.595C255.749 264.595 257.227 289.304 257.866 293.948C258.505 298.591 258.705 302.818 259.552 305.143C260.399 307.469 262.301 322.245 263.141 324.393C263.98 326.542 264.619 334.527 264.619 334.527L265.25 337.06C265.25 337.06 266.097 339.37 271.41 339.37C276.723 339.37 277.748 338.099 277.748 338.099C277.748 338.099 277.955 326.911 277.955 321.629C277.955 316.347 275.207 300.724 274.791 297.135C274.375 293.547 273.728 278.971 274.575 276.014C275.422 273.057 276.885 255.748 276.885 248.356C276.956 244.901 276.814 241.445 276.462 238.007C276.462 238.007 256.403 239.27 249.643 238.215C242.882 237.16 236.553 235.682 236.553 235.682L235.282 239.247Z" fill="#263238" stroke="#263238" stroke-linecap="round" stroke-linejoin="round"/>
<path d="M241.41 238.407C241.41 238.407 250.488 241.149 265.057 239.886L265.265 236.082L242.042 228.267L241.41 238.407Z" fill="#808080" stroke="#263238" stroke-linecap="round" stroke-linejoin="round"/>
<path d="M253.721 237.72L247.727 237.496L247.638 239.858L253.632 240.082L253.721 237.72Z" fill="white" stroke="#263238" stroke-linecap="round" stroke-linejoin="round"/>
<path d="M266.962 176.107C266.962 176.107 259.57 175.267 255.981 176.322C252.393 177.377 247.958 178.632 246.687 182.02C245.417 185.408 239.195 235.558 239.195 235.558C239.195 235.558 246.056 237.776 252.178 237.776C258.299 237.776 264.852 237.352 264.852 237.352C264.852 237.352 265.483 210.318 266.962 205.467C268.44 200.616 266.962 176.107 266.962 176.107Z" fill="#EB996E" stroke="#263238" stroke-linecap="round" stroke-linejoin="round"/>
<path d="M250.191 179.564C250.191 179.564 250.453 184.808 251.985 186.086C253.518 187.364 253.649 187.757 253.649 187.757L254.542 197.767C254.542 197.767 257.876 191.73 258.261 190.96C258.635 189.577 258.893 188.166 259.031 186.74C260.146 185.902 261.215 185.005 262.234 184.053C263.381 182.898 264.282 175.221 264.282 174.32C264.282 173.419 264.028 168.561 264.028 168.561C264.028 168.561 261.333 174.574 258.392 177.262C255.451 179.949 252.632 180.211 251.993 180.08C251.354 179.949 250.191 179.564 250.191 179.564Z" fill="white" stroke="#263238" stroke-linecap="round" stroke-linejoin="round"/>
<path d="M250.067 178.024C250.067 178.024 249.805 196.588 249.805 204.134C249.805 211.68 247.495 221.159 245.069 227.558C242.644 233.957 237.369 251.174 235.729 255.147C234.655 257.772 233.758 260.465 233.042 263.209C233.042 263.209 230.609 261.284 230.478 255.016C230.347 248.748 231.887 241.449 232.141 236.967C232.395 232.486 232.526 223.107 232.526 223.107C232.526 223.107 232.526 225.279 229.2 226.957C225.873 228.636 223.81 229.39 221.646 225.294C219.482 221.198 219.729 218.764 221.777 215.053C223.825 211.342 225.742 201.74 227.406 197.389C229.069 193.039 228.946 186.894 230.74 185.616C232.534 184.338 241.104 180.88 244.561 178.832C248.019 176.784 249.428 176.784 249.428 176.784C249.428 176.784 249.936 176.491 250.067 178.024Z" fill="white" stroke="#263238" stroke-linecap="round" stroke-linejoin="round"/>
<path d="M225.495 213.221C225.495 213.221 222.931 218.518 223.663 220.343C224.394 222.168 226.743 224.193 229.515 222.538C232.287 220.882 233.164 220.713 232.248 217.24C231.332 213.767 227.867 211.211 225.495 213.221Z" stroke="#263238" stroke-linecap="round" stroke-linejoin="round"/>
<path d="M233.951 195.334C233.866 193.547 233.812 192.361 233.812 192.361L233.951 195.334Z" fill="white"/>
<path d="M233.951 195.334C233.866 193.547 233.812 192.361 233.812 192.361" stroke="#263238" stroke-linecap="round" stroke-linejoin="round"/>
<path d="M232.543 223.084C232.543 223.084 234.337 213.352 234.337 207.846C234.337 204.835 234.183 200.477 234.044 197.151" fill="white"/>
<path d="M232.543 223.084C232.543 223.084 234.337 213.352 234.337 207.846C234.337 204.835 234.183 200.477 234.044 197.151" stroke="#263238" stroke-linecap="round" stroke-linejoin="round"/>
<path d="M249.427 176.746C249.427 176.746 248.311 176.746 245.647 178.178C245.054 181.551 243.914 189.397 244.684 196.589C245.346 202.672 247.533 209.009 249.019 212.759C249.504 209.904 249.762 207.015 249.789 204.119C249.789 196.573 250.051 178.009 250.051 178.009C249.936 176.492 249.427 176.746 249.427 176.746Z" fill="white" stroke="#263238" stroke-linecap="round" stroke-linejoin="round"/>
<path d="M241.782 160.199C241.782 160.199 242.836 166.959 243.899 169.878C244.962 172.796 247.48 175.968 248.519 177.963C249.559 179.957 251.83 182.067 254.348 182.067C256.866 182.067 260.308 178.625 260.97 177.447C261.632 176.269 263.488 174.128 263.626 172.827C263.765 171.525 263.757 169.385 263.757 169.385C264.567 169.117 265.285 168.627 265.829 167.971C266.374 167.314 266.723 166.518 266.837 165.673C267.205 164.079 267.065 162.41 266.437 160.899C265.819 159.42 265.064 158.002 264.181 156.664C262.325 153.584 256.234 151.89 250.398 152.814C244.561 153.738 241.651 156.225 241.782 160.199Z" fill="white" stroke="#263238" stroke-linecap="round" stroke-linejoin="round"/>
<path d="M241.943 165.55C244.474 165.065 247.078 165.099 249.596 165.65C249.596 165.65 250.259 168.037 248.826 169.623C247.394 171.21 244.715 170.686 243.922 170.393C243.128 170.101 241.896 168.746 241.943 165.55Z" fill="white" stroke="#263238" stroke-linecap="round" stroke-linejoin="round"/>
<path d="M252.246 165.434C254.786 164.912 257.406 164.912 259.946 165.434C259.946 165.434 260.639 167.806 259.176 169.423C257.713 171.04 255.08 170.539 254.287 170.285C253.493 170.031 252.246 168.63 252.246 165.434Z" fill="white" stroke="#263238" stroke-linecap="round" stroke-linejoin="round"/>
<path d="M249.598 165.635C250.424 165.239 251.37 165.168 252.246 165.435" stroke="#263238" stroke-linecap="round" stroke-linejoin="round"/>
<path d="M259.906 165.419L263.51 162.986" stroke="#263238" stroke-linecap="round" stroke-linejoin="round"/>
<path d="M249.805 166.736C249.805 166.736 251.229 166.181 252.115 166.736" stroke="#263238" stroke-linecap="round" stroke-linejoin="round"/>
<path d="M252.969 164.526C254.495 163.889 256.176 163.723 257.797 164.048" stroke="#263238" stroke-linecap="round" stroke-linejoin="round"/>
<path d="M248.773 164.919C247.475 164.186 245.942 163.987 244.5 164.364" stroke="#263238" stroke-linecap="round" stroke-linejoin="round"/>
<path d="M249.805 168.083C249.805 168.083 249.643 173.866 249.72 174.104C250.17 174.544 250.757 174.816 251.383 174.874C252.08 174.795 252.77 174.661 253.447 174.474" stroke="#263238" stroke-linecap="round" stroke-linejoin="round"/>
<path d="M250.438 176.33C250.438 176.33 252.024 177.678 254.95 176.484" stroke="#263238" stroke-linecap="round" stroke-linejoin="round"/>
<path d="M239.395 153.838C239.395 153.838 235.022 155.163 235.815 157.95C236.608 160.737 241.652 161.661 246.687 160.329C250.291 159.301 253.801 157.972 257.182 156.356C256.852 156.763 256.695 157.283 256.746 157.805C256.796 158.327 257.05 158.808 257.452 159.144C258.907 160.468 258.776 156.356 258.776 156.356C258.776 156.356 258.645 161.13 260.501 161.792C262.357 162.455 262.488 162.847 262.488 162.847C262.488 162.847 261.826 165.504 262.619 165.766C263.412 166.027 263.543 162.986 263.543 162.986C263.543 162.986 263.812 161.392 265.136 161.13L266.461 160.861C266.461 160.861 266.199 151.983 265.398 148.672C264.598 145.361 256.52 141.511 249.498 144.052C242.475 146.593 239.126 149.996 239.395 153.838Z" fill="#263238" stroke="#263238" stroke-linecap="round" stroke-linejoin="round"/>
<path d="M224.211 216.809L227.291 211.942L229.847 216.039C228.694 216.714 227.498 217.313 226.267 217.833C225.545 217.571 224.855 217.228 224.211 216.809Z" fill="white" stroke="#263238" stroke-linecap="round" stroke-linejoin="round"/>
<path d="M230.477 219.365C231.224 219.685 231.997 219.942 232.787 220.135C233.554 220.09 234.303 219.884 234.986 219.531C235.67 219.179 236.271 218.687 236.752 218.087C237.522 216.809 236.236 216.678 236.236 216.678L234.696 218.087L232.132 217.964L230.477 219.365Z" fill="white" stroke="#263238" stroke-linecap="round" stroke-linejoin="round"/>
<path d="M222.547 206.568L229.97 217.833L236.237 217.964L229.585 206.568H222.547Z" fill="#263238" stroke="#263238" stroke-linecap="round" stroke-linejoin="round"/>
<path d="M230.232 213.867C230.232 213.867 224.219 215.915 224.219 216.809C224.273 217.265 224.504 217.682 224.863 217.97C225.221 218.258 225.678 218.394 226.136 218.349C227.16 218.349 231.126 215.785 231.526 215.015C231.926 214.245 231.503 213.736 230.232 213.867Z" fill="white" stroke="#263238" stroke-linecap="round" stroke-linejoin="round"/>
<path d="M226.766 218.472C226.858 218.824 227.034 219.148 227.28 219.416C227.525 219.684 227.833 219.889 228.175 220.012C229.33 220.389 232.795 217.964 233.426 217.063C234.058 216.162 232.14 216.424 230.739 216.94C229.337 217.456 226.766 218.472 226.766 218.472Z" fill="white" stroke="#263238" stroke-linecap="round" stroke-linejoin="round"/>
<path d="M224.332 209.517C224.172 209.643 224.038 209.798 223.939 209.976C223.84 210.153 223.776 210.348 223.753 210.55C223.729 210.752 223.746 210.956 223.801 211.152C223.857 211.347 223.951 211.53 224.078 211.688C224.979 212.967 227.158 213.228 227.158 213.228L224.332 209.517Z" fill="white" stroke="#263238" stroke-linecap="round" stroke-linejoin="round"/>
<path d="M264.271 174.312C264.271 174.312 259.282 207.723 258.111 210.664C256.941 213.606 260.291 236.197 260.291 239.27C260.291 242.342 263.232 242.858 264.379 243.497C265.527 244.136 274.882 248.617 276.283 250.92C277.685 253.222 281.281 258.088 281.281 258.088C281.281 258.088 279.132 236.359 278.848 224.617C278.732 219.881 279.102 212.843 279.102 212.843C279.102 212.843 284.492 184.938 283.968 182.89C283.444 180.842 274.882 177.5 271.163 176.237C268.907 175.457 266.605 174.814 264.271 174.312Z" fill="white" stroke="#263238" stroke-linecap="round" stroke-linejoin="round"/>
<path d="M270.54 178.64C270.671 177.77 270.794 176.838 270.887 176.114C268.719 175.379 266.511 174.769 264.272 174.29C264.272 174.29 259.283 207.7 258.112 210.641C257.888 211.489 257.809 212.369 257.881 213.244C258.559 212.289 261.423 208.193 264.003 203.603C266.96 198.375 270.271 180.457 270.54 178.64Z" fill="white" stroke="#263238" stroke-linecap="round" stroke-linejoin="round"/>
<path d="M260.945 241.58C263.363 242.336 265.849 242.852 268.368 243.12C272.849 243.628 283.445 247.855 287.218 252.491C288.436 253.871 289.509 255.372 290.421 256.972C290.421 256.972 285.131 257.742 284.107 257.842C283.083 257.942 280.78 258.096 280.78 258.096C280.78 258.096 276.684 252.206 274.62 250.542C272.557 248.879 261.708 243.497 260.945 241.58Z" fill="white" stroke="#263238" stroke-linecap="round" stroke-linejoin="round"/>
<path d="M242.043 332.009V335.658C242.044 335.959 242.133 336.252 242.299 336.502C242.464 336.752 242.699 336.949 242.975 337.068C244.579 337.677 246.253 338.088 247.957 338.292C250.061 338.636 252.22 338.296 254.117 337.322C254.352 337.186 254.547 336.991 254.682 336.755C254.817 336.52 254.888 336.253 254.887 335.982V332.64C254.888 332.453 254.849 332.268 254.771 332.097C254.693 331.927 254.579 331.776 254.437 331.654C254.295 331.532 254.128 331.443 253.947 331.392C253.767 331.342 253.578 331.332 253.393 331.362C251.083 331.739 246.54 332.247 243.16 331.131C243.027 331.095 242.887 331.09 242.752 331.118C242.617 331.145 242.49 331.204 242.381 331.289C242.273 331.375 242.186 331.484 242.127 331.609C242.068 331.734 242.04 331.871 242.043 332.009Z" fill="#808080" stroke="#263238" stroke-linecap="round" stroke-linejoin="round"/>
<path d="M264.11 335.889V340.009C264.109 340.348 264.209 340.679 264.397 340.962C264.585 341.244 264.852 341.464 265.165 341.595C266.975 342.281 268.863 342.744 270.786 342.973C273.166 343.371 275.611 342.988 277.754 341.88C278.03 341.73 278.259 341.507 278.417 341.235C278.575 340.964 278.654 340.654 278.647 340.34V336.598C278.648 336.387 278.603 336.179 278.514 335.987C278.426 335.796 278.297 335.626 278.137 335.49C277.976 335.354 277.788 335.254 277.585 335.198C277.382 335.142 277.169 335.131 276.961 335.166C274.351 335.589 269.261 336.159 265.411 334.896C265.258 334.85 265.096 334.84 264.939 334.869C264.781 334.897 264.633 334.962 264.506 335.059C264.379 335.156 264.277 335.282 264.208 335.427C264.139 335.571 264.105 335.729 264.11 335.889Z" fill="#808080" stroke="#263238" stroke-linecap="round" stroke-linejoin="round"/>
<path d="M272.736 245.083L268.57 248.918L274.738 254.916L277.063 251.082L272.736 245.083Z" fill="white" stroke="#263238" stroke-linecap="round" stroke-linejoin="round"/>
<path d="M278.481 198.891C278.481 198.891 277.588 206.444 277.965 209.132C278.342 211.819 284.364 226.765 284.364 226.765L271.566 245.291C271.566 245.291 273.106 251.813 277.457 253.861C277.457 253.861 290.039 241.61 292.433 239.015C297.562 233.456 299.525 228.628 299.525 226.58C299.525 224.532 286.928 187.241 286.674 186.34C286.42 185.439 285.134 181.989 281.938 181.088" fill="white"/>
<path d="M278.481 198.891C278.481 198.891 277.588 206.444 277.965 209.132C278.342 211.819 284.364 226.765 284.364 226.765L271.566 245.291C271.566 245.291 273.106 251.813 277.457 253.861C277.457 253.861 290.039 241.61 292.433 239.015C297.562 233.456 299.525 228.628 299.525 226.58C299.525 224.532 286.928 187.241 286.674 186.34C286.42 185.439 285.134 181.989 281.938 181.088" stroke="#263238" stroke-linecap="round" stroke-linejoin="round"/>
<path d="M285.594 226.734C285.594 226.734 289.244 224.547 293.078 226.003" stroke="#263238" stroke-linecap="round" stroke-linejoin="round"/>
<path d="M289.977 224.363C291.56 224.079 293.192 224.407 294.543 225.279" stroke="#263238" stroke-linecap="round" stroke-linejoin="round"/>
<path d="M246.753 63.4556C250.209 63.4559 253.621 64.2275 256.741 65.7141C259.86 67.2007 262.609 69.3649 264.786 72.0488H307.952C311.119 72.1285 314.129 73.4425 316.34 75.7103C318.552 77.9781 319.79 81.0203 319.79 84.1878C319.79 87.3554 318.552 90.3975 316.34 92.6654C314.129 94.9332 311.119 96.2471 307.952 96.3269H267.912C266.21 100.06 263.554 103.279 260.212 105.659L247.284 115.669C247.235 115.705 247.176 115.724 247.115 115.723C247.059 115.724 247.004 115.705 246.961 115.669L232.77 105.359C229.859 103.204 227.503 100.387 225.896 97.142C224.29 93.8965 223.478 90.3152 223.53 86.6942C223.538 80.5361 225.987 74.6323 230.34 70.2764C234.693 65.9205 240.595 63.4678 246.753 63.4556Z" fill="#263238"/>
<path d="M308.537 93.9399H252.558V70.2008H308.537C311.684 70.2008 314.702 71.451 316.927 73.6762C319.152 75.9015 320.402 78.9196 320.402 82.0665C320.403 83.6254 320.097 85.1692 319.501 86.6097C318.905 88.0502 318.032 89.3592 316.93 90.4618C315.828 91.5645 314.519 92.4392 313.079 93.036C311.639 93.6328 310.096 93.9399 308.537 93.9399Z" fill="white" stroke="#263238" stroke-linecap="round" stroke-linejoin="round"/>
<path d="M309.8 78.5859H279.785" stroke="#263238" stroke-linejoin="round"/>
<path d="M309.8 82.3745H279.785" stroke="#263238" stroke-linejoin="round"/>
<path d="M309.8 86.1553H279.785" stroke="#263238" stroke-linejoin="round"/>
<path d="M233.509 103.018L247.692 113.336L260.62 103.326C263.835 101.045 266.409 97.9747 268.094 94.4111C269.779 90.8475 270.519 86.9103 270.243 82.978C269.967 79.0457 268.683 75.2507 266.516 71.9578C264.349 68.6649 261.371 65.9848 257.869 64.1754C254.367 62.366 250.458 61.488 246.519 61.6259C242.579 61.7638 238.741 62.9129 235.374 64.9628C232.007 67.0126 229.224 69.8943 227.293 73.3306C225.361 76.767 224.346 80.6425 224.346 84.5845C224.298 88.1642 225.104 91.7037 226.698 94.9095C228.292 98.1153 230.626 100.895 233.509 103.018Z" fill="white" stroke="#263238" stroke-linecap="round" stroke-linejoin="round"/>
<path d="M267.39 84.7C267.391 88.6977 266.207 92.606 263.988 95.9308C261.768 99.2556 258.612 101.847 254.919 103.379C251.227 104.91 247.163 105.312 243.242 104.533C239.321 103.755 235.718 101.831 232.89 99.0056C230.063 96.1799 228.136 92.5791 227.355 88.6586C226.573 84.738 226.972 80.6738 228.5 76.9799C230.029 73.2859 232.618 70.1282 235.941 67.9059C239.265 65.6837 243.172 64.4968 247.17 64.4952C249.826 64.4861 252.458 65.0023 254.915 66.0143C257.371 67.0263 259.603 68.5139 261.482 70.3917C263.362 72.2696 264.851 74.5004 265.865 76.956C266.879 79.4116 267.397 82.0434 267.39 84.7Z" fill="#EB996E" stroke="#263238" stroke-linejoin="round"/>
<path d="M261.844 98.6064L247.306 94.8257L231.906 97.9596C232.099 98.1906 232.307 98.4139 232.515 98.6295C234.403 100.62 236.677 102.206 239.198 103.289C241.72 104.373 244.435 104.932 247.179 104.932C249.923 104.932 252.639 104.373 255.16 103.289C257.681 102.206 259.955 100.62 261.844 98.6295V98.6064Z" fill="white" stroke="#263238" stroke-linecap="round" stroke-linejoin="round"/>
<path d="M244.714 93.8242C243.47 94.4892 242.356 95.3735 241.426 96.4345C239.986 98.1208 237.576 102.595 237.8 102.425C238.023 102.256 244.799 98.1208 244.799 98.1208L244.714 93.8242Z" fill="#EB996E" stroke="#263238" stroke-linecap="round" stroke-linejoin="round"/>
<path d="M250.356 92.9775L245.043 98.7987L246.56 104.112L252.805 96.1884L250.356 92.9775Z" fill="#EB996E" stroke="#263238" stroke-linecap="round" stroke-linejoin="round"/>
<path d="M240.576 72.6572C240.576 72.6572 237.119 73.3348 236.726 70.301C236.333 67.2672 241.03 62.9629 247.776 62.9629C254.521 62.9629 259.834 68.6147 259.58 74.0971C259.348 77.6341 258.14 81.0376 256.092 83.93C254.831 84.9615 253.363 85.7099 251.787 86.1245C250.609 86.2862 249.77 84.5845 250.355 82.4131C250.94 80.2417 249.092 79.6257 249.855 77.6083C250.617 75.5909 251.626 75.5832 251.957 74.9056C252.288 74.228 248.584 72.7958 245.211 72.9652C241.839 73.1346 240.576 72.6572 240.576 72.6572Z" fill="#263238" stroke="#263238" stroke-linecap="round" stroke-linejoin="round"/>
<path d="M244.29 90.5364L244.229 90.8598C244.051 91.8993 243.505 95.1487 243.358 97.1122C243.197 99.4761 244.898 99.4222 245.553 98.7138C246.207 98.0054 249.773 94.5019 250.358 92.985C250.943 91.4681 252.298 86.9097 252.298 86.9097L244.29 90.5364Z" fill="white" stroke="#263238" stroke-linecap="round" stroke-linejoin="round"/>
<path d="M240.576 72.657C240.576 72.657 239.398 79.2405 238.974 82.667C238.551 86.0935 238.127 88.1417 239.567 90.367C241.007 92.5923 245.042 91.137 247.067 90.2823C249.192 89.2317 251.25 88.0487 253.227 86.7403C253.227 86.7403 256.091 86.9097 257.269 85.4775C257.468 85.2219 257.607 84.9251 257.676 84.6089C257.745 84.2926 257.743 83.9649 257.669 83.6497C257.595 83.3345 257.452 83.0398 257.25 82.7872C257.047 82.5346 256.791 82.3304 256.499 82.1896C256.005 82.1718 255.511 82.2517 255.048 82.4248C254.584 82.5979 254.159 82.8607 253.797 83.1983C253.296 83.7912 253.381 84.4688 252.788 84.4688C252.195 84.4688 251.356 84.6305 251.525 84.0453C251.695 83.4601 252.957 81.512 252.618 80.2492C252.28 78.9864 249.754 78.1394 251.848 76.9613C253.943 75.7832 256.153 75.8679 255.144 74.0969C254.135 72.3259 248.899 70.4702 245.612 71.1401C243.883 71.4634 242.195 71.972 240.576 72.657Z" fill="white" stroke="#263238" stroke-linecap="round" stroke-linejoin="round"/>
<path d="M241.67 74.5974C241.67 74.5974 243.649 74.1816 243.526 76.199C243.479 76.969 239.984 80.6727 240.492 81.512C240.837 82.0543 241.297 82.5143 241.839 82.8595" stroke="#263238" stroke-linecap="round" stroke-linejoin="round"/>
<path d="M245.891 76.7075C246.16 76.4861 246.476 76.3285 246.815 76.2467C247.154 76.1648 247.507 76.1608 247.848 76.2349C248.189 76.3089 248.508 76.4592 248.783 76.6744C249.057 76.8897 249.279 77.1642 249.433 77.4775" stroke="#263238" stroke-linecap="round" stroke-linejoin="round"/>
<path d="M241.008 85.3081C241.008 85.3081 241.516 86.5709 243.533 86.4015C244.439 86.4055 245.334 86.2055 246.151 85.8163" stroke="#263238" stroke-linecap="round" stroke-linejoin="round"/>
<path d="M247.055 79.4796C246.939 80.034 246.6 80.4344 246.285 80.3728C245.969 80.3112 245.846 79.803 245.969 79.2486C246.092 78.6942 246.423 78.2938 246.739 78.3554C247.055 78.417 247.17 78.9252 247.055 79.4796Z" fill="#263238"/>
<path d="M242.149 77.6084C242.042 78.1474 241.726 78.5401 241.441 78.4862C241.156 78.4323 241.01 77.9472 241.118 77.4082C241.225 76.8692 241.541 76.4765 241.826 76.5381C242.111 76.5997 242.257 77.0694 242.149 77.6084Z" fill="#263238"/>
<path d="M146.484 103.634C143.028 103.634 139.615 104.407 136.495 105.895C133.375 107.383 130.626 109.549 128.451 112.235H85.2846C83.6647 112.194 82.0531 112.478 80.5446 113.07C79.0362 113.662 77.6614 114.549 76.5013 115.68C75.3412 116.812 74.4192 118.164 73.7897 119.657C73.1602 121.15 72.8359 122.754 72.8359 124.374C72.8359 125.995 73.1602 127.599 73.7897 129.092C74.4192 130.585 75.3412 131.937 76.5013 133.068C77.6614 134.199 79.0362 135.087 80.5446 135.679C82.0531 136.27 83.6647 136.554 85.2846 136.513H125.325C127.025 140.247 129.681 143.467 133.025 145.846L145.953 155.856C145.998 155.894 146.055 155.916 146.115 155.917C146.173 155.916 146.229 155.897 146.276 155.863L160.475 145.53C163.385 143.376 165.74 140.56 167.346 137.316C168.953 134.072 169.765 130.493 169.715 126.873C169.707 120.713 167.257 114.809 162.902 110.452C158.548 106.096 152.644 103.644 146.484 103.634Z" fill="#263238"/>
<path d="M84.0531 134.188H140.032V110.449H84.0531C80.9047 110.451 77.8858 111.702 75.6596 113.929C73.4333 116.155 72.1817 119.174 72.1797 122.322C72.1817 125.47 73.4336 128.488 75.66 130.713C77.8865 132.938 80.9054 134.188 84.0531 134.188Z" fill="white" stroke="#263238" stroke-linecap="round" stroke-linejoin="round"/>
<path d="M82.7891 118.834H112.804" stroke="#263238" stroke-linejoin="round"/>
<path d="M82.7891 122.622H112.804" stroke="#263238" stroke-linejoin="round"/>
<path d="M82.7891 126.411H112.804" stroke="#263238" stroke-linejoin="round"/>
<path d="M159.083 143.266L144.892 153.584L131.964 143.574C128.749 141.292 126.176 138.222 124.491 134.659C122.805 131.095 122.065 127.158 122.342 123.226C122.618 119.293 123.901 115.498 126.068 112.205C128.235 108.912 131.213 106.232 134.715 104.423C138.217 102.614 142.126 101.736 146.066 101.873C150.005 102.011 153.843 103.16 157.21 105.21C160.577 107.26 163.36 110.142 165.292 113.578C167.223 117.015 168.238 120.89 168.239 124.832C168.288 128.411 167.483 131.95 165.891 135.156C164.299 138.362 161.965 141.142 159.083 143.266Z" fill="white" stroke="#263238" stroke-linecap="round" stroke-linejoin="round"/>
<path d="M148.459 144.785C159.481 143.012 166.978 132.64 165.204 121.619C163.431 110.598 153.059 103.101 142.038 104.874C131.017 106.647 123.52 117.019 125.293 128.04C127.066 139.062 137.438 146.559 148.459 144.785Z" fill="#EB996E" stroke="#263238" stroke-linejoin="round"/>
<path d="M162.807 134.842C164.262 126.611 156.177 123.238 155.369 119.049C155.369 119.049 157.394 118.641 158.072 115.122C158.749 111.603 157.255 106.868 150.087 105.382C142.918 103.896 134.525 110.002 133.147 115.53C131.768 121.059 135.719 123.646 133.686 125.679C133.337 125.987 132.939 126.235 132.508 126.41C131.491 127.026 130.059 127.904 129.097 128.436C127.48 129.329 126.579 138.138 135.026 139.216C143.472 140.294 145.444 137.599 150.118 137.06C153.059 136.721 157.925 137.021 161.129 137.291" fill="#263238"/>
<path d="M162.807 134.842C164.262 126.611 156.177 123.238 155.369 119.049C155.369 119.049 157.394 118.641 158.072 115.122C158.749 111.603 157.255 106.868 150.087 105.382C142.918 103.896 134.525 110.002 133.147 115.53C131.768 121.059 135.719 123.646 133.686 125.679C133.337 125.987 132.939 126.235 132.508 126.41C131.491 127.026 130.059 127.904 129.097 128.436C127.48 129.329 126.579 138.138 135.026 139.216C143.472 140.294 145.444 137.599 150.118 137.06C153.059 136.721 157.925 137.021 161.129 137.291" stroke="#263238" stroke-linecap="round" stroke-linejoin="round"/>
<path d="M160.636 132.848C157.802 132.848 154.283 134.873 153.067 134.873C151.85 134.873 151.711 129.737 151.711 129.737L145.351 128.382C145.351 128.382 146.029 133.387 145.759 135.42C145.49 137.452 140.885 137.73 138.991 137.984C137.097 138.238 136.019 139.478 135.48 142.319C135.475 142.378 135.475 142.437 135.48 142.496C137.912 143.852 140.6 144.686 143.372 144.945C146.114 144.459 148.878 143.913 151.072 143.351C152.543 142.973 153.975 142.642 155.33 142.357C158.518 140.528 161.148 137.867 162.938 134.657C162.832 134.131 162.542 133.66 162.12 133.328C161.698 132.997 161.172 132.826 160.636 132.848Z" fill="white" stroke="#263238" stroke-linecap="round" stroke-linejoin="round"/>
<path d="M135.906 142.75C140.225 144.999 145.21 145.615 149.946 144.483C154.682 143.351 158.851 140.549 161.686 136.59C158.313 137.021 158.005 138.8 156.042 138.8C153.878 138.8 151.306 138.53 148.342 139.878C145.377 141.225 144.954 141.772 140.765 141.772C139.096 141.767 137.443 142.1 135.906 142.75Z" fill="#EB996E" stroke="#263238" stroke-linecap="round" stroke-linejoin="round"/>
<path d="M151.035 111.604C151.035 111.604 155.771 115.261 156.04 120.266C156.31 125.271 154.685 128.921 153.068 130.684C151.451 132.447 149.28 131.762 147.116 130.276C145.686 129.235 144.448 127.953 143.458 126.488C142.8 126.421 142.182 126.136 141.703 125.679C141.154 125.229 140.772 124.608 140.617 123.916C140.617 123.916 144.675 123.785 145.622 121.075C146.569 118.364 145.761 115.939 147.116 114.044C148.118 112.822 149.496 111.964 151.035 111.604Z" fill="white" stroke="#263238" stroke-linecap="round" stroke-linejoin="round"/>
<path d="M149.82 118.503C149.82 118.503 147.51 117.425 146.57 119.45" stroke="#263238" stroke-linecap="round" stroke-linejoin="round"/>
<path d="M152.523 117.81C152.523 117.81 154.148 116.593 154.687 117.94" stroke="#263238" stroke-linecap="round" stroke-linejoin="round"/>
<path d="M151.851 128.112C151.525 128.185 151.186 128.187 150.859 128.116C150.532 128.046 150.224 127.905 149.957 127.704" stroke="#263238" stroke-linecap="round" stroke-linejoin="round"/>
<path d="M152.66 118.911C152.365 120.243 152.228 121.605 152.252 122.969C152.39 124.593 151.851 125.001 151.035 124.732" stroke="#263238" stroke-linecap="round" stroke-linejoin="round"/>
<path d="M148.372 122.253C148.64 122.253 148.857 121.784 148.857 121.205C148.857 120.627 148.64 120.158 148.372 120.158C148.104 120.158 147.887 120.627 147.887 121.205C147.887 121.784 148.104 122.253 148.372 122.253Z" fill="#263238"/>
<path d="M154.024 121.691C154.292 121.691 154.509 121.222 154.509 120.643C154.509 120.065 154.292 119.596 154.024 119.596C153.756 119.596 153.539 120.065 153.539 120.643C153.539 121.222 153.756 121.691 154.024 121.691Z" fill="#263238"/>
<path d="M145.802 236.721C142.347 236.721 138.934 237.493 135.814 238.979C132.695 240.466 129.946 242.63 127.769 245.314H84.6028C81.4362 245.394 78.4262 246.708 76.2148 248.975C74.0034 251.243 72.7656 254.285 72.7656 257.453C72.7656 260.621 74.0034 263.663 76.2148 265.93C78.4262 268.198 81.4362 269.512 84.6028 269.592H124.643C126.346 273.324 129.002 276.543 132.343 278.924L145.271 288.934C145.32 288.97 145.38 288.989 145.44 288.988C145.497 288.989 145.551 288.97 145.594 288.934L159.786 278.624C162.696 276.469 165.052 273.653 166.659 270.407C168.265 267.162 169.077 263.58 169.026 259.959C169.017 253.801 166.569 247.897 162.216 243.542C157.863 239.186 151.96 236.733 145.802 236.721Z" fill="#263238"/>
<path d="M83.5845 267.513H139.563V243.774H83.5845C80.4375 243.774 77.4194 245.024 75.1941 247.249C72.9689 249.475 71.7188 252.493 71.7188 255.64C71.7177 257.199 72.0239 258.742 72.6198 260.183C73.2156 261.623 74.0895 262.932 75.1914 264.035C76.2933 265.138 77.6018 266.012 79.0419 266.609C80.482 267.206 82.0256 267.513 83.5845 267.513Z" fill="white" stroke="#263238" stroke-linecap="round" stroke-linejoin="round"/>
<path d="M82.3203 252.159H112.335" stroke="#263238" stroke-linejoin="round"/>
<path d="M82.3203 255.948H112.335" stroke="#263238" stroke-linejoin="round"/>
<path d="M82.3203 259.729H112.335" stroke="#263238" stroke-linejoin="round"/>
<path d="M158.623 276.591L144.431 286.909L131.503 276.899C128.288 274.618 125.715 271.548 124.03 267.984C122.344 264.421 121.604 260.484 121.881 256.551C122.157 252.619 123.44 248.824 125.607 245.531C127.774 242.238 130.752 239.558 134.254 237.749C137.756 235.939 141.665 235.061 145.605 235.199C149.544 235.337 153.382 236.486 156.749 238.536C160.116 240.586 162.899 243.468 164.831 246.904C166.762 250.34 167.777 254.216 167.778 258.158C167.826 261.737 167.02 265.275 165.428 268.481C163.836 271.687 161.503 274.467 158.623 276.591Z" fill="white" stroke="#263238" stroke-linecap="round" stroke-linejoin="round"/>
<path d="M124.617 257.996C124.617 261.993 125.803 265.901 128.024 269.225C130.245 272.549 133.401 275.14 137.095 276.67C140.788 278.199 144.852 278.6 148.773 277.82C152.694 277.04 156.295 275.115 159.122 272.288C161.949 269.461 163.874 265.86 164.654 261.939C165.434 258.018 165.033 253.954 163.504 250.261C161.974 246.567 159.383 243.411 156.059 241.19C152.735 238.969 148.827 237.783 144.83 237.783C142.174 237.778 139.543 238.298 137.089 239.311C134.634 240.325 132.404 241.814 130.526 243.692C128.648 245.57 127.159 247.8 126.145 250.255C125.131 252.709 124.612 255.34 124.617 257.996Z" fill="#EB996E" stroke="#263238" stroke-linejoin="round"/>
<path d="M129.262 270.893C131.086 273.093 133.356 274.881 135.922 276.14C138.487 277.399 141.291 278.1 144.147 278.197C147.003 278.293 149.847 277.784 152.492 276.702C155.137 275.619 157.523 273.989 159.492 271.917L149.759 269.746L136.292 269.076L129.262 270.893Z" fill="#EB996E" stroke="#263238" stroke-linecap="round" stroke-linejoin="round"/>
<path d="M139.046 264.171C139.923 260.945 138.899 255.955 138.899 255.955C141.102 253.761 147.7 264.425 147.7 264.425C147.7 264.425 147.554 266.335 149.756 269.707C149.88 269.904 150.014 270.094 150.157 270.277C148.794 272.464 145.906 276.599 143.743 276.168C141.579 275.737 138.199 271.548 136.289 269.038C138.291 267.813 138.376 266.635 139.046 264.171Z" fill="white" stroke="#263238" stroke-linecap="round" stroke-linejoin="round"/>
<path d="M136.776 251.713C136.776 251.713 135.752 251.559 135.606 253.469C135.46 255.378 136.337 256.41 137.061 256.41H138.232C138.419 257.549 138.676 258.675 139.002 259.783C139.587 261.985 139.587 263.163 144.284 265.065C148.981 266.967 150.151 266.682 151.476 264.626C152.8 262.57 152.792 255.093 152.939 251.867C153.085 248.641 153.67 244.937 153.67 244.937C152.701 243.952 151.557 243.156 150.298 242.588C148.095 241.564 141.35 242.735 139.294 243.767C137.238 244.798 137.978 250.073 137.978 250.073L136.776 251.713Z" fill="white" stroke="#263238" stroke-linecap="round" stroke-linejoin="round"/>
<path d="M150.737 261.584C149.37 261.944 147.925 261.86 146.609 261.346" stroke="#263238" stroke-linecap="round" stroke-linejoin="round"/>
<path d="M150.715 253.615C150.715 254.1 150.915 254.5 151.154 254.5C151.392 254.5 151.6 254.1 151.6 253.615C151.6 253.13 151.4 252.737 151.154 252.737C150.907 252.737 150.715 253.13 150.715 253.615Z" fill="#263238"/>
<path d="M146.461 254.2C146.461 254.693 146.653 255.086 146.9 255.086C147.146 255.086 147.339 254.693 147.339 254.2C147.339 253.707 147.146 253.322 146.9 253.322C146.653 253.322 146.461 253.715 146.461 254.2Z" fill="#263238"/>
<path d="M152.039 250.827C151.814 250.646 151.54 250.535 151.253 250.509C150.965 250.483 150.676 250.543 150.422 250.681" stroke="#263238" stroke-linecap="round" stroke-linejoin="round"/>
<path d="M147.193 251.12C147.193 251.12 145.43 250.389 144.113 252.444" stroke="#263238" stroke-linecap="round" stroke-linejoin="round"/>
<path d="M149.573 252.853L150.127 258.751L147.34 259.043" stroke="#263238" stroke-linecap="round" stroke-linejoin="round"/>
<path d="M133.841 241.441C133.987 239.093 137.691 239.97 140.001 239.093C142.311 238.215 146.454 235.574 149.972 235.574C150.893 235.504 151.809 235.76 152.56 236.296C153.311 236.832 153.851 237.614 154.084 238.507L153.93 236.159C153.93 236.159 156.279 237.483 156.132 239.97C155.986 242.458 154.231 245.399 153.052 245.253C151.874 245.106 141.903 244.667 141.318 246.138C140.732 247.609 142.935 250.389 142.935 250.389C142.788 251.859 140.625 251.559 140.44 252.152C140.357 253.57 140.406 254.993 140.586 256.402C140.598 257.228 140.388 258.042 139.978 258.758C139.949 259.49 140.163 260.21 140.586 260.807C140.937 261.194 141.368 261.499 141.85 261.701C142.332 261.903 142.852 261.998 143.374 261.977C143.374 261.977 146.746 258.897 149.241 259.336C151.736 259.775 152.321 260.953 152.321 260.953H152.39C152.321 261.477 152.244 261.962 152.159 262.424C151.743 261.777 150.527 260.198 148.656 260.198C146.346 260.198 143.812 262.986 143.812 262.986C143.812 262.986 146.307 264.595 147.624 264.595C148.941 264.595 148.656 262.986 149.534 263.132C150.411 263.278 150.119 264.156 150.558 264.156C151.108 264.057 151.603 263.761 151.951 263.325C151.84 263.769 151.669 264.197 151.443 264.595C150.119 266.651 148.948 266.905 144.251 265.034C139.554 263.163 139.554 261.954 138.969 259.752L138.807 259.128C138.946 258.082 139.181 257.051 139.508 256.048C139.547 254.269 139.316 252.552 138.823 251.959C138.053 251.074 136.767 251.667 136.767 251.667C136.767 251.667 133.695 243.79 133.841 241.441Z" fill="#263238" stroke="#263238" stroke-linecap="round" stroke-linejoin="round"/>
</svg>
