<svg width="404" height="353" viewBox="0 0 404 353" fill="none" xmlns="http://www.w3.org/2000/svg">
<path opacity="0.03" d="M179.964 352.582C80.5726 352.582 0.000152588 339.153 0.000152588 322.588C0.000152588 306.023 80.5726 292.594 179.964 292.594C279.355 292.594 359.927 306.023 359.927 322.588C359.927 339.153 279.355 352.582 179.964 352.582Z" fill="#000001"/>
<path d="M37.0139 0H251.254V37.5902H37.0139V0Z" fill="#A5A5A5"/>
<path d="M36.1785 285.889H250.418V323.479H36.1785V285.889Z" fill="#A5A5A5"/>
<path d="M114.313 158.63C44.3181 138.663 51.9843 37.5903 51.9843 37.5903H238.126C238.126 37.5903 242.941 133.228 173.756 156.83C169.906 158.148 170.035 163.738 173.946 164.849C243.941 184.816 236.274 285.889 236.274 285.889H50.1323C50.1323 285.889 45.3173 190.251 114.503 166.649C118.353 165.331 118.224 159.741 114.313 158.63Z" fill="#E6E6E6"/>
<path opacity="0.08" d="M87.6884 260.832C101.324 258.635 108.689 239.237 131.127 233.965L128.543 142.531C106.751 138.81 90.3069 125.218 79.3589 96.3788C75.2847 85.6548 84.0276 74.3019 95.4063 75.7921C95.5613 75.8093 95.7163 75.8352 95.88 75.861C111.686 78.2039 113.443 98.6873 136.27 92.2529C148.079 88.9194 162.559 80.8914 176.289 77.9628C196.35 73.6904 212.01 94.8715 202.061 112.814C195.248 125.106 182.982 138.672 161.439 142.006C159.708 142.273 158.011 142.497 156.322 142.703L152.05 233.268C154.298 233.561 156.641 233.965 159.105 234.491C179.95 238.979 194.963 244.767 205.171 249.78C216.067 255.129 222.906 266.258 222.906 278.395H64.8621C64.8621 278.395 69.5479 263.76 87.6884 260.832ZM134.512 143.289V233.302C136.468 232.992 138.535 232.785 140.723 232.691L143.273 143.599C140.275 143.634 137.355 143.539 134.521 143.289H134.512Z" fill="#000001"/>
<path d="M276.853 110.437C276.853 110.437 318.294 121.445 306.441 178.278C294.589 235.111 331.111 232.889 362.198 227.945L364.17 242.51C364.17 242.51 282.754 267.68 271.892 196.117C261.021 124.554 276.845 110.437 276.845 110.437H276.853Z" fill="#FDB068"/>
<path opacity="0.46" d="M276.853 110.437C276.853 110.437 318.294 121.445 306.441 178.278C294.589 235.111 331.111 232.889 362.198 227.945L364.17 242.51C364.17 242.51 282.754 267.68 271.892 196.117C261.021 124.554 276.845 110.437 276.845 110.437H276.853Z" fill="white"/>
<path d="M404 143.143V177.985H381.484L376.565 191.854L370.743 177.985H348.235V143.143H404Z" fill="#E6E6E6"/>
<path d="M273.743 71.2787C273.743 71.2787 275.931 79.1775 275.578 84.7678C275.432 87.0332 273.442 88.7818 271.177 88.6009C268.36 88.3769 264.622 87.2658 262.933 83.1743L259.212 76.5848C259.212 76.5848 257.024 72.3727 260.961 68.2639C264.897 64.1552 272.641 66.4034 273.735 71.2787H273.743Z" fill="#F4A28C"/>
<path d="M260.772 78.2222L254.329 104.296L268.955 106.82L267.8 87.3355L260.772 78.2222Z" fill="#F4A28C"/>
<path d="M274.872 76.3262L277.698 79.0137C278.395 79.6769 278.163 80.8398 277.267 81.1843L274.295 82.3385L274.881 76.3262H274.872Z" fill="#F4A28C"/>
<path opacity="0.31" d="M267.826 87.8862C267.826 87.8862 262.839 85.5864 261.469 83.5449C261.469 83.5449 261.753 94.269 268.386 97.3958L267.817 87.8948L267.826 87.8862Z" fill="#CE8172"/>
<path d="M265.595 78.7128C265.595 78.7128 264.957 75.6204 262.675 76.2923C260.392 76.9642 261.279 81.4347 264.527 81.2624L265.595 78.7041V78.7128Z" fill="#F4A28C"/>
<path d="M256.12 74.7587L257.826 77.7132C257.826 77.7132 259.893 85.2932 264.932 89.2124C269.98 93.1317 277.077 92.322 277.68 86.9901C278.378 80.8744 274.278 82.3387 268.8 82.0889C263.313 81.8305 264.157 74.483 264.157 74.483C266.569 74.5175 268.231 73.2254 269.342 71.7697C270.884 69.7369 272.857 68.0916 275.208 67.1011C280.066 65.051 274.14 58.6855 274.14 58.6855C277.387 56.8852 274.898 53.1038 271.754 51.941C268.61 50.7781 267.714 54.4734 265.32 55.1797C262.934 55.886 263.898 52.0788 259.264 53.0177C254.63 53.9566 257.145 57.3762 254.363 59.8742C254.363 59.8742 251.159 57.4365 248.695 62.9923C247.283 66.1622 248.015 67.6523 249.427 68.4793C252.132 70.047 254.561 72.0626 256.12 74.7673V74.7587Z" fill="#24285B"/>
<path d="M220.864 261.986H294.27V323.47H220.864V261.986Z" fill="#A5A5A5"/>
<path d="M194.816 261.986H268.222V323.47H194.816V261.986Z" fill="#E6E6E6"/>
<path d="M269.54 311.084C269.54 311.084 271.573 316.744 276.69 317.174C281.798 317.605 283.141 322.601 278.542 323.91C273.942 325.211 262.09 319.302 262.09 319.302L262.425 311.929L269.54 311.084Z" fill="#FDB068"/>
<path d="M268.954 106.819L254.328 104.295C254.328 104.295 205.686 104.373 197.167 121.023C188.657 137.682 190.44 199.692 218.573 250.591L276.181 252.262C276.181 252.262 272.985 214.878 283.718 194.515C294.451 174.161 327.82 130.903 268.937 106.819H268.954Z" fill="#FDB068"/>
<path d="M218.581 250.591L246.765 246.344C264.199 243.717 279.42 258.24 277.62 275.777L273.942 311.576H260.117L261.314 278.06C261.598 270.066 254.518 263.787 246.627 265.062C234.637 266.991 219.77 266.156 218.59 250.591H218.581Z" fill="#24285B"/>
<path d="M298.224 311.084C298.224 311.084 300.257 316.744 305.373 317.174C310.481 317.605 311.825 322.601 307.225 323.91C302.626 325.211 290.773 319.302 290.773 319.302L291.109 311.929L298.224 311.084Z" fill="#FDB068"/>
<path opacity="0.08" d="M226.093 119.473C226.093 119.473 246.223 132.454 241.537 158.122C236.851 183.783 216.23 230.908 258.618 222.648L256.094 242.27L227.316 239.556L204.025 224.009L198.348 180.871L226.084 119.473H226.093Z" fill="#000001"/>
<path d="M247.265 250.591L275.449 246.344C292.884 243.717 308.104 258.24 306.304 275.777L302.626 311.576H288.801L289.998 278.06C290.282 270.066 283.202 263.787 275.312 265.062C263.321 266.991 248.454 266.156 247.274 250.591H247.265Z" fill="#24285B"/>
<path d="M229.142 127.854C227.79 113.064 209.425 106.759 199.597 117.905C194.928 123.202 191.19 130.972 190.449 142.351C188.227 176.711 160.525 278.103 268.946 246.094L266.189 233.337C266.189 233.337 233.009 240.736 215.61 224.086C201.113 210.209 232.553 165.272 229.125 127.854H229.142Z" fill="#FDB068"/>
<path opacity="0.46" d="M229.142 127.854C227.79 113.064 209.425 106.759 199.597 117.905C194.928 123.202 191.19 130.972 190.449 142.351C188.227 176.711 160.525 278.103 268.946 246.094L266.189 233.337C266.189 233.337 233.009 240.736 215.61 224.086C201.113 210.209 232.553 165.272 229.125 127.854H229.142Z" fill="white"/>
<path d="M299.163 248.255L316.967 199.45H264.57L253.7 245.353L240.702 247.575V253.863L299.163 248.255Z" fill="#FFD200"/>
<path d="M284.132 226.954C281.207 226.954 278.835 224.582 278.835 221.656C278.835 218.731 281.207 216.359 284.132 216.359C287.058 216.359 289.43 218.731 289.43 221.656C289.43 224.582 287.058 226.954 284.132 226.954Z" fill="white"/>
<path opacity="0.08" d="M309.25 220.606L264.51 251.581L299.163 248.256L309.25 220.606Z" fill="#000001"/>
<path d="M274.286 109.171C274.286 109.171 275.828 104.381 268.954 100.867C262.081 97.3527 248.755 92.5117 244.13 105.019C244.13 105.019 259.109 114.692 274.295 109.171H274.286Z" fill="#FDB068"/>
<path opacity="0.46" d="M274.286 109.171C274.286 109.171 275.828 104.381 268.954 100.867C262.081 97.3527 248.755 92.5117 244.13 105.019C244.13 105.019 259.109 114.692 274.295 109.171H274.286Z" fill="white"/>
<path d="M362.206 227.945C362.206 227.945 371.827 220.055 375.531 225.24C379.235 230.426 364.179 239.306 364.179 239.306L362.206 227.945Z" fill="#F4A28C"/>
<path d="M358.246 219.075L376.884 200.438L387.836 211.389L369.198 230.027L358.246 219.075Z" fill="#FFD200"/>
<path d="M260.874 75.5168C260.874 75.5168 256.895 73.1652 255.413 76.3265C253.932 79.4963 258.376 81.9771 261.391 80.0476C261.391 80.0476 260.22 78.0148 260.866 75.5168H260.874Z" fill="#F4A28C"/>
<path d="M389.598 163.98C387.272 163.98 385.386 162.094 385.386 159.768C385.386 157.441 387.272 155.556 389.598 155.556C391.924 155.556 393.81 157.441 393.81 159.768C393.81 162.094 391.924 163.98 389.598 163.98Z" fill="#A5A5A5"/>
<path d="M376.583 163.98C374.257 163.98 372.371 162.094 372.371 159.768C372.371 157.441 374.257 155.556 376.583 155.556C378.909 155.556 380.795 157.441 380.795 159.768C380.795 162.094 378.909 163.98 376.583 163.98Z" fill="#A5A5A5"/>
<path d="M363.903 163.98C361.577 163.98 359.691 162.094 359.691 159.768C359.691 157.441 361.577 155.556 363.903 155.556C366.229 155.556 368.115 157.441 368.115 159.768C368.115 162.094 366.229 163.98 363.903 163.98Z" fill="#A5A5A5"/>
</svg>
