<svg width="87" height="64" viewBox="0 0 87 64" fill="none" xmlns="http://www.w3.org/2000/svg">
<g clip-path="url(#clip0_490_3217)">
<rect width="87" height="64" rx="8" fill="#1A1A1A"/>
<path d="M91.1198 -0.962891C91.0539 -0.408031 91.0209 0.109838 91.0209 0.590717C91.0209 1.77442 91.1528 2.73617 91.4825 3.58696C92.1088 4.95561 92.1418 5.28853 95.9659 13.3895C96.6253 14.7951 96.856 16.0528 96.856 17.2735C96.889 20.5287 94.911 23.4879 93.5264 25.1155L87.7243 12.3537L76.153 -0.962891H91.1198Z" fill="#E0DBD5"/>
<path d="M25.7069 99.5694L24.1575 101.641L16.4433 82.6647C17.2345 82.1468 18.0587 81.555 18.9488 80.9261C23.0367 77.8929 27.685 73.8979 29.9267 69.2741C31.2783 66.4628 34.0805 61.0252 37.1793 55.0697L44.1353 59.5825L45.3551 57.0672L38.3991 52.5913C39.0584 51.3336 39.7178 50.0389 40.3771 48.7812L59.7285 61.8389L47.2671 75.6735L38.9925 66.3888L37.1793 68.4233L45.421 77.6709L41.1024 82.4427L35.1024 76.1173L33.3552 78.1888L39.2892 84.4402L25.7069 99.5694Z" fill="#E0DBD5"/>
<path d="M10.9453 34.8434L14.209 31.0703L38.2417 47.2722C37.5824 48.5669 36.8901 49.8616 36.2307 51.1562L10.9453 34.8434Z" fill="#E0DBD5"/>
<path d="M47.6699 29.3691C46.582 31.4406 43.681 36.9152 40.4173 43.2036L17.2747 27.5935L31.6811 11.0957L47.6699 29.3691Z" fill="#E0DBD5"/>
<path d="M34.9119 7.397L40.0877 12.0208L53.9336 -0.962891H72.5928L85.6146 14.0923L91.5815 27.15L62.9335 58.4071L42.5931 44.6836C45.5601 39.024 48.1975 34.0303 49.4832 31.5519L63.1973 47.1619L65.0104 45.1645L33.4614 9.06158L34.9119 7.397Z" fill="#E0DBD5"/>
<path d="M0.0663681 47.3827L9.13219 36.9883L34.978 53.6711C31.8792 59.6266 29.11 65.0642 27.7254 67.9495C25.5825 72.4623 19.7804 77.1231 15.4288 80.0824L10.1212 67.0617L19.4837 60.8103L18.165 58.3319L9.0333 64.4353L3.5938 51.0817L1.28614 52.2654L6.5608 65.2491L4.64873 65.656L0.0663681 54.041V47.3827Z" fill="#E0DBD5"/>
<path d="M0.0657427 61.1074L3.98877 70.9839L0.0657427 72.9444V61.1074Z" fill="#E0DBD5"/>
<path d="M65.2077 59.9248L92.8008 29.8145L99.1963 43.8709L98.8337 44.0928L98.471 44.7957C98.471 44.8327 89.7678 61.0716 83.7679 72.4647L65.2077 59.9248Z" fill="#E0DBD5"/>
<path d="M27.1978 0.737385C21.0989 7.98755 14.5056 14.5719 7.91227 21.3042L7.87931 21.2672L26.8351 -0.150391C26.8681 -0.00242801 26.9011 0.108544 26.934 0.219516C27 0.404469 27.0989 0.589422 27.1978 0.737385Z" fill="#E0DBD5"/>
<path d="M57.9555 119.663L46.549 80.601L62.0763 63.4004L81.6255 76.5691C80.2409 79.1954 79.153 81.3039 78.5926 82.4136C76.7135 86.1866 76.3508 90.0707 76.3508 92.734C76.3508 94.6205 76.5486 95.9152 76.6146 96.3221C76.6475 96.655 76.8453 98.2086 77.1091 100.687L70.252 103.683L71.4718 119.996L57.9555 119.663Z" fill="#E0DBD5"/>
<path d="M0.0661769 21.5996L1.05518 22.2654L0.0661769 23.3752V21.5996Z" fill="#E0DBD5"/>
<path d="M19.1211 -0.962891H19.3519L20.1431 0.664698L4.15425 18.7531L0.0663891 16.0528V11.503L5.20919 14.6472L19.1211 -0.962891Z" fill="#E0DBD5"/>
<path d="M53.9331 -0.962891L40.0871 12.0208L34.9114 7.397L42.23 -0.962891H53.9331Z" fill="#DCD8BA"/>
<path d="M19.1211 -0.962891L5.20918 14.6472L0.0663834 11.503V0.035857L0.725716 -0.962891H19.1211Z" fill="#CCC2B8"/>
<path d="M0.0659418 30.2207L4.8461 24.7461L10.4834 28.5561L0.0659418 40.5411V30.2207Z" fill="#8095B2"/>
<path d="M27.1978 0.738679C27.066 0.590717 26.9671 0.405763 26.9341 0.257801C26.9012 0.109838 26.8682 -0.0011338 26.8352 -0.112106L27.5605 -0.962891H36.2637L13.5497 25.0785L7.94534 21.3055C14.5387 14.6102 21.132 7.98885 27.1978 0.738679Z" fill="#8BBBB9"/>
<path d="M20.1427 0.664698L19.3515 -0.962891H27.5602L26.8349 -0.149096L7.91208 21.2685L7.94505 21.3055L13.5494 25.0785L36.2634 -0.962891H42.2303L34.9118 7.397L33.4612 9.06158L65.0103 45.1645L63.1971 47.1619L49.483 31.5519C48.1973 33.9933 45.56 39.024 42.593 44.6836L62.9334 58.4071L91.5814 27.15L85.6144 14.0923L72.5926 -0.962891H76.153L87.7243 12.3907L93.5264 25.1525C94.911 23.5249 96.922 20.5657 96.8561 17.3105C96.8561 16.0898 96.6253 14.8321 95.966 13.4265C92.1418 5.32552 92.1089 4.9926 91.4825 3.62395C91.1199 2.77316 91.021 1.81141 91.021 0.627707C91.021 0.109838 91.0539 -0.408031 91.1199 -0.9259H93.6913C93.5924 -0.408031 93.5594 0.146829 93.5594 0.627707C93.5594 1.47849 93.7242 2.29229 93.7572 2.36627C94.4165 3.84589 94.3836 3.99386 98.2077 12.1318C99.0648 13.9074 99.3945 15.6829 99.3945 17.3475C99.3285 22.4892 96.2956 26.2252 94.7132 27.8528L101.438 42.6121L120.658 31.219L107.702 -0.962891H111.427L145.943 84.8554V94.1401L140.965 81.7112L126.526 88.7024L128.669 98.357L145.943 108.234V118.665L97.8451 86.1131L94.3506 84.1156L90.988 89.9601L92.3726 109.824L101.999 105.94L102.856 108.64L92.5704 112.82L93.1308 120.625L145.943 122.105V126.877L93.4935 125.397L96.0648 155.951L145.943 140.748V143.708L89.043 161.093C89.1748 162.388 89.3397 163.682 89.4715 164.94C89.6364 166.346 89.7682 167.751 89.9331 169.12C90.7243 176.555 91.4166 183.14 91.8781 187.874C92.999 199.378 95.5044 210.217 97.7132 218.096C98.834 222.054 99.889 225.272 100.647 227.528C101.405 229.748 101.867 230.968 101.867 230.968C101.867 230.968 103.416 234.89 105.955 241.289L105.889 240.697L145.943 235.148V238.034L127.581 240.586L128.339 264.778L145.943 260.265V263.187L117.394 270.548C119.669 276.356 122.043 282.496 124.449 288.674L137.57 281.239L138.724 283.791L125.504 291.3C126.757 294.518 128.01 297.774 129.262 300.992L145.943 292.854V295.961L140.24 298.735L143.801 308.686L141.427 309.759L137.867 299.919L130.251 303.655C131.702 307.428 133.152 311.164 134.537 314.789H128.966C128.834 314.493 128.735 314.16 128.603 313.865L127.185 314.789H122.207L127.614 311.201C123.922 301.621 119.999 291.522 116.273 281.905C114.46 277.244 112.68 272.731 110.999 268.403L92.5374 273.138L95.966 310.313L115.845 298.772L116.636 300.474L96.1308 312.385L96.1967 314.789H94.4824L94.4495 313.384L92.01 314.789H88.3177L94.3836 311.275L92.8012 294.259L65.0433 309.389L66.7245 314.752H64.9114L63.4938 310.202L55.1862 314.752H51.2962L62.9334 308.39L56.2082 286.898L35.3074 295.48L42.9556 314.715H41.0765L38.1425 307.354L36.8898 308.057L25.1536 314.678H21.3295L36.1645 306.392L37.4502 305.653L33.659 296.146L11.8022 303.914L16.0548 314.752H13.2527L9.36263 304.765L4.35168 306.54C4.87915 309.056 5.63739 311.83 6.56046 314.715H3.85719C3.06599 312.163 2.40666 309.685 1.91216 307.391L0.0660248 308.057V306.06L8.67032 302.989L5.50552 294.888L0.0660248 297.034V294.999L4.81322 293.113L0.923157 283.125L0.0660248 283.495V272.213L2.10997 278.575L11.5714 274.691L0.0660248 235.777V226.641L13.945 273.73L17.3405 272.324L9.23074 246.283L11.6373 245.358L19.7141 271.362L22.8789 270.068L20.9669 209.995L0.0330658 218.873V216.838L20.9009 207.997V207.886L18.824 186.099L18.7911 185.618L20.4724 185.433L20.5053 185.618L22.5822 207.294L43.6149 198.38L40.8128 182.363L42.4941 181.993L45.8237 201.08L61.8785 195.236L62.1752 195.199L59.8016 179.145L61.4828 178.849L63.8894 194.94L69.7904 193.978L69.7575 193.756L67.7795 176.555L69.4608 176.296L71.4388 193.46L71.4717 193.719L79.7134 192.424L77.142 175.63L78.8233 175.298L85.3507 217.689L86.4716 245.358L86.9001 247.318L100.845 242.584C98.5703 236.813 97.1857 233.299 97.1857 233.299C97.1198 233.151 89.1089 212.584 86.7683 188.54C86.3067 183.916 85.6474 177.517 84.8562 170.23C84.7243 168.861 84.5595 167.493 84.3947 166.087C84.2628 164.829 84.1309 163.572 83.9661 162.277C77.4057 163.609 63.7246 166.272 51.0654 168.158C33.7909 170.748 9.06592 178.183 0.527557 181.919C0.362732 181.993 0.197891 182.067 0.0330658 182.141V179.071C8.01099 175.667 27.0987 169.86 43.3182 166.642L39.7908 147.37L48.7248 146.186L45.3622 133.498L45.56 124.103L37.9117 123.881L40.6479 142.376L38.1425 142.857L35.3074 123.807L21.9229 123.437L31.681 162.758L29.2085 163.535L19.2526 123.363L9.72525 123.104L17.2087 149.441H17.2416L21.9559 166.05L22.0877 166.531L19.6482 167.419L15.5603 153.029L9.15527e-05 158.356V155.36L6.95605 152.992L14.7691 150.329L14.7032 150.144L13.7142 146.63L7.02199 123.067L9.15527e-05 122.882V118.11L1.8792 118.147L1.71436 112.635L1.18689 111.008L9.15527e-05 111.267V108.344L0.329758 108.271L9.15527e-05 107.309V104.682L1.64842 104.017L4.28575 112.118L4.51653 118.147L11.5714 118.332L18.857 108.677L4.97806 73.5733L0.0330658 76.0147V72.8705L3.92313 70.9469L0.0330658 61.0704V54.0052L4.61542 65.6203L6.5275 65.2134L1.25282 52.2297L3.56049 51.046L8.99998 64.3996L18.1317 58.2961L19.4504 60.7745L10.0879 67.0259L15.3955 80.0836C19.7471 77.1244 25.5492 72.4266 27.6921 67.9507C29.0767 65.1024 31.8788 59.6278 34.9447 53.6723L9.09888 36.9895L0.0660248 47.3839V40.5406L10.4835 28.5557L4.84619 24.7456L0.098999 30.1832V23.377L1.088 22.2302L0.098999 21.5644V16.0528L4.18686 18.7531L20.1427 0.664698ZM116.372 267.848L126.196 265.333H125.834L125.043 240.919L106.812 243.471C109.35 249.945 112.68 258.416 116.372 267.848ZM57.2302 284.457L65.2081 281.165L65.8015 282.94L57.8236 286.233L64.5158 307.539L80.9991 298.55L77.8013 291.078L79.3508 290.264L82.5485 297.737L92.6693 292.225L90.955 273.878L85.5815 276.763L86.1749 280.166C86.3397 280.499 86.6694 281.313 86.6694 282.385C86.7023 283.939 85.9441 286.048 83.5375 287.823C81.2299 289.562 77.4717 291.189 71.1421 292.373L73.7135 302.471L72.0651 302.989L69.23 291.892L63.8565 277.17L62.1752 272.546L62.2411 272.509L54.4939 275.579L55.9445 280.203L57.2302 284.457ZM84.9221 282.385C84.9221 281.942 84.8232 281.609 84.7573 281.35C84.7243 281.239 84.6914 281.128 84.6584 281.091C84.6254 281.054 84.6254 281.054 84.6254 281.054L84.5265 280.906L83.3727 274.507C82.8123 273.397 82.1859 272.472 81.5595 271.732C79.4167 269.143 76.9442 268.44 74.6365 268.403C72.8893 268.403 71.241 268.847 70.0542 269.328C68.8674 269.772 68.1421 270.253 68.1421 270.216L68.0762 270.253L63.7246 271.954L68.8344 285.937L70.5487 290.597C76.8783 289.414 80.5376 287.786 82.5485 286.27C84.5925 284.679 84.9221 283.31 84.9221 282.385ZM34.5821 293.779L55.6148 285.123L54.2961 280.869L52.8456 276.245L34.4502 283.495L30.8569 284.901L34.5821 293.779ZM68.5048 252.053L65.5378 235L52.7137 242.14L58.4499 256.122L58.7796 256.899L68.7685 253.496L68.5048 252.053ZM70.1201 251.387L70.3839 252.941L78.6914 250.093L78.098 248.132L72.8893 230.858L67.0872 234.076L70.1201 251.387ZM37.9777 247.651L34.4173 236.48L23.8679 242.214L23.7361 241.881L24.1317 254.753L37.9777 247.651ZM24.1976 256.862L24.5602 268.551L44.2743 261.819L48.9885 260.228L48.9226 259.969L45.3622 245.95L24.1976 256.862ZM39.5271 246.837L44.8677 244.063L41.4721 232.596L35.9667 235.592L39.5271 246.837ZM46.4171 243.286L50.6039 241.104L48.6588 228.675L42.9886 231.782L46.4171 243.286ZM52.2192 240.253L65.1751 233.04L63.0653 221.018L62.34 221.24L50.2412 227.824L52.2192 240.253ZM56.8346 256.751L51.1643 242.916L46.9446 245.099L50.5709 259.266L50.6698 259.636L57.1642 257.417L56.8346 256.751ZM49.6478 263.002L28.747 270.142L25.1536 271.362L30.1316 283.199L33.692 281.794L52.3181 274.432L49.6478 263.002ZM11.1098 302.139L32.9338 294.37L29.2085 285.53L7.91208 293.927L11.1098 302.139ZM3.32973 282.164L7.25275 292.188L28.5162 283.791L24.2306 273.545L3.32973 282.164ZM43.9446 200.266L22.6811 209.255L23.6701 240.179L33.7909 234.668L27.2635 218.503L28.8129 217.726L35.3074 233.854L40.8457 230.821L34.0546 214.36L35.604 213.546L42.3952 229.97L48.3951 226.715L46.7797 216.357L43.9446 200.266ZM62.4719 197.048L62.2411 197.085L46.1204 202.93L47.8347 212.658L64.4828 210.624L62.4719 197.048ZM79.9771 194.311L71.8014 195.605L74.5047 209.662L72.8563 210.069L70.1201 195.864L64.1532 196.826L66.4608 212.325L48.1643 214.582L48.4281 216.098L49.9775 225.938L61.7796 219.501L82.9112 213.176L79.9771 194.311ZM83.6364 217.911L83.1749 215.026L64.7136 220.537L66.7575 232.152L80.109 224.717L84.4276 237.997L83.6364 217.911ZM84.7573 245.617L84.6254 242.769L84.2298 242.916L79.153 227.38L74.4387 230.007L79.7134 247.466L80.3398 249.501L84.5595 248.058L85.2848 247.799L84.7573 245.617ZM85.9111 250.648L85.3507 250.832L51.2962 262.448L53.9335 273.804L67.4168 268.477C67.9443 268.181 70.9443 266.48 74.6365 266.48C77.0761 266.443 79.8123 267.256 82.1859 269.698C83.1749 270.733 84.1309 272.028 84.9221 273.693L84.9881 273.804V273.841L90.4276 270.918L89.5375 266.923L88.2518 261.264L85.9111 250.648ZM87.5265 250.093L92.0759 270.29L109.944 265.74C107.306 259.007 104.9 252.904 102.922 247.836C102.559 246.911 102.23 246.061 101.9 245.21L87.5265 250.093ZM47.6698 29.3694L31.681 11.0961L17.2746 27.5939L40.4172 43.2039C43.7138 36.9155 46.5819 31.4409 47.6698 29.3694ZM62.0763 63.3639L46.549 80.5645L57.9554 119.627L71.4388 119.997L70.219 103.684L77.0761 100.687C76.7794 98.209 76.6145 96.6554 76.5816 96.3225C76.5156 95.9156 76.3178 94.584 76.3178 92.7344C76.3178 90.0341 76.6805 86.1871 78.5596 82.414C79.12 81.3043 80.2079 79.1959 81.5925 76.5695L62.0763 63.3639ZM72.9223 105.607L74.0102 120.108L79.3178 120.255C78.5596 113.634 77.9002 107.864 77.4057 103.647L72.9223 105.607ZM92.8012 29.8133L65.2081 59.9237L83.7683 72.4636C89.7682 61.0704 98.4714 44.7945 98.4714 44.7945L98.834 44.0917L99.1967 43.8698L92.8012 29.8133ZM139.91 79.1219L122.768 36.4716L107.471 45.4974L125.471 86.1131L139.91 79.1219ZM125.636 96.6554L124.119 89.8492L118.515 92.5865L125.636 96.6554ZM99.889 81.9701L115.581 90.9219L123.13 87.2598L105.197 46.829L102.493 48.4196C101.372 50.5281 97.8121 57.1864 93.9879 64.3626C92.2078 67.7288 90.3616 71.2059 88.6803 74.3871L99.889 81.9701ZM88.7133 158.245L93.5594 156.765L90.9221 125.36L85.021 125.212C86.2078 135.57 87.5265 147.333 88.7133 158.245ZM84.4936 120.403L90.5594 120.588L88.3507 89.2573L92.0429 82.8579L86.043 79.4178C84.6584 82.0441 83.5705 84.1526 83.043 85.2253C81.7573 87.8147 81.4277 90.6999 81.4277 92.7714C81.4277 93.5852 81.4606 94.288 81.5266 94.7319C81.5595 94.9539 81.5595 95.1388 81.5925 95.2498C81.5925 95.3608 81.6255 95.3608 81.6255 95.3608L81.6584 95.4717V95.5827C81.6255 95.5457 82.8782 106.125 84.4936 120.403ZM83.7024 159.392C82.7793 150.958 81.7903 142.006 80.8343 133.572C80.5046 130.65 80.1749 127.802 79.8782 125.027L74.3728 124.879L77.0431 160.723C79.6804 160.205 81.9551 159.761 83.7024 159.392ZM51.3621 145.816H51.428L55.3181 160.76V160.834L52.8786 161.648V161.611L49.516 148.96L42.8897 149.811L45.8567 166.124C47.538 165.828 49.1863 165.532 50.7357 165.31C58.9444 164.089 67.6146 162.499 74.4717 161.204L71.7684 124.805L52.6478 124.287L53.439 132.055L56.6038 144.114L54.1643 144.928L50.9335 132.647L50.0764 124.25L48.3621 124.213L48.1643 124.25L47.9665 133.128L51.3621 145.816ZM14.868 118.443L55.2522 119.59L44.538 82.8579L27.6261 101.612L14.868 118.443ZM7.64835 67.9137L5.70332 68.3206L11.3736 82.636C11.6703 82.451 11.9999 82.2661 12.3955 82.0441C12.6593 81.8962 12.923 81.7112 13.2197 81.5633L7.64835 67.9137ZM14.2417 84.1156C13.5164 84.5595 12.89 84.9664 12.3955 85.2253L20.7031 106.236L22.3515 104.054L14.2417 84.1156ZM29.9338 69.2824C27.6921 73.8692 23.0438 77.9012 18.9559 80.9344C18.0988 81.5632 17.2416 82.1551 16.4504 82.673L24.1646 101.649L25.7141 99.5777L39.3952 84.4855L33.4612 78.2341L35.2085 76.1626L41.2084 82.488L45.527 77.7162L37.2853 68.4686L39.0985 66.4341L47.3731 75.7187L59.8345 61.8842L40.4831 48.8265C39.8238 50.0842 39.1645 51.3789 38.5051 52.6366L45.3951 57.1124L44.1094 59.5908L37.1535 55.0779C34.0876 61.0334 31.2854 66.4711 29.9338 69.2824ZM36.2304 51.1939C36.8898 49.8993 37.582 48.6046 38.2414 47.3099L14.2087 31.108L10.945 34.8811L36.2304 51.1939Z" fill="white"/>
<path d="M44.6177 41.367C44.1841 41.773 43.6044 42 43.0011 42C42.3978 42 41.8182 41.773 41.3845 41.367C37.413 37.626 32.0908 33.4469 34.6863 27.3797C36.0896 24.0992 39.4583 22 43.0011 22C46.5439 22 49.9126 24.0992 51.316 27.3797C53.9082 33.4393 48.599 37.6389 44.6177 41.367Z" fill="#1A1A1A"/>
<path d="M46.5 31C46.5 32.933 44.933 34.5 43 34.5C41.067 34.5 39.5 32.933 39.5 31C39.5 29.067 41.067 27.5 43 27.5C44.933 27.5 46.5 29.067 46.5 31Z" fill="white"/>
</g>
<defs>
<clipPath id="clip0_490_3217">
<rect width="87" height="64" rx="8" fill="white"/>
</clipPath>
</defs>
</svg>
