<svg width="335" height="185" viewBox="0 0 335 185" fill="none" xmlns="http://www.w3.org/2000/svg">
<rect width="335" height="185" rx="20" fill="url(#paint0_linear_1639_5903)"/>
<g filter="url(#filter0_b_1639_5903)">
<rect width="335" height="185" rx="20" fill="white" fill-opacity="0.03"/>
</g>
<path fill-rule="evenodd" clip-rule="evenodd" d="M257.364 185C264.87 166.301 269 145.883 269 124.5C269 74.5193 246.435 29.8088 210.938 0H20C8.95431 0 0 8.9543 0 20V165C0 176.046 8.95431 185 20 185H257.364Z" fill="white" fill-opacity="0.06"/>
<path fill-rule="evenodd" clip-rule="evenodd" d="M239.635 185C245.699 167.964 249 149.617 249 130.5C249 77.0432 223.188 29.6152 183.347 0H20C8.95431 0 0 8.9543 0 20V165C0 176.046 8.95431 185 20 185H239.635Z" fill="white" fill-opacity="0.06"/>
<path opacity="0.9" d="M30.144 46.24C29.3653 46.24 28.656 46.112 28.016 45.856C27.376 45.6 26.8267 45.2267 26.368 44.736C25.9093 44.2453 25.552 43.6427 25.296 42.928C25.0507 42.2027 24.928 41.376 24.928 40.448C24.928 39.52 25.0667 38.6987 25.344 37.984C25.632 37.2587 26.016 36.6507 26.496 36.16C26.976 35.6693 27.536 35.296 28.176 35.04C28.816 34.784 29.4987 34.656 30.224 34.656C30.6827 34.656 31.0933 34.688 31.456 34.752C31.8293 34.816 32.1493 34.8907 32.416 34.976C32.6933 35.0613 32.9173 35.1467 33.088 35.232C33.2587 35.3173 33.376 35.3813 33.44 35.424L32.992 36.704C32.896 36.64 32.7573 36.5707 32.576 36.496C32.3947 36.4213 32.1867 36.3467 31.952 36.272C31.728 36.1973 31.4773 36.1387 31.2 36.096C30.9333 36.0427 30.6613 36.016 30.384 36.016C29.7973 36.016 29.2693 36.1173 28.8 36.32C28.3307 36.5227 27.9307 36.816 27.6 37.2C27.2693 37.584 27.0133 38.0533 26.832 38.608C26.6613 39.152 26.576 39.7653 26.576 40.448C26.576 41.1093 26.6507 41.712 26.8 42.256C26.96 42.8 27.1947 43.2693 27.504 43.664C27.8133 44.048 28.1973 44.3467 28.656 44.56C29.1253 44.7733 29.6693 44.88 30.288 44.88C31.0027 44.88 31.5947 44.8053 32.064 44.656C32.5333 44.5067 32.8853 44.3733 33.12 44.256L33.52 45.536C33.4453 45.5893 33.312 45.6587 33.12 45.744C32.928 45.8187 32.688 45.8933 32.4 45.968C32.112 46.0427 31.776 46.1067 31.392 46.16C31.008 46.2133 30.592 46.24 30.144 46.24ZM38.2739 37.504C38.4019 37.504 38.5459 37.5147 38.7059 37.536C38.8765 37.5467 39.0419 37.568 39.2019 37.6C39.3619 37.6213 39.5059 37.648 39.6339 37.68C39.7725 37.7013 39.8739 37.7227 39.9379 37.744L39.6819 39.04C39.5645 38.9973 39.3672 38.9493 39.0899 38.896C38.8232 38.832 38.4765 38.8 38.0499 38.8C37.7725 38.8 37.4952 38.832 37.2179 38.896C36.9512 38.9493 36.7752 38.9867 36.6899 39.008V46H35.2019V38.032C35.5539 37.904 35.9912 37.7867 36.5139 37.68C37.0365 37.5627 37.6232 37.504 38.2739 37.504ZM40.9098 41.856C40.9098 41.12 41.0164 40.48 41.2298 39.936C41.4431 39.3813 41.7258 38.9227 42.0778 38.56C42.4298 38.1973 42.8351 37.9253 43.2938 37.744C43.7524 37.5627 44.2218 37.472 44.7018 37.472C45.8218 37.472 46.6804 37.824 47.2778 38.528C47.8751 39.2213 48.1737 40.2827 48.1737 41.712C48.1737 41.776 48.1737 41.8613 48.1737 41.968C48.1737 42.064 48.1684 42.1547 48.1578 42.24H42.4618C42.5258 43.104 42.7764 43.76 43.2138 44.208C43.6511 44.656 44.3338 44.88 45.2618 44.88C45.7844 44.88 46.2218 44.8373 46.5738 44.752C46.9364 44.656 47.2084 44.5653 47.3898 44.48L47.5978 45.728C47.4164 45.824 47.0964 45.9253 46.6378 46.032C46.1898 46.1387 45.6778 46.192 45.1018 46.192C44.3764 46.192 43.7471 46.0853 43.2138 45.872C42.6911 45.648 42.2591 45.344 41.9178 44.96C41.5764 44.576 41.3204 44.1227 41.1497 43.6C40.9898 43.0667 40.9098 42.4853 40.9098 41.856ZM46.6218 41.04C46.6324 40.368 46.4618 39.8187 46.1098 39.392C45.7684 38.9547 45.2938 38.736 44.6858 38.736C44.3444 38.736 44.0404 38.8053 43.7738 38.944C43.5178 39.072 43.2991 39.2427 43.1178 39.456C42.9364 39.6693 42.7924 39.9147 42.6858 40.192C42.5898 40.4693 42.5258 40.752 42.4938 41.04H46.6218ZM55.6873 39.44C55.5059 39.2907 55.2446 39.1467 54.9033 39.008C54.5619 38.8693 54.1886 38.8 53.7833 38.8C53.3566 38.8 52.9886 38.88 52.6793 39.04C52.3806 39.1893 52.1353 39.4027 51.9433 39.68C51.7513 39.9467 51.6126 40.2667 51.5273 40.64C51.4419 41.0133 51.3993 41.4133 51.3993 41.84C51.3993 42.8107 51.6393 43.5627 52.1193 44.096C52.5993 44.6187 53.2393 44.88 54.0393 44.88C54.4446 44.88 54.7806 44.864 55.0473 44.832C55.3246 44.7893 55.5379 44.7467 55.6873 44.704V39.44ZM55.6873 33.84L57.1753 33.584V45.76C56.8339 45.856 56.3966 45.952 55.8633 46.048C55.3299 46.144 54.7166 46.192 54.0233 46.192C53.3833 46.192 52.8073 46.0907 52.2953 45.888C51.7833 45.6853 51.3459 45.3973 50.9833 45.024C50.6206 44.6507 50.3379 44.1973 50.1353 43.664C49.9433 43.12 49.8473 42.512 49.8473 41.84C49.8473 41.2 49.9273 40.6133 50.0872 40.08C50.2579 39.5467 50.5033 39.088 50.8233 38.704C51.1433 38.32 51.5326 38.0213 51.9913 37.808C52.4606 37.5947 52.9939 37.488 53.5913 37.488C54.0713 37.488 54.4926 37.552 54.8553 37.68C55.2286 37.808 55.5059 37.9307 55.6873 38.048V33.84ZM61.2211 46H59.7331V37.68H61.2211V46ZM60.4691 36.176C60.2025 36.176 59.9731 36.0907 59.7811 35.92C59.5998 35.7387 59.5091 35.4987 59.5091 35.2C59.5091 34.9013 59.5998 34.6667 59.7811 34.496C59.9731 34.3147 60.2025 34.224 60.4691 34.224C60.7358 34.224 60.9598 34.3147 61.1411 34.496C61.3331 34.6667 61.4291 34.9013 61.4291 35.2C61.4291 35.4987 61.3331 35.7387 61.1411 35.92C60.9598 36.0907 60.7358 36.176 60.4691 36.176ZM65.172 37.68H68.324V38.928H65.172V42.768C65.172 43.184 65.204 43.5307 65.268 43.808C65.332 44.0747 65.428 44.288 65.556 44.448C65.684 44.5973 65.844 44.704 66.036 44.768C66.228 44.832 66.452 44.864 66.708 44.864C67.156 44.864 67.5133 44.816 67.78 44.72C68.0573 44.6133 68.2493 44.5387 68.356 44.496L68.644 45.728C68.4947 45.8027 68.2333 45.8933 67.86 46C67.4867 46.1173 67.06 46.176 66.58 46.176C66.0147 46.176 65.5453 46.1067 65.172 45.968C64.8093 45.8187 64.516 45.6 64.292 45.312C64.068 45.024 63.908 44.672 63.812 44.256C63.7267 43.8293 63.684 43.3387 63.684 42.784V35.36L65.172 35.104V37.68Z" fill="white"/>
<circle cx="278" cy="47.9414" r="15" fill="#EB001B"/>
<circle cx="296" cy="47.9414" r="15" fill="#F79E1B"/>
<path fill-rule="evenodd" clip-rule="evenodd" d="M287 59.9414C291.141 57.5461 293.927 53.0691 293.927 47.9414C293.927 42.8137 291.141 38.3367 287 35.9414C282.859 38.3367 280.073 42.8137 280.073 47.9414C280.073 53.0691 282.859 57.5461 287 59.9414Z" fill="#FF5F00"/>
<defs>
<filter id="filter0_b_1639_5903" x="-80" y="-80" width="495" height="345" filterUnits="userSpaceOnUse" color-interpolation-filters="sRGB">
<feFlood flood-opacity="0" result="BackgroundImageFix"/>
<feGaussianBlur in="BackgroundImageFix" stdDeviation="40"/>
<feComposite in2="SourceAlpha" operator="in" result="effect1_backgroundBlur_1639_5903"/>
<feBlend mode="normal" in="SourceGraphic" in2="effect1_backgroundBlur_1639_5903" result="shape"/>
</filter>
<linearGradient id="paint0_linear_1639_5903" x1="-85" y1="-38.5" x2="382" y2="205.5" gradientUnits="userSpaceOnUse">
<stop offset="0.0364583"/>
<stop offset="0.878935" stop-color="#0FB8B8"/>
</linearGradient>
</defs>
</svg>
