<svg width="404" height="353" viewBox="0 0 404 353" fill="none" xmlns="http://www.w3.org/2000/svg">
<path opacity="0.03" d="M224.036 352.582C323.427 352.582 404 339.153 404 322.588C404 306.023 323.427 292.594 224.036 292.594C124.645 292.594 44.0728 306.023 44.0728 322.588C44.0728 339.153 124.645 352.582 224.036 352.582Z" fill="#000001"/>
<path d="M366.986 0H152.746V37.5902H366.986V0Z" fill="#A5A5A5"/>
<path d="M367.822 285.889H153.582V323.479H367.822V285.889Z" fill="#A5A5A5"/>
<path d="M289.687 158.63C359.682 138.663 352.016 37.5903 352.016 37.5903H165.874C165.874 37.5903 161.059 133.228 230.244 156.83C234.094 158.148 233.965 163.738 230.054 164.849C160.059 184.816 167.726 285.889 167.726 285.889H353.868C353.868 285.889 358.683 190.251 289.497 166.649C285.647 165.331 285.776 159.741 289.687 158.63Z" fill="#E6E6E6"/>
<path opacity="0.08" d="M316.312 260.832C302.676 258.635 295.311 239.237 272.873 233.965L275.457 142.531C297.249 138.81 313.693 125.218 324.641 96.3788C328.715 85.6548 319.972 74.3019 308.594 75.7921C308.439 75.8093 308.284 75.8352 308.12 75.861C292.314 78.2039 290.557 98.6873 267.73 92.2529C255.921 88.9194 241.441 80.8914 227.711 77.9628C207.65 73.6904 191.99 94.8715 201.939 112.814C208.752 125.106 221.018 138.672 242.561 142.006C244.292 142.273 245.989 142.497 247.678 142.703L251.95 233.268C249.702 233.561 247.359 233.965 244.895 234.491C224.05 238.979 209.037 244.767 198.829 249.78C187.933 255.129 181.094 266.258 181.094 278.395H339.138C339.138 278.395 334.452 263.76 316.312 260.832ZM269.488 143.289V233.302C267.532 232.992 265.465 232.785 263.277 232.691L260.727 143.599C263.725 143.634 266.645 143.539 269.479 143.289H269.488Z" fill="#000001"/>
<path d="M127.147 110.437C127.147 110.437 85.7062 121.445 97.5586 178.278C109.411 235.111 72.889 232.889 41.8021 227.945L39.8296 242.51C39.8296 242.51 121.246 267.68 132.108 196.117C142.979 124.554 127.155 110.437 127.155 110.437H127.147Z" fill="#FDB068"/>
<path opacity="0.46" d="M127.147 110.437C127.147 110.437 85.7062 121.445 97.5586 178.278C109.411 235.111 72.889 232.889 41.8021 227.945L39.8296 242.51C39.8296 242.51 121.246 267.68 132.108 196.117C142.979 124.554 127.155 110.437 127.155 110.437H127.147Z" fill="white"/>
<path d="M0 143.143V177.985H22.5162L27.4346 191.854L33.2575 177.985H55.7651V143.143H0Z" fill="#E6E6E6"/>
<path d="M130.257 71.2787C130.257 71.2787 128.069 79.1775 128.422 84.7678C128.568 87.0332 130.558 88.7818 132.823 88.6009C135.64 88.3769 139.378 87.2658 141.067 83.1743L144.788 76.5848C144.788 76.5848 146.976 72.3727 143.039 68.2639C139.103 64.1552 131.359 66.4034 130.265 71.2787H130.257Z" fill="#F4A28C"/>
<path d="M143.228 78.2222L149.671 104.296L135.045 106.82L136.2 87.3355L143.228 78.2222Z" fill="#F4A28C"/>
<path d="M129.128 76.3262L126.302 79.0137C125.605 79.6769 125.837 80.8398 126.733 81.1843L129.705 82.3385L129.119 76.3262H129.128Z" fill="#F4A28C"/>
<path opacity="0.31" d="M136.174 87.8862C136.174 87.8862 141.161 85.5864 142.531 83.5449C142.531 83.5449 142.247 94.269 135.614 97.3958L136.183 87.8948L136.174 87.8862Z" fill="#CE8172"/>
<path d="M138.405 78.7128C138.405 78.7128 139.043 75.6204 141.325 76.2923C143.608 76.9642 142.721 81.4347 139.473 81.2624L138.405 78.7041V78.7128Z" fill="#F4A28C"/>
<path d="M147.88 74.7587L146.174 77.7132C146.174 77.7132 144.107 85.2932 139.068 89.2124C134.02 93.1317 126.923 92.322 126.32 86.9901C125.622 80.8744 129.722 82.3387 135.2 82.0889C140.687 81.8305 139.843 74.483 139.843 74.483C137.431 74.5175 135.769 73.2254 134.658 71.7697C133.116 69.7369 131.143 68.0916 128.792 67.1011C123.934 65.051 129.86 58.6855 129.86 58.6855C126.613 56.8852 129.102 53.1038 132.246 51.941C135.39 50.7781 136.286 54.4734 138.68 55.1797C141.066 55.886 140.102 52.0788 144.736 53.0177C149.37 53.9566 146.855 57.3762 149.637 59.8742C149.637 59.8742 152.841 57.4365 155.305 62.9923C156.717 66.1622 155.985 67.6523 154.573 68.4793C151.868 70.047 149.439 72.0626 147.88 74.7673V74.7587Z" fill="#24285B"/>
<path d="M183.136 261.986H109.73V323.47H183.136V261.986Z" fill="#A5A5A5"/>
<path d="M209.184 261.986H135.778V323.47H209.184V261.986Z" fill="#E6E6E6"/>
<path d="M134.46 311.084C134.46 311.084 132.427 316.744 127.31 317.174C122.202 317.605 120.859 322.601 125.458 323.91C130.058 325.211 141.91 319.302 141.91 319.302L141.575 311.929L134.46 311.084Z" fill="#FDB068"/>
<path d="M135.046 106.819L149.672 104.295C149.672 104.295 198.314 104.373 206.833 121.023C215.343 137.682 213.56 199.692 185.427 250.591L127.819 252.262C127.819 252.262 131.015 214.878 120.282 194.515C109.549 174.161 76.1799 130.903 135.063 106.819H135.046Z" fill="#FDB068"/>
<path d="M185.419 250.591L157.235 246.344C139.801 243.717 124.58 258.24 126.38 275.777L130.058 311.576H143.883L142.686 278.06C142.402 270.066 149.482 263.787 157.373 265.062C169.363 266.991 184.23 266.156 185.41 250.591H185.419Z" fill="#24285B"/>
<path d="M105.776 311.084C105.776 311.084 103.743 316.744 98.6267 317.174C93.5188 317.605 92.175 322.601 96.7747 323.91C101.374 325.211 113.227 319.302 113.227 319.302L112.891 311.929L105.776 311.084Z" fill="#FDB068"/>
<path opacity="0.08" d="M177.907 119.473C177.907 119.473 157.777 132.454 162.463 158.122C167.149 183.783 187.77 230.908 145.382 222.648L147.906 242.27L176.684 239.556L199.975 224.009L205.652 180.871L177.916 119.473H177.907Z" fill="#000001"/>
<path d="M156.735 250.591L128.551 246.344C111.116 243.717 95.8961 258.24 97.6963 275.777L101.374 311.576H115.199L114.002 278.06C113.718 270.066 120.798 263.787 128.688 265.062C140.679 266.991 155.546 266.156 156.726 250.591H156.735Z" fill="#24285B"/>
<path d="M174.858 127.854C176.21 113.064 194.575 106.759 204.403 117.905C209.072 123.202 212.81 130.972 213.551 142.351C215.773 176.711 243.475 278.103 135.054 246.094L137.811 233.337C137.811 233.337 170.991 240.736 188.39 224.086C202.887 210.209 171.447 165.272 174.875 127.854H174.858Z" fill="#FDB068"/>
<path opacity="0.46" d="M174.858 127.854C176.21 113.064 194.575 106.759 204.403 117.905C209.072 123.202 212.81 130.972 213.551 142.351C215.773 176.711 243.475 278.103 135.054 246.094L137.811 233.337C137.811 233.337 170.991 240.736 188.39 224.086C202.887 210.209 171.447 165.272 174.875 127.854H174.858Z" fill="white"/>
<path d="M104.837 248.255L87.0327 199.45H139.43L150.3 245.353L163.298 247.575V253.863L104.837 248.255Z" fill="#FFD200"/>
<path d="M119.868 226.954C122.793 226.954 125.165 224.582 125.165 221.656C125.165 218.731 122.793 216.359 119.868 216.359C116.942 216.359 114.57 218.731 114.57 221.656C114.57 224.582 116.942 226.954 119.868 226.954Z" fill="white"/>
<path opacity="0.08" d="M94.7505 220.606L139.49 251.581L104.837 248.256L94.7505 220.606Z" fill="#000001"/>
<path d="M129.714 109.171C129.714 109.171 128.172 104.381 135.046 100.867C141.919 97.3527 155.245 92.5117 159.87 105.019C159.87 105.019 144.891 114.692 129.705 109.171H129.714Z" fill="#FDB068"/>
<path opacity="0.46" d="M129.714 109.171C129.714 109.171 128.172 104.381 135.046 100.867C141.919 97.3527 155.245 92.5117 159.87 105.019C159.87 105.019 144.891 114.692 129.705 109.171H129.714Z" fill="white"/>
<path d="M41.794 227.945C41.794 227.945 32.1725 220.055 28.4686 225.24C24.7647 230.426 39.8215 239.306 39.8215 239.306L41.794 227.945Z" fill="#F4A28C"/>
<path d="M45.7536 219.075L27.1157 200.438L16.1644 211.389L34.8023 230.027L45.7536 219.075Z" fill="#FFD200"/>
<path d="M143.126 75.5168C143.126 75.5168 147.105 73.1652 148.587 76.3265C150.068 79.4963 145.624 81.9771 142.609 80.0476C142.609 80.0476 143.78 78.0148 143.134 75.5168H143.126Z" fill="#F4A28C"/>
<path d="M14.402 163.98C16.7283 163.98 18.6141 162.094 18.6141 159.768C18.6141 157.441 16.7283 155.556 14.402 155.556C12.0758 155.556 10.1899 157.441 10.1899 159.768C10.1899 162.094 12.0758 163.98 14.402 163.98Z" fill="#A5A5A5"/>
<path d="M27.4172 163.98C29.7435 163.98 31.6293 162.094 31.6293 159.768C31.6293 157.441 29.7435 155.556 27.4172 155.556C25.0909 155.556 23.2051 157.441 23.2051 159.768C23.2051 162.094 25.0909 163.98 27.4172 163.98Z" fill="#A5A5A5"/>
<path d="M40.0969 163.98C42.4231 163.98 44.309 162.094 44.309 159.768C44.309 157.441 42.4231 155.556 40.0969 155.556C37.7706 155.556 35.8848 157.441 35.8848 159.768C35.8848 162.094 37.7706 163.98 40.0969 163.98Z" fill="#A5A5A5"/>
</svg>
