<svg width="300" height="300" viewBox="0 0 300 300" fill="none" xmlns="http://www.w3.org/2000/svg">
<path opacity="0.1" d="M209.094 151.23C208.938 146.712 208.644 141.894 208.158 136.908C207.504 126.948 206.256 117.648 203.994 111.798C191.538 109.248 126.828 114 126.78 114L126.378 112.2L126.216 111.486L125.928 110.232L125.85 109.944C125.43 108.252 124.956 106.578 124.404 104.916C124.404 104.916 75.3476 100.536 59.0756 104.784C59.0756 104.928 59.0756 105.066 59.0756 105.21L59.1236 109.224C59.1716 116.994 58.9916 124.284 59.3936 132.288V132.348C59.3158 132.341 59.2375 132.341 59.1596 132.348C58.5282 132.432 57.9322 132.688 57.4376 133.09C56.9431 133.491 56.5693 134.021 56.3576 134.622C56.1962 135.088 56.1368 135.583 56.1836 136.074L56.3996 138.6C56.3996 138.642 56.3996 138.678 56.3996 138.72C56.9996 145.092 57.5996 151.404 57.5996 151.404C57.5996 151.404 57.9116 151.434 58.4216 151.458L61.1156 151.65C55.3796 152.178 49.1156 159.75 49.3916 166.26C49.6676 172.77 43.3916 185.028 44.9576 192.06C46.1576 197.556 52.3316 206.394 55.3376 213.108L55.1036 214.44L41.6816 241.392C42.5816 240.072 50.6816 275.292 88.3016 267.834L115.068 224.226C118.053 221.975 120.785 219.406 123.216 216.564C124.242 215.545 125.095 214.365 125.742 213.072C126.697 211.545 127.427 209.888 127.908 208.152C128.028 207.696 128.154 207.246 128.286 206.784C130.47 201.222 133.386 193.632 135.522 188.376C163.722 187.536 193.332 185.814 208.2 182.316H208.23C209.67 172.536 209.7 161.562 209.094 151.23ZM64.2716 175.872C64.0389 174.247 63.8986 172.611 63.8516 170.97C64.1816 172.698 64.5416 174.42 64.9196 176.148C64.7036 176.052 64.4876 175.956 64.2716 175.872Z" fill="black"/>
<path d="M38.6157 239.67C38.6157 239.67 50.6637 275.292 88.3017 267.834C88.3017 267.834 96.6537 228.624 103.65 222.834C108.162 219.114 118.128 212.442 120.258 207.612C122.388 202.782 130.944 179.844 132.6 177.084C134.256 174.324 114.648 142.566 114.648 142.566L73.3437 163.878L50.3637 204.678C50.3637 204.678 45.9537 231.078 38.6157 239.67Z" fill="white"/>
<path d="M49.9618 207.858C49.9618 207.858 47.0158 229.884 37.2778 241.392" stroke="#263238" stroke-linecap="round" stroke-linejoin="round"/>
<path d="M88.3018 267.834C88.3018 267.834 96.6058 229.896 103.65 222.834C103.65 222.834 119.562 213.582 122.43 202.692C124.416 195.15 128.028 186.456 129.756 182.508" stroke="#263238" stroke-linecap="round" stroke-linejoin="round"/>
<path d="M91.6499 183.726C91.0499 183.342 101.28 191.526 101.676 202.71" stroke="#263238" stroke-linecap="round" stroke-linejoin="round"/>
<path d="M202.752 176.868C169.584 184.668 62.7598 183.642 62.7598 183.642C61.8598 181.746 60.7738 176.97 59.7238 171.438C57.6238 160.332 55.6618 146.178 55.6618 146.178L52.1278 145.932C52.1278 145.932 51.5278 139.62 50.9278 133.248C50.3278 126.876 53.9278 126.882 53.9278 126.882L53.6698 104.826L53.6038 99.3182C69.8758 95.0702 118.932 99.4502 118.932 99.4502L120.462 104.766L121.314 108.534L198.522 106.356C205.602 124.662 202.752 176.868 202.752 176.868Z" fill="#1A1A1A"/>
<path d="M189.924 123.363L139.284 125.895C137.2 126 135.595 127.774 135.699 129.858L136.213 140.148C136.318 142.232 138.092 143.838 140.176 143.733L190.816 141.201C192.9 141.097 194.506 139.323 194.401 137.239L193.887 126.949C193.783 124.864 192.009 123.259 189.924 123.363Z" fill="#A6ACC4"/>
<path d="M194.124 147.924L194.286 149.634L135.978 151.89L135.93 150.354L194.124 147.924Z" fill="#A6ACC4"/>
<path d="M194.412 153.87L194.466 155.406L136.164 157.56L136.11 156.03L194.412 153.87Z" fill="#A6ACC4"/>
<path opacity="0.3" d="M197.51 106.356C197.51 106.356 206.114 147.156 201.752 176.868C201.752 176.868 147.344 183.252 128.714 182.22L127.952 172.29L129.512 172.05C129.512 172.05 122 115.374 120.296 108.534C120.296 108.534 185.09 103.8 197.51 106.356Z" fill="black"/>
<path opacity="0.8" d="M127.158 172.146L127.8 179.652C127.8 179.652 72.9598 182.052 68.1358 180.306C63.3118 178.56 68.3938 175.776 81.1498 174.774C93.9058 173.772 127.158 172.146 127.158 172.146Z" fill="white"/>
<path d="M94.4158 140.31C97.1827 140.31 99.4258 138.279 99.4258 135.774C99.4258 133.269 97.1827 131.238 94.4158 131.238C91.6488 131.238 89.4058 133.269 89.4058 135.774C89.4058 138.279 91.6488 140.31 94.4158 140.31Z" fill="#F18341"/>
<path d="M55.6616 146.172C56.7919 158.864 59.1673 171.415 62.7536 183.642C86.0156 183.444 109.272 183.186 132.528 182.442C155.784 181.698 179.682 180.126 202.728 176.868C202.728 176.868 206.856 140.412 198.486 106.356C189.234 104.43 121.53 108.522 121.53 108.522" stroke="#263238" stroke-linecap="round" stroke-linejoin="round"/>
<path d="M127.158 172.146L127.8 179.652L75.5997 180.852C73.4457 181.038 70.0917 181.32 68.1117 180.306C67.2117 179.844 66.5637 178.716 66.9897 177.792C67.3737 176.964 68.3817 176.67 69.2817 176.49C75.6657 175.176 82.1817 174.624 88.6797 174.144C102.592 173.112 116.526 172.414 130.482 172.05C130.188 172.05 126.786 143.976 126.408 141.384C124.932 131.244 123.528 121.062 121.704 110.976C121.045 107.071 120.105 103.219 118.89 99.4503C97.3857 97.9143 74.9277 96.4923 53.5557 99.3183C53.7537 108.84 53.3997 117.318 53.8857 126.882" stroke="#263238" stroke-linecap="round" stroke-linejoin="round"/>
<path d="M61.956 180.816C61.8276 180.428 61.7509 180.024 61.728 179.616" stroke="#263238" stroke-linecap="round" stroke-linejoin="round"/>
<path d="M62.0757 177.343C62.8737 175.345 65.2677 173.089 71.7777 172.369C83.6517 171.049 109.536 168.673 124.722 168.097" stroke="#F18341" stroke-linecap="round" stroke-linejoin="round" stroke-dasharray="3.91 3.91"/>
<path d="M125.898 168.055L127.098 168.013L126.936 166.812" stroke="#263238" stroke-linecap="round" stroke-linejoin="round"/>
<path d="M126.6 164.515C123.87 144.877 120.846 125.383 117.384 105.853" stroke="#F18341" stroke-linecap="round" stroke-linejoin="round" stroke-dasharray="3.88 3.88"/>
<path d="M117.192 104.706L116.976 103.506L115.776 103.422" stroke="#263238" stroke-linecap="round" stroke-linejoin="round"/>
<path d="M113.352 103.267C103.374 102.601 74.9998 100.939 56.0698 102.235" stroke="#F18341" stroke-linecap="round" stroke-linejoin="round" stroke-dasharray="4.07 4.07"/>
<path d="M54.846 102.324L53.646 102.42" stroke="#263238" stroke-linecap="round" stroke-linejoin="round"/>
<path d="M52.128 145.932L50.694 130.632C50.6505 130.172 50.7001 129.709 50.8399 129.269C50.9797 128.829 51.2068 128.422 51.5076 128.072C51.8084 127.722 52.1767 127.436 52.5905 127.231C53.0044 127.027 53.4552 126.908 53.916 126.882C62.736 126.372 85.548 125.172 94.302 125.874C98.502 126.21 103.068 127.56 105.102 131.58C106.794 134.892 107.046 139.86 104.208 142.584C99.888 146.724 91.692 146.406 86.124 146.604C75.756 147 52.134 146.022 52.128 145.932Z" stroke="#263238" stroke-linecap="round" stroke-linejoin="round"/>
<path d="M106.368 136.578C106.368 136.152 108.552 145.368 100.572 148.41C92.5916 151.452 55.6616 150.492 55.6616 150.492V146.172C55.6616 146.172 81.7856 146.724 86.1356 146.604C90.4856 146.484 105.9 147.93 106.368 136.578Z" fill="#A6ACC4"/>
<path d="M98.6938 188.059C98.6938 188.059 105.222 191.881 107.664 199.063" stroke="#263238" stroke-linecap="round" stroke-linejoin="round"/>
<path d="M50.874 129.181C50.874 129.181 82.89 127.675 91.038 127.945C99.186 128.215 103.176 130.009 103.986 135.115C104.796 140.221 99.858 143.401 95.922 144.001C91.986 144.601 52.122 144.775 52.122 144.775" stroke="#F18341" stroke-linecap="round" stroke-linejoin="round" stroke-dasharray="4 4"/>
<path d="M72.876 191.034C72.876 191.034 67.92 173.82 58.8 170.43C58.8 170.43 57 158.682 60.888 158.034C64.776 157.386 75.756 150.15 72.888 141.12C70.02 132.09 61.41 145.65 55.674 146.172C49.938 146.694 43.674 154.272 43.932 160.788C44.19 167.304 37.932 179.562 39.498 186.588C41.064 193.614 50.718 206.148 51.498 212.67" fill="white"/>
<path d="M72.876 191.034C72.876 191.034 67.92 173.82 58.8 170.43C58.8 170.43 57 158.682 60.888 158.034C64.776 157.386 75.756 150.15 72.888 141.12C70.02 132.09 61.41 145.65 55.674 146.172C49.938 146.694 43.674 154.272 43.932 160.788C44.19 167.304 37.932 179.562 39.498 186.588C41.064 193.614 50.718 206.148 51.498 212.67" stroke="#263238" stroke-linecap="round" stroke-linejoin="round"/>
<path d="M60.8696 143.526C60.8696 143.526 67.7396 144.774 71.4716 140.412C75.2036 136.05 70.9076 135.774 70.9076 135.774L60.8696 143.526Z" fill="white" stroke="#263238" stroke-linecap="round" stroke-linejoin="round"/>
<path d="M48.5996 153.246C49.8537 153.332 51.0664 153.73 52.1276 154.404" stroke="#263238" stroke-linecap="round" stroke-linejoin="round"/>
<path d="M48.3896 155.742C49.6388 155.861 50.8289 156.331 51.8216 157.098" stroke="#263238" stroke-linecap="round" stroke-linejoin="round"/>
<path d="M66.936 178.8C66.936 178.8 96.336 177.282 104.076 177.726" stroke="#263238" stroke-linecap="round" stroke-linejoin="round"/>
<path d="M96.918 175.482C96.918 175.482 104.316 174.882 108.918 175.482" stroke="#263238" stroke-linecap="round" stroke-linejoin="round"/>
<path d="M115.662 177.643H127.632" stroke="#263238" stroke-linecap="round" stroke-linejoin="round"/>
<path d="M122.904 111.894C122.904 111.894 175.482 107.196 196.608 109.878C196.608 109.878 202.308 120.36 201.066 174.078C177.321 177.122 153.431 178.898 129.498 179.4" stroke="#F18341" stroke-linecap="round" stroke-linejoin="round" stroke-dasharray="4 4"/>
<g opacity="0.1">
<path d="M265.236 186.234C263.742 179.88 261.552 177.492 259.356 175.656C259.356 175.656 259.308 172.056 256.494 170.004C255.742 169.342 254.94 168.74 254.094 168.204C251.454 166.224 248.544 164.004 248.544 164.004C247.176 160.044 245.322 155.25 243.318 150.534L243.42 151.608C241.368 146.598 239.358 141.612 238.794 139.956V139.92C239.394 141.516 239.994 143.058 240.654 144.48L233.142 117.93C232.962 116.862 232.776 115.812 232.59 114.798C232.23 111.798 231.252 106.146 228.894 105.744C228.806 105.738 228.718 105.738 228.63 105.744C228.63 105.744 225.852 104.544 225.852 109.47C222.546 110.574 221.268 113.07 220.95 116.004C220.778 116.935 220.758 117.887 220.89 118.824C220.95 119.91 221.076 121.02 221.244 122.124L210.6 108.132L209.574 106.8L196.446 89.5203L178.8 66.2403C178.143 65.3761 177.323 64.6498 176.386 64.1028C175.448 63.5557 174.412 63.1988 173.337 63.0522C172.261 62.9057 171.168 62.9725 170.118 63.2487C169.069 63.525 168.084 64.0053 167.22 64.6623L145.314 81.3003L136.764 87.7923C130.206 91.2063 131.916 97.9503 133.734 100.344L171.936 150.63C171.737 150.605 171.536 150.595 171.336 150.6C171.336 150.6 170.244 148.026 167.544 148.434C166.969 148.461 166.413 148.646 165.936 148.968C165.5 149.197 165.131 149.534 164.862 149.946C164.563 150.308 164.294 150.693 164.058 151.098C162.684 153.45 163.956 159.204 165.942 166.23C166.068 166.686 166.194 167.124 166.314 167.532V167.598L166.824 169.356C168.768 176.1 172.404 189.342 173.076 195.834C173.124 196.434 173.154 197.076 173.166 197.676C173.208 205.152 169.89 217.668 171.318 222.84C171.504 223.518 171.696 224.166 171.888 224.808C172.95 228.264 173.898 231.534 175.566 234.78C177.594 238.74 180.012 242.538 182.274 246.372C186.426 253.416 190.722 260.376 195.162 267.252C197.208 270.408 199.602 273.288 201.918 276.252C202.98 277.614 205.296 279.66 205.698 281.406C205.698 281.406 226.236 283.104 237.732 275.802L236.652 259.458L244.362 215.148C246.564 211.806 253.362 205.278 254.718 203.214C255.42 202.188 256.104 201.168 256.77 200.172C261.84 195.438 264.378 191.772 265.494 187.506C265.518 187.518 265.44 187.032 265.236 186.234ZM194.136 195.912L194.034 195.72C196.132 196.67 198.354 197.317 200.634 197.64C198.24 197.364 195.534 196.98 194.136 195.912ZM202.8 197.898L203.904 197.976C203.535 197.975 203.166 197.949 202.8 197.898ZM193.92 195.462L192.54 192.726C190.62 187.218 186.282 174.234 186.264 174.18C185.414 170.439 184.279 166.768 182.868 163.2C183.889 163.56 184.983 163.661 186.052 163.493C187.121 163.326 188.132 162.895 188.994 162.24L199.494 154.266C200.58 154.92 201.69 155.508 202.776 156.024L212.61 163.71L204.81 195.768L193.92 195.462ZM233.724 121.626C234.54 125.454 235.83 130.962 237.54 136.296C235.88 131.515 234.6 126.609 233.712 121.626H233.724Z" fill="black"/>
<path d="M189.15 275.67L189.21 275.958C189.21 275.958 189.192 275.85 189.15 275.67Z" fill="black"/>
</g>
<path d="M225.6 122.802C226.2 122.406 234.996 117.618 239.4 131.976C243.804 146.334 248.97 170.766 248.97 170.766L238.506 172.8C238.506 172.8 228.81 167.64 220.122 154.716C220.122 154.716 207.942 151.56 202.638 144.06C197.838 137.244 212.646 112.218 212.646 112.218L225.6 122.802Z" fill="white"/>
<path d="M221.838 140.67C224.43 144.558 229.338 152.736 235.962 155.316" stroke="#263238" stroke-linecap="round" stroke-linejoin="round"/>
<path d="M214.506 144.852C215.706 145.338 218.706 147.066 220.122 147.132C220.122 147.132 226.236 159.234 236.322 163.164" stroke="#263238" stroke-linecap="round" stroke-linejoin="round"/>
<path d="M208.896 149.31C212.646 152.448 217.116 154.59 220.122 154.71C220.122 154.71 226.236 166.812 236.322 170.742" stroke="#263238" stroke-linecap="round" stroke-linejoin="round"/>
<path d="M177.337 61.6145L144.159 86.8161C141.277 89.0049 140.716 93.1152 142.905 95.9968L188.985 156.662C191.174 159.543 195.284 160.105 198.166 157.916L231.344 132.715C234.225 130.526 234.787 126.416 232.598 123.534L186.517 62.8689C184.329 59.9873 180.218 59.4257 177.337 61.6145Z" fill="#263238"/>
<path d="M230.4 131.4L199.956 154.53C199.093 155.188 198.107 155.669 197.057 155.946C196.007 156.222 194.913 156.289 193.837 156.142C192.761 155.995 191.725 155.637 190.788 155.088C189.851 154.54 189.031 153.812 188.376 152.946L144.366 95.0096C143.649 94.0738 143.145 92.9926 142.89 91.8416C142.535 90.2961 142.635 88.681 143.177 87.1907C143.719 85.7004 144.68 84.3985 145.944 83.4416L154.5 76.9496L176.4 60.3056C177.264 59.649 178.25 59.169 179.299 58.8932C180.349 58.6174 181.443 58.5512 182.518 58.6983C183.594 58.8454 184.63 59.203 185.567 59.7505C186.504 60.2981 187.324 61.025 187.98 61.8896L205.638 85.1336L218.766 102.414L231.966 119.814C232.625 120.677 233.107 121.662 233.384 122.711C233.662 123.761 233.73 124.855 233.585 125.931C233.439 127.007 233.083 128.044 232.537 128.982C231.99 129.921 231.264 130.742 230.4 131.4Z" fill="#F18341"/>
<path opacity="0.1" d="M205.614 85.1336L154.482 76.9436L176.4 60.3056C177.264 59.649 178.249 59.169 179.299 58.8932C180.349 58.6174 181.443 58.5512 182.518 58.6983C183.594 58.8454 184.629 59.203 185.567 59.7505C186.504 60.2981 187.324 61.025 187.98 61.8896L205.614 85.1336Z" fill="black"/>
<path opacity="0.1" d="M230.4 131.4L199.956 154.53C199.093 155.188 198.107 155.669 197.057 155.946C196.007 156.223 194.913 156.289 193.837 156.142C192.761 155.995 191.725 155.637 190.788 155.088C189.851 154.54 189.031 153.812 188.376 152.946L144.366 95.0098C143.649 94.074 143.145 92.9927 142.89 91.8418L219.774 103.8L231.966 119.85C233.285 121.591 233.86 123.784 233.567 125.948C233.273 128.112 232.135 130.073 230.4 131.4Z" fill="black"/>
<path d="M180.721 66.1883L175.346 70.2712C174.269 71.089 174.059 72.6247 174.877 73.7013L181.384 82.2681C182.202 83.3448 183.738 83.5546 184.815 82.7368L190.19 78.6539C191.266 77.8361 191.476 76.3004 190.658 75.2237L184.151 66.6569C183.333 65.5803 181.798 65.3705 180.721 66.1883Z" fill="white" stroke="#263238" stroke-linecap="round" stroke-linejoin="round"/>
<path d="M178.146 68.1357L187.428 80.7477" stroke="#263238" stroke-linecap="round" stroke-linejoin="round"/>
<path d="M178.146 78.0058L187.428 70.9678" stroke="#263238" stroke-linecap="round" stroke-linejoin="round"/>
<path d="M196.122 150.756L194.538 151.92L175.212 126.48L176.784 125.292L196.122 150.756Z" fill="#263238"/>
<path d="M198.804 148.77L197.22 149.946L177.87 124.464L179.43 123.276L198.804 148.77Z" fill="#263238"/>
<path d="M201.48 146.796L199.902 147.96L180.522 122.454L182.088 121.26L201.48 146.796Z" fill="#263238"/>
<path d="M204.162 144.81L202.578 145.974L183.456 120.804L185.016 119.61L204.162 144.81Z" fill="#263238"/>
<path d="M207.054 142.674L205.47 143.844L186.318 118.632L187.884 117.438L207.054 142.674Z" fill="#263238"/>
<path d="M207.054 113.009L205.47 114.173L186.318 88.9614L187.884 87.7734L207.054 113.009Z" fill="#263238"/>
<path d="M165.344 68.771L162.893 70.6328L216.86 141.68L219.311 139.819L165.344 68.771Z" fill="#263238"/>
<path d="M230.4 131.4L199.956 154.53C199.093 155.188 198.107 155.669 197.057 155.946C196.007 156.222 194.913 156.289 193.837 156.142C192.761 155.995 191.725 155.637 190.788 155.088C189.851 154.54 189.031 153.812 188.376 152.946L144.366 95.0096C143.649 94.0738 143.145 92.9926 142.89 91.8416C142.535 90.2961 142.635 88.681 143.177 87.1907C143.719 85.7004 144.68 84.3985 145.944 83.4416L154.5 76.9496L176.4 60.3056C177.264 59.649 178.25 59.169 179.299 58.8932C180.349 58.6174 181.443 58.5512 182.518 58.6983C183.594 58.8454 184.63 59.203 185.567 59.7505C186.504 60.2981 187.324 61.025 187.98 61.8896L205.638 85.1336L218.766 102.414L231.966 119.814C232.625 120.677 233.107 121.662 233.384 122.711C233.662 123.761 233.73 124.855 233.585 125.931C233.439 127.007 233.083 128.044 232.537 128.982C231.99 129.921 231.264 130.742 230.4 131.4Z" stroke="#263238" stroke-linecap="round" stroke-linejoin="round"/>
<path d="M205.722 281.4C205.722 281.4 241.158 294 251.88 266.556C251.88 266.556 235.11 246.156 244.266 229.488C250.026 218.988 265.956 195.81 265.956 195.81C265.956 195.81 272.61 189.492 274.68 183.144C274.68 183.144 273.54 176.07 268.524 171.282C268.524 171.282 268.47 167.682 265.656 165.63C262.842 163.578 257.682 159.63 257.682 159.63C257.682 159.63 249.198 139.278 247.938 135.6C246.678 131.922 244.146 124.968 242.88 117.288C241.614 109.608 240.444 101.34 237.756 101.364C237.756 101.364 234.984 100.164 234.984 105.09C234.984 105.09 229.164 108.09 230.022 114.438C230.88 120.786 231.672 124.068 231.444 127.638C231.216 131.208 232.362 143.604 235.23 147.492C235.23 147.492 236.19 164.892 237.63 169.422C237.678 169.56 237.72 169.686 237.762 169.8C239.274 173.634 224.166 188.4 215.988 192.396C215.988 192.396 215.13 193.992 211.956 193.554C208.782 193.116 203.412 192.912 202.488 190.554C201.564 188.196 195.414 169.8 195.414 169.8C195.414 169.8 190.44 146.22 180.504 146.226C180.504 146.226 178.998 142.626 175.104 144.594C171.21 146.562 173.76 157.29 175.482 163.158C177.204 169.026 181.566 184.452 182.274 191.55C182.982 198.648 178.962 212.868 180.474 218.46C181.986 224.052 183.666 227.826 188.49 236.982C193.314 246.138 204 273.438 205.722 281.4Z" fill="white"/>
<path d="M205.722 281.4C205.722 281.4 198.138 252.852 186.99 234.39C175.842 215.928 182.4 209.4 182.4 194.034C182.4 178.668 169.878 152.508 173.256 146.742C176.634 140.976 181.242 145.59 183.168 150.972C185.094 156.354 182.4 159.432 177 159.816" stroke="#263238" stroke-linecap="round" stroke-linejoin="round"/>
<path d="M180.504 146.25C180.504 146.25 186.978 145.854 190.956 156.204C194.934 166.554 201.306 192.804 207.942 200.79" stroke="#263238" stroke-linecap="round" stroke-linejoin="round"/>
<path d="M202.704 191.094C202.74 191.178 211.974 196.326 226.302 191.814" stroke="#263238" stroke-linecap="round" stroke-linejoin="round"/>
<path d="M181.734 176.628C182.454 175.747 183.393 175.071 184.456 174.667C185.52 174.264 186.671 174.148 187.794 174.33" stroke="#263238" stroke-linecap="round" stroke-linejoin="round"/>
<path d="M182.964 179.886C183.586 179.142 184.405 178.588 185.327 178.288C186.249 177.988 187.237 177.953 188.178 178.188" stroke="#263238" stroke-linecap="round" stroke-linejoin="round"/>
<path d="M234.984 105.072C225.564 108.21 232.584 122.436 231.444 127.626C230.304 132.816 233.244 142.752 235.506 148.14C235.506 154.458 237.756 169.788 237.756 169.788C236.364 174.666 224.748 189.042 213.462 193.542" stroke="#263238" stroke-linecap="round" stroke-linejoin="round"/>
<path d="M241.896 112.236C241.896 112.236 241.194 101.346 237.756 101.346C234.318 101.346 234.528 108.684 235.956 114.132C237.384 119.58 242.94 118.8 241.896 112.236Z" stroke="#263238" stroke-linecap="round" stroke-linejoin="round"/>
<path d="M241.896 112.236C241.896 112.236 244.824 129.354 249.786 140.106" stroke="#263238" stroke-linecap="round" stroke-linejoin="round"/>
<path d="M255.636 180.198C258.036 176.31 259.098 172.632 259.986 167.952C259.764 165.018 256.386 155.442 252.462 146.166" stroke="#263238" stroke-linecap="round" stroke-linejoin="round"/>
<path d="M258 160.536C261.894 163.464 268.668 165.714 267.888 170.766C267.027 175.82 265.259 180.676 262.668 185.1" stroke="#263238" stroke-linecap="round" stroke-linejoin="round"/>
<path d="M252.744 267.834C252.744 267.834 239.178 249 241.896 235.992C243.894 226.422 256.74 209.688 265.956 195.828C271.032 191.094 273.57 187.428 274.68 183.162C273.054 175.152 270.414 172.818 267.876 170.766" stroke="#263238" stroke-linecap="round" stroke-linejoin="round"/>
<path d="M256.362 163.644C254.851 163.219 253.269 163.109 251.713 163.32C250.158 163.532 248.663 164.061 247.32 164.874" stroke="#263238" stroke-linecap="round" stroke-linejoin="round"/>
<path d="M255.6 166.866C253.757 166.587 251.873 166.918 250.236 167.808" stroke="#263238" stroke-linecap="round" stroke-linejoin="round"/>
</svg>
